{
classes = (
{
automatic = 1;
code = "A Aacute Abreve Acircumflex Adieresis Agrave Amacron Aogonek Aring Atilde AE B C Cacute Ccaron Ccedilla Cdotaccent D Eth Dcaron Dcroat E Eacute Ecaron Ecircumflex Edieresis Edotaccent Egrave Emacron Eogonek F G Gbreve Gcommaaccent Gdotaccent H Hbar I IJ Iacute Icircumflex Idieresis Idotaccent Igrave Imacron Iogonek J K Kcommaaccent L Lacute Lcaron Lcommaaccent Ldot Lslash M N Nacute Ncaron Ncommaaccent Eng Ntilde O Oacute Ocircumflex Odieresis Ograve Ohungarumlaut Omacron Oslash Otilde OE P Thorn Q R Racute Rcaron Rcommaaccent S Sacute Scaron Scedilla Scommaaccent T Tbar Tcaron Tcedilla Tcommaaccent U Uacute Ucircumflex Udieresis Ugrave Uhungarumlaut Umacron Uogonek Uring V W Wacute Wcircumflex Wdieresis Wgrave X Y Yacute Ycircumflex Ydieresis Ygrave Z Zacute Zcaron Zdotaccent";
name = Uppercase;
},
{
automatic = 1;
code = "k-deva kh-deva g-deva gh-deva ng-deva c-deva ch-deva j-deva jh-deva ny-deva tt-deva dd-deva nn-deva t-deva th-deva d-deva dh-deva n-deva nnn-deva p-deva ph-deva b-deva bh-deva m-deva y-deva rr-deva l-deva ll-deva lll-deva v-deva sh-deva ss-deva s-deva h-deva q-deva khh-deva ghh-deva z-deva f-deva l-deva.loclMAR sh-deva.loclMAR jh-deva.loclNEP";
name = DevaHalfforms;
},
{
automatic = 1;
code = "iMatra-deva iMatra-deva.0 iMatra-deva.015 iMatra-deva.045 iMatra-deva.055 iMatra-deva.057 iMatra-deva.059 iMatra-deva.073 iMatra-deva.075 iMatra-deva.101 iMatra-deva.102 iMatra-deva.103 iMatra-deva.104 iMatra-deva.105 iMatra-deva.106 iMatra-deva.107 iMatra-deva.108 iMatra-deva.109 iMatra-deva.110 iMatra-deva.111 iMatra-deva.112 iMatra-deva.113 iMatra-deva.114 iMatra-deva.115 iMatra-deva.116 iMatra-deva.117 iMatra-deva.118 iMatra-deva.119 iMatra-deva.120 iMatra-deva.121 iMatra-deva.01 iMatra-deva.02 iMatra-deva.03 iMatra-deva.04 iMatra-deva.05 iMatra-deva.06 iMatra-deva.07 iMatra-deva.10";
name = DevaIMatras;
},
{
automatic = 1;

glyphs = (
{
color = (0,255,0,1);
glyphname = A;
lastChange = "2015-02-28 18:39:27 +0000";
layers = (
{
anchors = (
{
name = Accent;
position = "{409.5, 800}";
},
{
name = ogonek;
position = "{721, 0}";
}
);
layerId = "BE6E37CB-569E-4B40-A59A-BD6EE6EB60D7";
name = Bold;
paths = (
{
closed = 1;
nodes = (
"210 0 LINE",
"447 695 LINE",
"371 695 LINE",
"609 0 LINE",
"789 0 LINE",
"523 767 LINE",
"295 767 LINE",
"30 0 LINE"
);
},
{
closed = 1;
nodes = (
"598 154 LINE",
"598 308 LINE",
"222 308 LINE",
"222 154 LINE"
);
}
);
width = 819;
},
{
anchors = (
{
name = Accent;
position = "{344, 758}";
},
{
name = ogonek;
position = "{634, 0}";
}
);
layerId = "817DDDC7-9D97-429D-9F3D-5ABA58537E71";
name = Light;
paths = (
{
closed = 1;
nodes = (
"85 0 LINE",
"352 695 LINE",
"336 695 LINE",
"604 0 LINE",
"664 0 LINE",
"368 767 LINE",
"320 767 LINE",
"25 0 LINE"
);
},
{
closed = 1;
nodes = (
"533 254 LINE",
"533 308 LINE",
"157 308 LINE",
"157 254 LINE"
);
}
);
width = 689;
}
);
unicode = 0041;
userData = {
com.typemytype.robofont.layerData = {
background = {
anchors = (
{
name = Accent;
x = 409;
y = 758;
},
{
name = ogonek;
x = 699;
y = 0;
}
);
components = (
);
contours = (
{
points = (
{
segmentType = line;
smooth = 0;
x = 90;
y = 0;
},
{
segmentType = line;
smooth = 0;
x = 150;
y = 0;
},
{
segmentType = line;
smooth = 0;
x = 417;
y = 695;
},
{
segmentType = line;
smooth = 0;
x = 401;
y = 695;
},
{
segmentType = line;
smooth = 0;
x = 669;
y = 0;
},
{
segmentType = line;
smooth = 0;
x = 729;
y = 0;
},
{
segmentType = line;
smooth = 0;
x = 433;
y = 767;
},
{
segmentType = line;
smooth = 0;
x = 385;
y = 767;
}
);
},
{
points = (
{
segmentType = line;
smooth = 0;
x = 222;
y = 254;
},
{
segmentType = line;
smooth = 0;
x = 598;
y = 254;
},
{
segmentType = line;
smooth = 0;
x = 598;
y = 308;
},
{
segmentType = line;
smooth = 0;
x = 222;
y = 308;
}
);
}
);
lib = {
};
name = A;
unicodes = (
);
width = 819;
};
};
com.typemytype.robofont.mark = (
0,
1,
0,
1
);
};
},
{
color = (255,255,0,1);
glyphname = AE;
lastChange = "2015-02-28 18:39:27 +0000";
layers = (
{
layerId = "BE6E37CB-569E-4B40-A59A-BD6EE6EB60D7";
name = Bold;
paths = (
{
closed = 1;
nodes = (
"223 0 LINE",
"615 704 LINE",
"579 704 LINE",
"580 758 LINE",
"461 758 LINE",
"25 0 LINE"
);
},
{
closed = 1;
nodes = (
"585 204 LINE",
"585 348 LINE",
"269 348 LINE",
"229 204 LINE"
);
},
{
closed = 1;
nodes = (
"1062 0 LINE",
"1062 144 LINE",
"659 144 LINE",
"659 0 LINE"
);
},
{
closed = 1;
nodes = (
"736 0 LINE",
"736 758 LINE",
"556 758 LINE",
"556 0 LINE"
);
},
{
closed = 1;
nodes = (
"1007 309 LINE",
"1007 453 LINE",
"659 453 LINE",
"659 309 LINE"
);
},
{
closed = 1;
nodes = (
"1057 614 LINE",
"1057 758 LINE",
"659 758 LINE",
"659 614 LINE"
);
}
);
width = 1122;
},
{
layerId = "817DDDC7-9D97-429D-9F3D-5ABA58537E71";
name = Light;
paths = (
{
closed = 1;
nodes = (
"97 0 LINE",
"555 704 LINE",
"557 704 LINE",
"580 758 LINE",
"531 758 LINE",
"35 0 LINE"
);
},
{
closed = 1;
nodes = (
"585 254 LINE",
"585 308 LINE",
"269 308 LINE",
"229 254 LINE"
);
},
{
closed = 1;
nodes = (
"1000 0 LINE",
"1000 54 LINE",
"597 54 LINE",
"597 0 LINE"
);
},
{
closed = 1;
nodes = (
"612 0 LINE",
"612 758 LINE",
"556 758 LINE",
"556 0 LINE"
);
},
{
closed = 1;
nodes = (
"945 354 LINE",
"945 408 LINE",
"597 408 LINE",
"597 354 LINE"
);
},
{
closed = 1;
nodes = (
"995 704 LINE",
"995 758 LINE",
"597 758 LINE",
"597 704 LINE"
);
}
);
width = 1060;
}
);
unicode = 00C6;
userData = {
com.typemytype.robofont.layerData = {
background = {
anchors = (
);
components = (
);
contours = (
{
points = (
{
segmentType = line;
smooth = 0;
x = 35;
y = 0;
},
{
segmentType = line;
smooth = 0;
x = 97;
y = 0;
},
{
segmentType = line;
smooth = 0;
x = 555;
y = 704;
},
{
segmentType = line;
smooth = 0;
x = 557;
y = 704;
},
{
segmentType = line;
smooth = 0;
x = 580;
y = 758;
},
{
segmentType = line;
smooth = 0;
x = 531;
y = 758;
}
);
},
{
points = (
{
segmentType = line;
smooth = 0;
x = 229;
y = 254;
},
{
segmentType = line;
smooth = 0;
x = 585;
y = 254;
},
{
segmentType = line;
smooth = 0;
x = 585;
y = 308;
},
{
segmentType = line;
smooth = 0;
x = 269;
y = 308;
}
);
},
{
points = (
{
segmentType = line;
smooth = 0;
x = 556;
y = 758;
},
{
segmentType = line;
smooth = 0;
x = 556;
y = 0;
},
{
segmentType = line;
smooth = 0;
x = 612;
y = 0;
},
{
segmentType = line;
smooth = 0;
x = 612;
y = 758;
}
);
},
{
points = (
{
segmentType = line;
smooth = 0;
x = 597;
y = 0;
},
{
segmentType = line;
smooth = 0;
x = 1000;
y = 0;
},
{
segmentType = line;
smooth = 0;
x = 1000;
y = 54;
},
{
segmentType = line;
smooth = 0;
x = 597;
y = 54;
}
);
},
{
points = (
{
segmentType = line;
smooth = 0;
x = 597;
y = 354;
},
{
segmentType = line;
smooth = 0;
x = 945;
y = 354;
},
{
segmentType = line;
smooth = 0;
x = 945;
y = 408;
},
{
segmentType = line;
smooth = 0;
x = 597;
y = 408;
}
);
},
{
points = (
{
segmentType = line;
smooth = 0;
x = 597;
y = 704;
},
{
segmentType = line;
smooth = 0;
x = 995;
y = 704;
},
{
segmentType = line;
smooth = 0;
x = 995;
y = 758;
},
{
segmentType = line;
smooth = 0;
x = 597;
y = 758;
}
);
}
);
lib = {
};
name = AE;
unicodes = (
);
width = 1122;
};
};
com.typemytype.robofont.mark = (
1,
1,
0,
1
);
};
},
{
color = (0,255,0,1);
glyphname = B;
lastChange = "2015-02-28 18:39:27 +0000";
layers = (
{
layerId = "BE6E37CB-569E-4B40-A59A-BD6EE6EB60D7";
name = Bold;
paths = (
{
closed = 1;
nodes = (
"397 0 LINE SMOOTH",
"619 0 OFFCURVE",
"696 75 OFFCURVE",
"696 212 CURVE SMOOTH",
"696 306 OFFCURVE",
"633 368 OFFCURVE",
"538 391 CURVE",
"539 377 LINE",
"633 408 OFFCURVE",
"666 469 OFFCURVE",
"666 555 CURVE SMOOTH",
"666 679 OFFCURVE",
"602 758 OFFCURVE",
"397 758 CURVE SMOOTH",
"80 758 LINE",
"80 0 LINE"
);
},
{
closed = 1;
nodes = (
"260 309 LINE",
"397 309 LINE SMOOTH",
"474 309 OFFCURVE",
"515 284 OFFCURVE",
"514 224 CURVE SMOOTH",
"514 168 OFFCURVE",
"484 142 OFFCURVE",
"397 142 CURVE SMOOTH",
"260 142 LINE"
);
},
{
closed = 1;
nodes = (
"260 616 LINE",
"397 616 LINE SMOOTH",
"458 616 OFFCURVE",
"484 592 OFFCURVE",
"484 533 CURVE SMOOTH",
"483 478 OFFCURVE",
"453 451 OFFCURVE",
"397 451 CURVE SMOOTH",
"260 451 LINE"
);
}
);
width = 746;
},
{
layerId = "817DDDC7-9D97-429D-9F3D-5ABA58537E71";
name = Light;
paths = (
{
closed = 1;
nodes = (
"355 0 LINE SMOOTH",
"546 0 OFFCURVE",
"612 71 OFFCURVE",
"612 202 CURVE SMOOTH",
"612 301 OFFCURVE",
"561 364 OFFCURVE",
"456 391 CURVE",
"457 377 LINE",
"543 408 OFFCURVE",
"582 469 OFFCURVE",
"582 555 CURVE SMOOTH",
"582 689 OFFCURVE",
"528 758 OFFCURVE",
"355 758 CURVE SMOOTH",
"120 758 LINE",
"120 0 LINE"
);
},
{
closed = 1;
nodes = (
"176 354 LINE",
"355 354 LINE SMOOTH",
"484 354 OFFCURVE",
"555 310 OFFCURVE",
"554 202 CURVE SMOOTH",
"553 100 OFFCURVE",
"503 52 OFFCURVE",
"355 52 CURVE SMOOTH",
"176 52 LINE"
);
},
{
closed = 1;
nodes = (
"176 706 LINE",
"355 706 LINE SMOOTH",
"486 706 OFFCURVE",
"525 662 OFFCURVE",
"524 555 CURVE SMOOTH",
"523 454 OFFCURVE",
"466 406 OFFCURVE",
"355 406 CURVE SMOOTH",
"176 406 LINE"
);
}
);
width = 690;
}
);
unicode = 0042;
userData = {
com.typemytype.robofont.layerData = {
background = {
anchors = (
{
name = Accent;
x = 366;
y = 758;
},
{
name = Accent;
x = 366;
y = 758;
}
);
components = (
);
contours = (
{
points = (
{
smooth = 0;
x = "-161";
y = 408;
},
{
smooth = 0;
x = "-122";
y = 469;
},
{
segmentType = curve;
smooth = 1;
x = "-122";
y = 555;
},
{
smooth = 0;
x = "-122";
y = 689;
},
{
smooth = 0;
x = "-176";
y = 758;
},
{
segmentType = curve;
smooth = 1;
x = "-349";
y = 758;
},
{
segmentType = line;
smooth = 0;
x = "-584";
y = 758;
},
{
segmentType = line;
smooth = 0;
x = "-584";
y = 0;
},
{
segmentType = line;
smooth = 1;
x = "-349";
y = 0;
},
{
smooth = 0;
x = "-158";
y = 0;
},
{
smooth = 0;
x = "-92";
y = 71;
},
{
segmentType = curve;
smooth = 1;
x = "-92";
y = 202;
},
{
smooth = 0;
x = "-92";
y = 301;
},
{
smooth = 0;
x = "-143";
y = 364;
},
{
segmentType = curve;
smooth = 0;
x = "-248";
y = 391;
},
{
segmentType = line;
smooth = 0;
x = "-247";
y = 377;
}
);
},
{
points = (
{
segmentType = line;
smooth = 1;
x = "-349";
y = 706;
},
{
smooth = 0;
x = "-218";
y = 706;
},
{
smooth = 0;
x = "-179";
y = 662;
},
{
segmentType = curve;
smooth = 1;
x = "-180";
y = 555;
},
{
smooth = 0;
x = "-181";
y = 454;
},
{
smooth = 0;
x = "-238";
y = 406;
},
{
segmentType = curve;
smooth = 1;
x = "-349";
y = 406;
},
{
segmentType = line;
smooth = 0;
x = "-528";
y = 406;
},
{
segmentType = line;
smooth = 0;
x = "-528";
y = 706;
}
);
},
{
points = (
{
smooth = 0;
x = "-151";
y = 100;
},
{
smooth = 0;
x = "-201";
y = 52;
},
{
segmentType = curve;
smooth = 1;
x = "-349";
y = 52;
},
{
segmentType = line;
smooth = 0;
x = "-528";
y = 52;
},
{
segmentType = line;
smooth = 0;
x = "-528";
y = 354;
},
{
segmentType = line;
smooth = 1;
x = "-349";
y = 354;
},
{
smooth = 0;
x = "-220";
y = 354;
},
{
smooth = 0;
x = "-149";
y = 310;
},
{
segmentType = curve;
smooth = 1;
x = "-150";
y = 202;
}
);
},
{
points = (
{
smooth = 0;
x = 633;
y = 408;
},
{
smooth = 0;
x = 666;
y = 469;
},
{
segmentType = curve;
smooth = 1;
x = 666;
y = 555;
},
{
smooth = 0;
x = 666;
y = 679;
},
{
smooth = 0;
x = 602;
y = 758;
},
{
segmentType = curve;
smooth = 1;
x = 397;
y = 758;
},
{
segmentType = line;
smooth = 0;
x = 80;
y = 758;
},
{
segmentType = line;
smooth = 0;
x = 80;
y = 0;
},
{
segmentType = line;
smooth = 1;
x = 397;
y = 0;
},
{
smooth = 0;
x = 619;
y = 0;
},
{
smooth = 0;
x = 696;
y = 75;
},
{
segmentType = curve;
smooth = 1;
x = 696;
y = 212;
},
{
smooth = 0;
x = 696;
y = 306;
},
{
smooth = 0;
x = 633;
y = 368;
},
{
segmentType = curve;
smooth = 0;
x = 538;
y = 391;
},
{
segmentType = line;
smooth = 0;
x = 539;
y = 377;
}
);
},
{
points = (
{
segmentType = line;
smooth = 1;
x = 397;
y = 606;
},
{
smooth = 0;
x = 458;
y = 606;
},
{
smooth = 0;
x = 484;
y = 584;
},
{
segmentType = curve;
smooth = 1;
x = 484;
y = 530;
},
{
smooth = 0;
x = 483;
y = 480;
},
{
smooth = 0;
x = 453;
y = 456;
},
{
segmentType = curve;
smooth = 1;
x = 397;
y = 456;
},
{
segmentType = line;
smooth = 0;
x = 260;
y = 456;
},
{
segmentType = line;
smooth = 0;
x = 260;
y = 606;
}
);
},
{
points = (
{
smooth = 0;
x = 514;
y = 176;
},
{
smooth = 0;
x = 484;
y = 152;
},
{
segmentType = curve;
smooth = 1;
x = 397;
y = 152;
},
{
segmentType = line;
smooth = 0;
x = 260;
y = 152;
},
{
segmentType = line;
smooth = 0;
x = 260;
y = 304;
},
{
segmentType = line;
smooth = 1;
x = 397;
y = 304;
},
{
smooth = 0;
x = 474;
y = 304;
},
{
smooth = 0;
x = 515;
y = 281;
},
{
segmentType = curve;
smooth = 1;
x = 514;
y = 227;
}
);
}
);
lib = {
};
name = B;
unicodes = (
);
width = 746;
};
};
com.typemytype.robofont.mark = (
0,
1,
0,
1
);
};
},
{
color = (0,255,0,1);
glyphname = C;
lastChange = "2015-02-28 18:39:26 +0000";
layers = (
{
anchors = (
{
name = Accent;
position = "{394, 800}";
},
{
name = bottomaccent;
position = "{404, 0}";
}
);
layerId = "BE6E37CB-569E-4B40-A59A-BD6EE6EB60D7";
name = Bold;
paths = (
{
closed = 1;
nodes = (
"509 -17 OFFCURVE",
"598 3 OFFCURVE",
"678 44 CURVE",
"625 191 LINE",
"562 157 OFFCURVE",
"502 135 OFFCURVE",
"434 135 CURVE",
"295 135 OFFCURVE",
"217 234 OFFCURVE",
"217 378 CURVE SMOOTH",
"217 517 OFFCURVE",
"307.028 620 OFFCURVE",
"439 620 CURVE",
"499.315 620 OFFCURVE",
"558.301 608.36 OFFCURVE",
"618 579 CURVE",
"618 735 LINE",
"557 760 OFFCURVE",
"507 772 OFFCURVE",
"434 772 CURVE",
"168 772 OFFCURVE",
"35 595 OFFCURVE",
"35 377 CURVE SMOOTH",
"35 141 OFFCURVE",
"158 -17 OFFCURVE",
"434 -17 CURVE"
);
}
);
width = 713;
},
{
anchors = (
{
name = Accent;
position = "{384, 758}";
},
{
name = bottomaccent;
position = "{424, 0}";
}
);
layerId = "817DDDC7-9D97-429D-9F3D-5ABA58537E71";
name = Light;
paths = (
{
closed = 1;
nodes = (
"499 -17 OFFCURVE",
"588 3 OFFCURVE",
"668 44 CURVE",
"648 94 LINE",
"576 60 OFFCURVE",
"504 35 OFFCURVE",
"424 35 CURVE",
"232 35 OFFCURVE",
"126 175 OFFCURVE",
"125 378 CURVE SMOOTH",
"124 576 OFFCURVE",
"232 720 OFFCURVE",
"424 720 CURVE",
"486 720 OFFCURVE",
"547 708.947 OFFCURVE",
"608 679 CURVE",
"608 735 LINE",
"547 760 OFFCURVE",
"497 772 OFFCURVE",
"424 772 CURVE",
"177 772 OFFCURVE",
"67 595 OFFCURVE",
"67 378 CURVE SMOOTH",
"67 146 OFFCURVE",
"187 -17 OFFCURVE",
"424 -17 CURVE"
);
}
);
width = 703;
}
);
unicode = 0043;
userData = {
com.typemytype.robofont.layerData = {
background = {
anchors = (
);
components = (
);
contours = (
);
lib = {
};
name = C;
unicodes = (
);
width = 713;
};
};
com.typemytype.robofont.mark = (
0,
1,
0,
1
);
};
},
{
color = (0,255,0,1);
glyphname = D;
lastChange = "2015-02-28 18:39:26 +0000";
layers = (
{
anchors = (
{
name = Accent;
position = "{400.5, 800}";
}
);
layerId = "BE6E37CB-569E-4B40-A59A-BD6EE6EB60D7";
name = Bold;
paths = (
{
closed = 1;
nodes = (
"347 0 LINE",
"625 0 OFFCURVE",
"766 127 OFFCURVE",
"766 378 CURVE SMOOTH",
"766 626 OFFCURVE",
"625 758 OFFCURVE",
"347 758 CURVE",
"172 758 LINE",
"172 606 LINE",
"347 606 LINE",
"508 606 OFFCURVE",
"585 537 OFFCURVE",
"584 378 CURVE SMOOTH",
"583 218 OFFCURVE",
"508 152 OFFCURVE",
"347 152 CURVE",
"171 152 LINE",
"171 0 LINE"
);
},
{
closed = 1;
nodes = (
"260 0 LINE",
"260 758 LINE",
"80 758 LINE",
"80 0 LINE"
);
}
);
width = 801;
},
{
anchors = (
{
name = Accent;
position = "{365, 758}";
}
);
layerId = "817DDDC7-9D97-429D-9F3D-5ABA58537E71";
name = Light;
paths = (
{
closed = 1;
nodes = (
"365 0 LINE",
"601.723 0 OFFCURVE",
"722 127 OFFCURVE",
"722 378 CURVE SMOOTH",
"722 626 OFFCURVE",
"601.723 758 OFFCURVE",
"365 758 CURVE",
"150 758 LINE",
"150 706 LINE",
"365 706 LINE",
"556.522 706 OFFCURVE",
"665 607 OFFCURVE",
"664 378 CURVE SMOOTH",
"663 147 OFFCURVE",
"556.522 52 OFFCURVE",
"365 52 CURVE",
"149 52 LINE",
"149 0 LINE"
);
},
{
closed = 1;
nodes = (
"176 0 LINE",
"176 758 LINE",
"120 758 LINE",
"120 0 LINE"
);
}
);
width = 794;
}
);
unicode = 0044;
userData = {
com.typemytype.robofont.layerData = {
background = {
anchors = (
);
components = (
);
contours = (
);
lib = {
};
name = D;
unicodes = (
);
width = 801;
};
};
com.typemytype.robofont.mark = (
0,
1,
0,
1
);
};
},
{
color = (255,255,0,1);
glyphname = Eth;
lastChange = "2015-02-28 18:39:27 +0000";
layers = (
{
components = (
{
name = D;
}
);
layerId = "BE6E37CB-569E-4B40-A59A-BD6EE6EB60D7";
name = Bold;
paths = (
{
closed = 1;
nodes = (
"408 317 LINE",
"408 445 LINE",
"7 445 LINE",
"7 317 LINE"
);
}
);
width = 801;
},
{
components = (
{
name = D;
}
);
layerId = "817DDDC7-9D97-429D-9F3D-5ABA58537E71";
name = Light;
paths = (
{
closed = 1;
nodes = (
"382 355 LINE",
"382 407 LINE",
"27 407 LINE",
"27 355 LINE"
);
}
);
width = 794;
}
);
unicode = 00D0;
userData = {
com.typemytype.robofont.layerData = {
background = {
anchors = (
);
components = (
);
contours = (
);
lib = {
};
name = Eth;
unicodes = (
);
width = 801;
};
};
com.typemytype.robofont.mark = (
1,
1,
0,
1
);
};
},
{
color = (0,255,0,1);
glyphname = E;
lastChange = "2015-02-28 18:39:26 +0000";
layers = (
{
anchors = (
{
name = Accent;
position = "{333, 800}";
},
{
name = ogonek;
position = "{518, 0}";
}
);
layerId = "BE6E37CB-569E-4B40-A59A-BD6EE6EB60D7";
name = Bold;
paths = (
{
closed = 1;
nodes = (
"260 0 LINE",
"260 758 LINE",
"80 758 LINE",
"80 0 LINE"
);
},
{
closed = 1;
nodes = (
"586 0 LINE",
"586 144 LINE",
"183 144 LINE",
"183 0 LINE"
);
},
{
closed = 1;
nodes = (
"531 309 LINE",
"531 453 LINE",
"183 453 LINE",
"183 309 LINE"
);
},
{
closed = 1;
nodes = (
"581 614 LINE",
"581 758 LINE",
"183 758 LINE",
"183 614 LINE"
);
}
);
width = 646;
},
{
anchors = (
{
name = Accent;
position = "{337, 758}";
},
{
name = ogonek;
position = "{534, 0}";
}
);
layerId = "817DDDC7-9D97-429D-9F3D-5ABA58537E71";
name = Light;
paths = (
{
closed = 1;
nodes = (
"176 0 LINE",
"176 758 LINE",
"120 758 LINE",
"120 0 LINE"
);
},
{
closed = 1;
nodes = (
"564 0 LINE",
"564 54 LINE",
"161 54 LINE",
"161 0 LINE"
);
},
{
closed = 1;
nodes = (
"509 354 LINE",
"509 408 LINE",
"161 408 LINE",
"161 354 LINE"
);
},
{
closed = 1;
nodes = (
"559 704 LINE",
"559 758 LINE",
"161 758 LINE",
"161 704 LINE"
);
}
);
width = 624;
}
);
unicode = 0045;
userData = {
com.typemytype.robofont.layerData = {
background = {
anchors = (
{
name = Accent;
x = 359;
y = 758;
},
{
name = ogonek;
x = 556;
y = 0;
}
);
components = (
);
contours = (
{
points = (
{
segmentType = line;
smooth = 0;
x = 80;
y = 758;
},
{
segmentType = line;
smooth = 0;
x = 80;
y = 0;
},
{
segmentType = line;
smooth = 0;
x = 260;
y = 0;
},
{
segmentType = line;
smooth = 0;
x = 260;
y = 758;
}
);
},
{
points = (
{
segmentType = line;
smooth = 0;
x = 183;
y = 0;
},
{
segmentType = line;
smooth = 0;
x = 586;
y = 0;
},
{
segmentType = line;
smooth = 0;
x = 586;
y = 154;
},
{
segmentType = line;
smooth = 0;
x = 183;
y = 154;
}
);
},
{
points = (
{
segmentType = line;
smooth = 0;
x = 183;
y = 304;
},
{
segmentType = line;
smooth = 0;
x = 531;
y = 304;
},
{
segmentType = line;
smooth = 0;
x = 531;
y = 458;
},
{
segmentType = line;
smooth = 0;
x = 183;
y = 458;
}
);
},
{
points = (
{
segmentType = line;
smooth = 0;
x = 183;
y = 604;
},
{
segmentType = line;
smooth = 0;
x = 581;
y = 604;
},
{
segmentType = line;
smooth = 0;
x = 581;
y = 758;
},
{
segmentType = line;
smooth = 0;
x = 183;
y = 758;
}
);
}
);
lib = {
};
name = E;
unicodes = (
);
width = 646;
};
};
com.typemytype.robofont.mark = (
0,
1,
0,
1
);
};
},
{
color = (0,255,0,1);
glyphname = F;
lastChange = "2015-02-28 18:39:27 +0000";
layers = (
{
layerId = "BE6E37CB-569E-4B40-A59A-BD6EE6EB60D7";
name = Bold;
paths = (
{
closed = 1;
nodes = (
"260 0 LINE",
"260 758 LINE",
"80 758 LINE",
"80 0 LINE"
);
},
{
closed = 1;
nodes = (
"531 284 LINE",
"531 438 LINE",
"183 438 LINE",
"183 284 LINE"
);
},
{
closed = 1;
nodes = (
"581 604 LINE",
"581 758 LINE",
"183 758 LINE",
"183 604 LINE"
);
}
);
width = 621;
},
{
layerId = "817DDDC7-9D97-429D-9F3D-5ABA58537E71";
name = Light;
paths = (
{
closed = 1;
nodes = (
"176 0 LINE",
"176 758 LINE",
"120 758 LINE",
"120 0 LINE"
);
},
{
closed = 1;
nodes = (
"509 344 LINE",
"509 398 LINE",
"161 398 LINE",
"161 344 LINE"
);
},
{
closed = 1;
nodes = (
"559 704 LINE",
"559 758 LINE",
"161 758 LINE",
"161 704 LINE"
);
}
);
width = 609;
}
);
unicode = 0046;
userData = {
com.typemytype.robofont.layerData = {
background = {
anchors = (
);
components = (
);
contours = (
);
lib = {
};
name = F;
unicodes = (
);
width = 621;
};
};
com.typemytype.robofont.mark = (
0,
1,
0,
1
);
};
},
{
color = (0,255,0,1);
glyphname = G;
lastChange = "2015-02-28 18:39:27 +0000";
layers = (
{
anchors = (
{
name = Accent;
position = "{418, 800}";
},
{
name = bottomaccent;
position = "{416, 0}";
}
);
layerId = "BE6E37CB-569E-4B40-A59A-BD6EE6EB60D7";
name = Bold;
paths = (
{
closed = 1;
nodes = (
"512 -17 OFFCURVE",
"611 6 OFFCURVE",
"695 53 CURVE",
"598 184 LINE",
"543 158 OFFCURVE",
"504 135 OFFCURVE",
"434 135 CURVE",
"295 135 OFFCURVE",
"218 234 OFFCURVE",
"217 378 CURVE SMOOTH",
"216 518 OFFCURVE",
"295 620 OFFCURVE",
"434 620 CURVE",
"526 620 OFFCURVE",
"587 597 OFFCURVE",
"648 563 CURVE",
"648 722 LINE",
"589 748 OFFCURVE",
"532 772 OFFCURVE",
"434 772 CURVE",
"158 772 OFFCURVE",
"35 595 OFFCURVE",
"35 378 CURVE SMOOTH",
"35 146 OFFCURVE",
"169 -17 OFFCURVE",
"434 -17 CURVE"
);
},
{
closed = 1;
nodes = (
"695 53 LINE",
"695 313 LINE",
"519 313 LINE",
"519 53 LINE"
);
},
{
closed = 1;
nodes = (
"695 309 LINE",
"695 463 LINE",
"330 463 LINE",
"330 309 LINE"
);
}
);
width = 755;
},
{
anchors = (
{
name = Accent;
position = "{409, 758}";
},
{
name = bottomaccent;
position = "{424, 0}";
}
);
layerId = "817DDDC7-9D97-429D-9F3D-5ABA58537E71";
name = Light;
paths = (
{
closed = 1;
nodes = (
"502 -17 OFFCURVE",
"603 6 OFFCURVE",
"685 53 CURVE",
"648 94 LINE",
"576 60 OFFCURVE",
"504 35 OFFCURVE",
"424 35 CURVE",
"232 35 OFFCURVE",
"126 175 OFFCURVE",
"125 378 CURVE SMOOTH",
"124 576 OFFCURVE",
"232 720 OFFCURVE",
"424 720 CURVE",
"516 720 OFFCURVE",
"577 697 OFFCURVE",
"638 663 CURVE",
"638 722 LINE",
"579 748 OFFCURVE",
"522 772 OFFCURVE",
"424 772 CURVE",
"177 772 OFFCURVE",
"67 595 OFFCURVE",
"67 378 CURVE SMOOTH",
"67 146 OFFCURVE",
"187 -17 OFFCURVE",
"424 -17 CURVE"
);
},
{
closed = 1;
nodes = (
"685 53 LINE",
"685 413 LINE",
"629 413 LINE",
"629 53 LINE"
);
},
{
closed = 1;
nodes = (
"685 409 LINE",
"685 463 LINE",
"300 463 LINE",
"300 409 LINE"
);
}
);
width = 780;
}
);
unicode = 0047;
userData = {
com.typemytype.robofont.layerData = {
background = {
anchors = (
);
components = (
);
contours = (
);
lib = {
};
name = G;
unicodes = (
);
width = 755;
};
};
com.typemytype.robofont.mark = (
0,
1,
0,
1
);
};
},
{
color = (0,255,0,1);
glyphname = H;
lastChange = "2015-02-28 18:39:26 +0000";
layers = (
{
anchors = (
{
name = Accent;
position = "{409.5, 800}";
}
);
layerId = "BE6E37CB-569E-4B40-A59A-BD6EE6EB60D7";
name = Bold;
paths = (
{
closed = 1;
nodes = (
"739 0 LINE",
"739 758 LINE",
"559 758 LINE",
"559 0 LINE"
);
},
{
closed = 1;
nodes = (
"260 0 LINE",
"260 758 LINE",
"80 758 LINE",
"80 0 LINE"
);
},
{
closed = 1;
nodes = (
"634 304 LINE",
"634 458 LINE",
"179 458 LINE",
"179 304 LINE"
);
}
);
width = 819;
},
{
anchors = (
{
name = Accent;
position = "{387, 758}";
}
);
layerId = "817DDDC7-9D97-429D-9F3D-5ABA58537E71";
name = Light;
paths = (
{
closed = 1;
nodes = (
"655 0 LINE",
"655 758 LINE",
"599 758 LINE",
"599 0 LINE"
);
},
{
closed = 1;
nodes = (
"176 0 LINE",
"176 758 LINE",
"120 758 LINE",
"120 0 LINE"
);
},
{
closed = 1;
nodes = (
"612 354 LINE",
"612 408 LINE",
"157 408 LINE",
"157 354 LINE"
);
}
);
width = 775;
}
);
unicode = 0048;
userData = {
com.typemytype.robofont.layerData = {
background = {
anchors = (
{
name = Accent;
x = 409;
y = 758;
}
);
components = (
);
contours = (
{
points = (
{
segmentType = line;
smooth = 0;
x = 142;
y = 758;
},
{
segmentType = line;
smooth = 0;
x = 142;
y = 0;
},
{
segmentType = line;
smooth = 0;
x = 198;
y = 0;
},
{
segmentType = line;
smooth = 0;
x = 198;
y = 758;
}
);
},
{
points = (
{
segmentType = line;
smooth = 0;
x = 621;
y = 758;
},
{
segmentType = line;
smooth = 0;
x = 621;
y = 0;
},
{
segmentType = line;
smooth = 0;
x = 677;
y = 0;
},
{
segmentType = line;
smooth = 0;
x = 677;
y = 758;
}
);
},
{
points = (
{
segmentType = line;
smooth = 0;
x = 179;
y = 354;
},
{
segmentType = line;
smooth = 0;
x = 634;
y = 354;
},
{
segmentType = line;
smooth = 0;
x = 634;
y = 408;
},
{
segmentType = line;
smooth = 0;
x = 179;
y = 408;
}
);
}
);
lib = {
};
name = H;
unicodes = (
);
width = 819;
};
};
com.typemytype.robofont.mark = (
0,
1,
0,
1
);
};
},
{
color = (255,255,0,1);
glyphname = Hbar;
lastChange = "2015-02-28 18:39:27 +0000";
layers = (
{
layerId = "BE6E37CB-569E-4B40-A59A-BD6EE6EB60D7";
name = Bold;
paths = (
{
closed = 1;
nodes = (
"739 0 LINE",
"739 758 LINE",
"559 758 LINE",
"559 0 LINE"
);
},
{
closed = 1;
nodes = (
"260 0 LINE",
"260 758 LINE",
"80 758 LINE",
"80 0 LINE"
);
},
{
closed = 1;
nodes = (
"634 304 LINE",
"634 458 LINE",
"179 458 LINE",
"179 304 LINE"
);
},
{
closed = 1;
nodes = (
"638 526 LINE",
"638 678 LINE",
"177 678 LINE",
"177 526 LINE"
);
}
);
width = 775;
},
{
layerId = "817DDDC7-9D97-429D-9F3D-5ABA58537E71";
name = Light;
paths = (
{
closed = 1;
nodes = (
"655 0 LINE",
"655 758 LINE",
"599 758 LINE",
"599 0 LINE"
);
},
{
closed = 1;
nodes = (
"176 0 LINE",
"176 758 LINE",
"120 758 LINE",
"120 0 LINE"
);
},
{
closed = 1;
nodes = (
"612 354 LINE",
"612 408 LINE",
"157 408 LINE",
"157 354 LINE"
);
},
{
closed = 1;
nodes = (
"618 556 LINE",
"618 608 LINE",
"157 608 LINE",
"157 556 LINE"
);
}
);
width = 775;
}
);
unicode = 0126;
userData = {
com.typemytype.robofont.layerData = {
background = {
anchors = (
{
name = Accent;
x = 449;
y = 758;
}
);
components = (
);
contours = (
{
points = (
{
segmentType = line;
smooth = 0;
x = 182;
y = 758;
},
{
segmentType = line;
smooth = 0;
x = 182;
y = 0;
},
{
segmentType = line;
smooth = 0;
x = 238;
y = 0;
},
{
segmentType = line;
smooth = 0;
x = 238;
y = 758;
}
);
},
{
points = (
{
segmentType = line;
smooth = 0;
x = 661;
y = 758;
},
{
segmentType = line;
smooth = 0;
x = 661;
y = 0;
},
{
segmentType = line;
smooth = 0;
x = 717;
y = 0;
},
{
segmentType = line;
smooth = 0;
x = 717;
y = 758;
}
);
},
{
points = (
{
segmentType = line;
smooth = 0;
x = 219;
y = 354;
},
{
segmentType = line;
smooth = 0;
x = 674;
y = 354;
},
{
segmentType = line;
smooth = 0;
x = 674;
y = 408;
},
{
segmentType = line;
smooth = 0;
x = 219;
y = 408;
}
);
}
);
lib = {
};
name = Hbar;
unicodes = (
);
width = 775;
};
};
com.typemytype.robofont.mark = (
1,
1,
0,
1
);
};
},
{
color = (0,255,0,1);
glyphname = I;
lastChange = "2015-02-28 18:39:26 +0000";
layers = (
{
anchors = (
{
name = Accent;
position = "{170, 800}";
},
{
name = bottomaccent;
position = "{170, 0}";
}
);
layerId = "BE6E37CB-569E-4B40-A59A-BD6EE6EB60D7";
name = Bold;
paths = (
{
closed = 1;
nodes = (
"260 0 LINE",
"260 758 LINE",
"80 758 LINE",
"80 0 LINE"
);
}
);
width = 340;
},
{
anchors = (
{
name = Accent;
position = "{148, 758}";
},
{
name = bottomaccent;
position = "{148, 0}";
}
);
layerId = "817DDDC7-9D97-429D-9F3D-5ABA58537E71";
name = Light;
paths = (
{
closed = 1;
nodes = (
"176 0 LINE",
"176 758 LINE",
"120 758 LINE",
"120 0 LINE"
);
}
);
width = 296;
}
);
unicode = 0049;
userData = {
com.typemytype.robofont.layerData = {
background = {
anchors = (
{
name = Accent;
x = 170;
y = 758;
},
{
name = bottomaccent;
x = 170;
y = 0;
}
);
components = (
);
contours = (
{
points = (
{
segmentType = line;
smooth = 0;
x = 142;
y = 758;
},
{
segmentType = line;
smooth = 0;
x = 142;
y = 0;
},
{
segmentType = line;
smooth = 0;
x = 198;
y = 0;
},
{
segmentType = line;
smooth = 0;
x = 198;
y = 758;
}
);
}
);
lib = {
};
name = I;
unicodes = (
);
width = 340;
};
};
com.typemytype.robofont.mark = (
0,
1,
0,
1
);
};
},
{
glyphname = Iogonek;
lastChange = "2015-02-28 18:39:27 +0000";
layers = (
{
components = (
{
name = I;
}
);
layerId = "BE6E37CB-569E-4B40-A59A-BD6EE6EB60D7";
name = Bold;
paths = (
{
closed = 1;
nodes = (
"183 -263 OFFCURVE",
"211 -258 OFFCURVE",
"238 -249 CURVE",
"238 -154 LINE",
"220 -162 OFFCURVE",
"202 -166 OFFCURVE",
"185 -166 CURVE SMOOTH",
"160 -166 OFFCURVE",
"145 -156 OFFCURVE",
"145 -131 CURVE SMOOTH",
"145 -88 OFFCURVE",
"184 -42 OFFCURVE",
"238 0 CURVE",
"238 10 LINE",
"103 10 LINE",
"103 0 LINE",
"40 -49 OFFCURVE",
"14 -107 OFFCURVE",
"14 -160 CURVE SMOOTH",
"14 -224 OFFCURVE",
"59 -263 OFFCURVE",
"156 -263 CURVE"
);
}
);
width = 340;
},
{
components = (
{
name = I;
}
);
layerId = "817DDDC7-9D97-429D-9F3D-5ABA58537E71";
name = Light;
paths = (
{
closed = 1;
nodes = (
"141 -223 OFFCURVE",
"158 -220 OFFCURVE",
"176 -212 CURVE",
"176 -164 LINE",
"157 -174 OFFCURVE",
"139 -176 OFFCURVE",
"124 -176 CURVE SMOOTH",
"88 -176 OFFCURVE",
"73 -157 OFFCURVE",
"73 -135 CURVE SMOOTH",
"73 -85 OFFCURVE",
"120 -44 OFFCURVE",
"176 0 CURVE",
"176 10 LINE",
"120 10 LINE",
"120 0 LINE",
"58 -46 OFFCURVE",
"22 -88 OFFCURVE",
"22 -140 CURVE SMOOTH",
"22 -188 OFFCURVE",
"55 -223 OFFCURVE",
"124 -223 CURVE"
);
}
);
width = 296;
}
);
unicode = 012E;
userData = {
com.typemytype.robofont.layerData = {
background = {
anchors = (
);
components = (
);
contours = (
);
lib = {
};
name = Iogonek;
unicodes = (
);
width = 340;
};
};
};
},
{
color = (0,255,0,1);
glyphname = J;
lastChange = "2015-02-28 18:39:26 +0000";
layers = (
{
anchors = (
{
name = Accent;
position = "{195, 800}";
}
);
layerId = "BE6E37CB-569E-4B40-A59A-BD6EE6EB60D7";
name = Bold;
paths = (
{
closed = 1;
nodes = (
"248 -181 OFFCURVE",
"290 -130 OFFCURVE",
"290 60 CURVE SMOOTH",
"290 758 LINE",
"110 758 LINE",
"110 66 LINE SMOOTH",
"110 -11 OFFCURVE",
"96 -27 OFFCURVE",
"55 -27 CURVE SMOOTH",
"32 -27 OFFCURVE",
"16 -25 OFFCURVE",
"1 -22 CURVE",
"1 -173 LINE",
"30 -179 OFFCURVE",
"58 -181 OFFCURVE",
"92 -181 CURVE SMOOTH"
);
}
);
width = 370;
},
{
anchors = (
{
name = Accent;
position = "{148, 758}";
}
);
layerId = "817DDDC7-9D97-429D-9F3D-5ABA58537E71";
name = Light;
paths = (
{
closed = 1;
nodes = (
"150 -81 OFFCURVE",
"176 -47 OFFCURVE",
"176 80 CURVE SMOOTH",
"176 758 LINE",
"120 758 LINE",
"120 86 LINE SMOOTH",
"120 -8 OFFCURVE",
"106 -27 OFFCURVE",
"57 -27 CURVE SMOOTH",
"42 -27 OFFCURVE",
"26 -26 OFFCURVE",
"11 -23 CURVE",
"11 -77 LINE",
"26 -80 OFFCURVE",
"41 -81 OFFCURVE",
"52 -81 CURVE SMOOTH"
);
}
);
width = 296;
}
);
unicode = 004A;
userData = {
com.typemytype.robofont.layerData = {
background = {
anchors = (
);
components = (
);
contours = (
);
lib = {
};
name = J;
unicodes = (
);
width = 370;
};
};
com.typemytype.robofont.mark = (
0,
1,
0,
1
);
};
},
{
color = (0,255,0,1);
glyphname = K;
lastChange = "2015-02-28 18:39:27 +0000";
layers = (
{
anchors = (
{
name = Accent;
position = "{371, 800}";
},
{
name = bottomaccent;
position = "{361, 0}";
}
);
layerId = "BE6E37CB-569E-4B40-A59A-BD6EE6EB60D7";
name = Bold;
paths = (
{
closed = 1;
nodes = (
"717 758 LINE",
"494 758 LINE",
"130 341 LINE",
"214 179 LINE"
);
},
{
closed = 1;
nodes = (
"260 0 LINE",
"260 758 LINE",
"80 758 LINE",
"80 0 LINE"
);
},
{
closed = 1;
nodes = (
"722 0 LINE",
"394 420 LINE",
"208 383 LINE",
"497 0 LINE"
);
}
);
width = 742;
},
{
anchors = (
{
name = Accent;
position = "{338, 758}";
},
{
name = bottomaccent;
position = "{325, 0}";
}
);
layerId = "817DDDC7-9D97-429D-9F3D-5ABA58537E71";
name = Light;
paths = (
{
closed = 1;
nodes = (
"615 758 LINE",
"542 758 LINE",
"158 371 LINE",
"156 296 LINE"
);
},
{
closed = 1;
nodes = (
"176 0 LINE",
"176 758 LINE",
"120 758 LINE",
"120 0 LINE"
);
},
{
closed = 1;
nodes = (
"620 0 LINE",
"252 450 LINE",
"206 413 LINE",
"545 0 LINE"
);
}
);
width = 660;
}
);
unicode = 004B;
userData = {
com.typemytype.robofont.layerData = {
background = {
anchors = (
);
components = (
);
contours = (
);
lib = {
};
name = K;
unicodes = (
);
width = 742;
};
};
com.typemytype.robofont.mark = (
0,
1,
0,
1
);
};
},
{
color = (0,255,0,1);
glyphname = L;
lastChange = "2015-02-28 18:39:27 +0000";
layers = (
{
anchors = (
{
name = Accent;
position = "{164, 800}";
},
{
name = bottomaccent;
position = "{307, 0}";
}
);
layerId = "BE6E37CB-569E-4B40-A59A-BD6EE6EB60D7";
name = Bold;
paths = (
{
closed = 1;
nodes = (
"260 0 LINE",
"260 758 LINE",
"80 758 LINE",
"80 0 LINE"
);
},
{
closed = 1;
nodes = (
"536 0 LINE",
"536 154 LINE",
"183 154 LINE",
"183 0 LINE"
);
}
);
width = 576;
},
{
anchors = (
{
name = Accent;
position = "{148, 758}";
},
{
name = bottomaccent;
position = "{314, 0}";
}
);
layerId = "817DDDC7-9D97-429D-9F3D-5ABA58537E71";
name = Light;
paths = (
{
closed = 1;
nodes = (
"176 0 LINE",
"176 758 LINE",
"120 758 LINE",
"120 0 LINE"
);
},
{
closed = 1;
nodes = (
"514 0 LINE",
"514 54 LINE",
"161 54 LINE",
"161 0 LINE"
);
}
);
width = 554;
}
);
unicode = 004C;
userData = {
com.typemytype.robofont.layerData = {
background = {
anchors = (
);
components = (
);
contours = (
);
lib = {
};
name = L;
unicodes = (
);
width = 576;
};
};
com.typemytype.robofont.mark = (
0,
1,
0,
1
);
};
},
{
color = (255,255,0,1);
glyphname = Lslash;
lastChange = "2015-02-28 18:39:27 +0000";
layers = (
{
components = (
{
name = L;
}
);
layerId = "BE6E37CB-569E-4B40-A59A-BD6EE6EB60D7";
name = Bold;
paths = (
{
closed = 1;
nodes = (
"432 374 LINE",
"432 526 LINE",
"0 352 LINE",
"0 200 LINE"
);
}
);
width = 576;
},
{
components = (
{
name = L;
}
);
layerId = "817DDDC7-9D97-429D-9F3D-5ABA58537E71";
name = Light;
paths = (
{
closed = 1;
nodes = (
"447 424 LINE",
"447 476 LINE",
"15 302 LINE",
"15 250 LINE"
);
}
);
width = 554;
}
);
unicode = 0141;
userData = {
com.typemytype.robofont.layerData = {
background = {
anchors = (
);
components = (
{
baseGlyph = L;
transformation = (
1,
0,
0,
1,
"-10",
0
);
}
);
contours = (
{
points = (
{
segmentType = line;
smooth = 0;
x = 15;
y = 250;
},
{
segmentType = line;
smooth = 0;
x = 447;
y = 424;
},
{
segmentType = line;
smooth = 0;
x = 447;
y = 476;
},
{
segmentType = line;
smooth = 0;
x = 15;
y = 302;
}
);
}
);
lib = {
};
name = Lslash;
unicodes = (
);
width = 576;
};
};
com.typemytype.robofont.mark = (
1,
1,
0,
1
);
};
},
{
color = (0,255,0,1);
glyphname = M;
lastChange = "2015-02-28 18:39:27 +0000";
layers = (
{
layerId = "BE6E37CB-569E-4B40-A59A-BD6EE6EB60D7";
name = Bold;
paths = (
{
closed = 1;
nodes = (
"260 0 LINE",
"260 687 LINE",
"134 683 LINE",
"428 251 LINE",
"518 251 LINE",
"816 683 LINE",
"690 687 LINE",
"690 0 LINE",
"870 0 LINE",
"870 758 LINE",
"662 758 LINE",
"458 452 LINE",
"492 452 LINE",
"288 758 LINE",
"80 758 LINE",
"80 0 LINE"
);
}
);
width = 950;
},
{
layerId = "817DDDC7-9D97-429D-9F3D-5ABA58537E71";
name = Light;
paths = (
{
closed = 1;
nodes = (
"176 0 LINE",
"176 687 LINE",
"162 683 LINE",
"437 306 LINE",
"469 306 LINE",
"744 683 LINE",
"730 687 LINE",
"730 0 LINE",
"786 0 LINE",
"786 758 LINE",
"730 758 LINE",
"439 360 LINE",
"467 360 LINE",
"176 758 LINE",
"120 758 LINE",
"120 0 LINE"
);
}
);
width = 906;
}
);
unicode = 004D;
userData = {
com.typemytype.robofont.layerData = {
background = {
anchors = (
{
name = Accent;
x = 475;
y = 758;
},
{
name = Accent;
x = 425;
y = 758;
},
{
name = bottomaccent;
x = 388;
y = 0;
}
);
components = (
);
contours = (
{
points = (
{
segmentType = line;
smooth = 0;
x = 752;
y = 758;
},
{
segmentType = line;
smooth = 0;
x = 461;
y = 360;
},
{
segmentType = line;
smooth = 0;
x = 489;
y = 360;
},
{
segmentType = line;
smooth = 0;
x = 198;
y = 758;
},
{
segmentType = line;
smooth = 0;
x = 142;
y = 758;
},
{
segmentType = line;
smooth = 0;
x = 142;
y = 0;
},
{
segmentType = line;
smooth = 0;
x = 198;
y = 0;
},
{
segmentType = line;
smooth = 0;
x = 198;
y = 687;
},
{
segmentType = line;
smooth = 0;
x = 184;
y = 683;
},
{
segmentType = line;
smooth = 0;
x = 459;
y = 306;
},
{
segmentType = line;
smooth = 0;
x = 491;
y = 306;
},
{
segmentType = line;
smooth = 0;
x = 766;
y = 683;
},
{
segmentType = line;
smooth = 0;
x = 752;
y = 687;
},
{
segmentType = line;
smooth = 0;
x = 752;
y = 0;
},
{
segmentType = line;
smooth = 0;
x = 808;
y = 0;
},
{
segmentType = line;
smooth = 0;
x = 808;
y = 758;
}
);
},
{
points = (
{
segmentType = line;
smooth = 0;
x = 559;
y = 758;
},
{
segmentType = line;
smooth = 0;
x = 559;
y = 79;
},
{
segmentType = line;
smooth = 0;
x = 634;
y = 163;
},
{
segmentType = line;
smooth = 0;
x = 297;
y = 758;
},
{
segmentType = line;
smooth = 0;
x = 80;
y = 758;
},
{
segmentType = line;
smooth = 0;
x = 80;
y = 0;
},
{
segmentType = line;
smooth = 0;
x = 260;
y = 0;
},
{
segmentType = line;
smooth = 0;
x = 260;
y = 679;
},
{
segmentType = line;
smooth = 0;
x = 185;
y = 595;
},
{
segmentType = line;
smooth = 0;
x = 522;
y = 0;
},
{
segmentType = line;
smooth = 0;
x = 739;
y = 0;
},
{
segmentType = line;
smooth = 0;
x = 739;
y = 758;
}
);
}
);
lib = {
};
name = M;
unicodes = (
);
width = 950;
};
};
com.typemytype.robofont.mark = (
0,
1,
0,
1
);
};
},
{
color = (0,255,0,1);
glyphname = N;
lastChange = "2015-02-28 18:39:27 +0000";
layers = (
{
anchors = (
{
name = Accent;
position = "{409.5, 800}";
},
{
name = bottomaccent;
position = "{366, 0}";
}
);
layerId = "BE6E37CB-569E-4B40-A59A-BD6EE6EB60D7";
name = Bold;
paths = (
{
closed = 1;
nodes = (
"260 0 LINE",
"260 679 LINE",
"185 595 LINE",
"532 0 LINE",
"739 0 LINE",
"739 758 LINE",
"559 758 LINE",
"559 79 LINE",
"634 163 LINE",
"287 758 LINE",
"80 758 LINE",
"80 0 LINE"
);
}
);
width = 819;
},
{
anchors = (
{
name = Accent;
position = "{403, 758}";
},
{
name = bottomaccent;
position = "{366, 0}";
}
);
layerId = "817DDDC7-9D97-429D-9F3D-5ABA58537E71";
name = Light;
paths = (
{
closed = 1;
nodes = (
"176 0 LINE",
"176 679 LINE",
"163 675 LINE",
"600 0 LINE",
"655 0 LINE",
"655 758 LINE",
"599 758 LINE",
"599 79 LINE",
"612 83 LINE",
"175 758 LINE",
"120 758 LINE",
"120 0 LINE"
);
}
);
width = 775;
}
);
unicode = 004E;
userData = {
com.typemytype.robofont.layerData = {
background = {
anchors = (
{
name = Accent;
x = 425;
y = 758;
},
{
name = bottomaccent;
x = 388;
y = 0;
}
);
components = (
);
contours = (
{
points = (
{
segmentType = line;
smooth = 0;
x = 621;
y = 758;
},
{
segmentType = line;
smooth = 0;
x = 621;
y = 79;
},
{
segmentType = line;
smooth = 0;
x = 634;
y = 83;
},
{
segmentType = line;
smooth = 0;
x = 197;
y = 758;
},
{
segmentType = line;
smooth = 0;
x = 142;
y = 758;
},
{
segmentType = line;
smooth = 0;
x = 142;
y = 0;
},
{
segmentType = line;
smooth = 0;
x = 198;
y = 0;
},
{
segmentType = line;
smooth = 0;
x = 198;
y = 679;
},
{
segmentType = line;
smooth = 0;
x = 185;
y = 675;
},
{
segmentType = line;
smooth = 0;
x = 622;
y = 0;
},
{
segmentType = line;
smooth = 0;
x = 677;
y = 0;
},
{
segmentType = line;
smooth = 0;
x = 677;
y = 758;
}
);
}
);
lib = {
};
name = N;
unicodes = (
);
width = 819;
};
};
com.typemytype.robofont.mark = (
0,
1,
0,
1
);
};
},
{
color = (0,0,255,1);
glyphname = Eng;
lastChange = "2015-02-28 18:39:27 +0000";
layers = (
{
anchors = (
{
name = Accent;
position = "{403, 758}";
},
{
name = bottomaccent;
position = "{366, 0}";
}
);
layerId = "BE6E37CB-569E-4B40-A59A-BD6EE6EB60D7";
name = Bold;
paths = (
{
closed = 1;
nodes = (
"260 0 LINE",
"260 679 LINE",
"185 595 LINE",
"562 0 LINE",
"739 0 LINE",
"739 758 LINE",
"559 758 LINE",
"559 79 LINE",
"654 163 LINE",
"287 758 LINE",
"80 758 LINE",
"80 0 LINE"
);
},
{
closed = 1;
nodes = (
"697 -251 OFFCURVE",
"739 -200 OFFCURVE",
"739 -10 CURVE SMOOTH",
"739 688 LINE",
"559 688 LINE",
"559 -4 LINE SMOOTH",
"559 -81 OFFCURVE",
"545 -97 OFFCURVE",
"504 -97 CURVE SMOOTH",
"481 -97 OFFCURVE",
"465 -95 OFFCURVE",
"450 -92 CURVE",
"450 -243 LINE",
"479 -249 OFFCURVE",
"507 -251 OFFCURVE",
"541 -251 CURVE SMOOTH"
);
}
);
width = 775;
},
{
anchors = (
{
name = Accent;
position = "{403, 758}";
},
{
name = bottomaccent;
position = "{366, 0}";
}
);
layerId = "817DDDC7-9D97-429D-9F3D-5ABA58537E71";
name = Light;
paths = (
{
closed = 1;
nodes = (
"176 0 LINE",
"176 679 LINE",
"163 675 LINE",
"600 0 LINE",
"655 87 LINE",
"655 758 LINE",
"599 758 LINE",
"599 79 LINE",
"612 83 LINE",
"175 758 LINE",
"120 758 LINE",
"120 0 LINE"
);
},
{
closed = 1;
nodes = (
"629 -166 OFFCURVE",
"655 -132 OFFCURVE",
"655 -5 CURVE SMOOTH",
"655 588 LINE",
"599 588 LINE",
"599 1 LINE SMOOTH",
"599 -93 OFFCURVE",
"585 -112 OFFCURVE",
"536 -112 CURVE SMOOTH",
"521 -112 OFFCURVE",
"505 -111 OFFCURVE",
"490 -108 CURVE",
"490 -162 LINE",
"505 -165 OFFCURVE",
"520 -166 OFFCURVE",
"531 -166 CURVE SMOOTH"
);
}
);
width = 775;
}
);
unicode = 014A;
userData = {
com.typemytype.robofont.layerData = {
background = {
anchors = (
{
name = Accent;
x = 403;
y = 758;
},
{
name = bottomaccent;
x = 366;
y = 0;
}
);
components = (
);
contours = (
{
points = (
{
segmentType = line;
smooth = 0;
x = 599;
y = 758;
},
{
segmentType = line;
smooth = 0;
x = 599;
y = 79;
},
{
segmentType = line;
smooth = 0;
x = 612;
y = 83;
},
{
segmentType = line;
smooth = 0;
x = 175;
y = 758;
},
{
segmentType = line;
smooth = 0;
x = 120;
y = 758;
},
{
segmentType = line;
smooth = 0;
x = 120;
y = 0;
},
{
segmentType = line;
smooth = 0;
x = 176;
y = 0;
},
{
segmentType = line;
smooth = 0;
x = 176;
y = 679;
},
{
segmentType = line;
smooth = 0;
x = 163;
y = 675;
},
{
segmentType = line;
smooth = 0;
x = 600;
y = 0;
},
{
segmentType = line;
smooth = 0;
x = 655;
y = 87;
},
{
segmentType = line;
smooth = 0;
x = 655;
y = 758;
}
);
},
{
points = (
{
smooth = 0;
x = 629;
y = "-166";
},
{
smooth = 0;
x = 655;
y = "-132";
},
{
segmentType = curve;
smooth = 1;
x = 655;
y = "-5";
},
{
segmentType = line;
smooth = 0;
x = 655;
y = 588;
},
{
segmentType = line;
smooth = 0;
x = 599;
y = 588;
},
{
segmentType = line;
smooth = 1;
x = 599;
y = 1;
},
{
smooth = 0;
x = 599;
y = "-93";
},
{
smooth = 0;
x = 585;
y = "-112";
},
{
segmentType = curve;
smooth = 1;
x = 536;
y = "-112";
},
{
smooth = 0;
x = 521;
y = "-112";
},
{
smooth = 0;
x = 505;
y = "-111";
},
{
segmentType = curve;
smooth = 0;
x = 490;
y = "-108";
},
{
segmentType = line;
smooth = 0;
x = 490;
y = "-162";
},
{
smooth = 0;
x = 505;
y = "-165";
},
{
smooth = 0;
x = 520;
y = "-166";
},
{
segmentType = curve;
smooth = 1;
x = 531;
y = "-166";
}
);
}
);
lib = {
};
name = Eng;
unicodes = (
);
width = 775;
};
};
com.typemytype.robofont.mark = (
0,
0,
1,
1
);
};
},
{
color = (0,255,0,1);
glyphname = O;
lastChange = "2015-02-28 18:39:27 +0000";
layers = (
{
anchors = (
{
name = Accent;
position = "{424.5, 800}";
},
{
name = bottomaccent;
position = "{425, 0}";
}
);
layerId = "BE6E37CB-569E-4B40-A59A-BD6EE6EB60D7";
name = Bold;
paths = (
{
closed = 1;
nodes = (
"682 -17 OFFCURVE",
"814 157 OFFCURVE",
"814 378 CURVE SMOOTH",
"814 594 OFFCURVE",
"682 772 OFFCURVE",
"425 772 CURVE SMOOTH",
"165 772 OFFCURVE",
"35 594 OFFCURVE",
"35 378 CURVE SMOOTH",
"35 157 OFFCURVE",
"165 -17 OFFCURVE",
"425 -17 CURVE SMOOTH"
);
},
{
closed = 1;
nodes = (
"288 135 OFFCURVE",
"219 237 OFFCURVE",
"219 378 CURVE SMOOTH",
"219 516 OFFCURVE",
"288 620 OFFCURVE",
"425 620 CURVE SMOOTH",
"557 620 OFFCURVE",
"631 516 OFFCURVE",
"630 378 CURVE SMOOTH",
"629 237 OFFCURVE",
"557 135 OFFCURVE",
"425 135 CURVE SMOOTH"
);
}
);
width = 849;
},
{
anchors = (
{
name = Accent;
position = "{415, 758}";
},
{
name = bottomaccent;
position = "{415, 0}";
}
);
layerId = "817DDDC7-9D97-429D-9F3D-5ABA58537E71";
name = Light;
paths = (
{
closed = 1;
nodes = (
"645 -17 OFFCURVE",
"762 157 OFFCURVE",
"762 378 CURVE SMOOTH",
"762 594 OFFCURVE",
"645 772 OFFCURVE",
"415 772 CURVE SMOOTH",
"182 772 OFFCURVE",
"67 594 OFFCURVE",
"67 378 CURVE SMOOTH",
"67 157 OFFCURVE",
"182 -17 OFFCURVE",
"415 -17 CURVE SMOOTH"
);
},
{
closed = 1;
nodes = (
"224 35 OFFCURVE",
"125 187 OFFCURVE",
"125 378 CURVE SMOOTH",
"125 565 OFFCURVE",
"224 720 OFFCURVE",
"415 720 CURVE SMOOTH",
"600 720 OFFCURVE",
"705 565 OFFCURVE",
"704 378 CURVE SMOOTH",
"703 187 OFFCURVE",
"600 35 OFFCURVE",
"415 35 CURVE SMOOTH"
);
}
);
width = 829;
}
);
unicode = 004F;
userData = {
com.typemytype.robofont.layerData = {
background = {
anchors = (
);
components = (
);
contours = (
);
lib = {
};
name = O;
unicodes = (
);
width = 849;
};
};
com.typemytype.robofont.mark = (
0,
1,
0,
1
);
};
},
{
color = (255,255,0,1);
glyphname = Oslash;
lastChange = "2015-02-28 18:39:26 +0000";
layers = (
{
components = (
{
name = O;
}
);
layerId = "BE6E37CB-569E-4B40-A59A-BD6EE6EB60D7";
name = Bold;
paths = (
{
closed = 1;
nodes = (
"815 671 LINE",
"711 771 LINE",
"39 86 LINE",
"145 -14 LINE"
);
}
);
width = 849;
},
{
components = (
{
name = O;
}
);
layerId = "817DDDC7-9D97-429D-9F3D-5ABA58537E71";
name = Light;
paths = (
{
closed = 1;
nodes = (
"800 723 LINE",
"766 758 LINE",
"28 34 LINE",
"63 0 LINE"
);
}
);
width = 829;
}
);
unicode = 00D8;
userData = {
com.typemytype.robofont.layerData = {
background = {
anchors = (
);
components = (
);
contours = (
);
lib = {
};
name = Oslash;
unicodes = (
);
width = 849;
};
};
com.typemytype.robofont.mark = (
1,
1,
0,
1
);
};
},
{
color = (255,255,0,1);
glyphname = OE;
lastChange = "2015-02-28 18:39:27 +0000";
layers = (
{
layerId = "BE6E37CB-569E-4B40-A59A-BD6EE6EB60D7";
name = Bold;
paths = (
{
closed = 1;
nodes = (
"629 0 LINE",
"629 152 LINE",
"454 152 LINE",
"293 152 OFFCURVE",
"216 221 OFFCURVE",
"217 380 CURVE SMOOTH",
"218 540 OFFCURVE",
"293 606 OFFCURVE",
"454 606 CURVE",
"630 606 LINE",
"630 758 LINE",
"454 758 LINE",
"176 758 OFFCURVE",
"35 631 OFFCURVE",
"35 380 CURVE SMOOTH",
"35 132 OFFCURVE",
"176 0 OFFCURVE",
"454 0 CURVE"
);
},
{
closed = 1;
nodes = (
"1048 0 LINE",
"1048 144 LINE",
"645 144 LINE",
"645 0 LINE"
);
},
{
closed = 1;
nodes = (
"722 0 LINE",
"722 758 LINE",
"542 758 LINE",
"542 0 LINE"
);
},
{
closed = 1;
nodes = (
"993 309 LINE",
"993 453 LINE",
"645 453 LINE",
"645 309 LINE"
);
},
{
closed = 1;
nodes = (
"1043 614 LINE",
"1043 758 LINE",
"645 758 LINE",
"645 614 LINE"
);
}
);
width = 1108;
},
{
layerId = "817DDDC7-9D97-429D-9F3D-5ABA58537E71";
name = Light;
paths = (
{
closed = 1;
nodes = (
"644 0 LINE",
"644 52 LINE",
"429 52 LINE",
"237 52 OFFCURVE",
"129 151 OFFCURVE",
"130 380 CURVE SMOOTH",
"131 611 OFFCURVE",
"237 706 OFFCURVE",
"429 706 CURVE",
"645 706 LINE",
"645 758 LINE",
"429 758 LINE",
"192 758 OFFCURVE",
"72 631 OFFCURVE",
"72 380 CURVE SMOOTH",
"72 132 OFFCURVE",
"192 0 OFFCURVE",
"429 0 CURVE"
);
},
{
closed = 1;
nodes = (
"1062 0 LINE",
"1062 54 LINE",
"659 54 LINE",
"659 0 LINE"
);
},
{
closed = 1;
nodes = (
"674 0 LINE",
"674 758 LINE",
"618 758 LINE",
"618 0 LINE"
);
},
{
closed = 1;
nodes = (
"1007 354 LINE",
"1007 408 LINE",
"659 408 LINE",
"659 354 LINE"
);
},
{
closed = 1;
nodes = (
"1057 704 LINE",
"1057 758 LINE",
"659 758 LINE",
"659 704 LINE"
);
}
);
width = 1122;
}
);
unicode = 0152;
userData = {
com.typemytype.robofont.layerData = {
background = {
anchors = (
);
components = (
);
contours = (
);
lib = {
};
name = OE;
unicodes = (
);
width = 1108;
};
};
com.typemytype.robofont.mark = (
1,
1,
0,
1
);
};
},
{
color = (0,255,0,1);
glyphname = P;
lastChange = "2015-02-28 18:39:27 +0000";
layers = (
{
layerId = "BE6E37CB-569E-4B40-A59A-BD6EE6EB60D7";
name = Bold;
paths = (
{
closed = 1;
nodes = (
"387 254 LINE",
"580 254 OFFCURVE",
"676 343 OFFCURVE",
"676 505 CURVE SMOOTH",
"676 672 OFFCURVE",
"580 758 OFFCURVE",
"387 758 CURVE",
"182 758 LINE",
"182 606 LINE",
"387 606 LINE",
"459 606 OFFCURVE",
"494 577 OFFCURVE",
"494 505 CURVE SMOOTH",
"493 437 OFFCURVE",
"459 406 OFFCURVE",
"387 406 CURVE",
"181 406 LINE",
"181 254 LINE"
);
},
{
closed = 1;
nodes = (
"260 0 LINE",
"260 758 LINE",
"80 758 LINE",
"80 0 LINE"
);
}
);
width = 696;
},
{
layerId = "817DDDC7-9D97-429D-9F3D-5ABA58537E71";
name = Light;
paths = (
{
closed = 1;
nodes = (
"365 334 LINE",
"518 334 OFFCURVE",
"592 409 OFFCURVE",
"592 545 CURVE SMOOTH",
"592 686 OFFCURVE",
"518 758 OFFCURVE",
"365 758 CURVE",
"160 758 LINE",
"160 706 LINE",
"365 706 LINE",
"476 706 OFFCURVE",
"535 659 OFFCURVE",
"534 545 CURVE SMOOTH",
"533 438 OFFCURVE",
"476 386 OFFCURVE",
"365 386 CURVE",
"159 386 LINE",
"159 334 LINE"
);
},
{
closed = 1;
nodes = (
"176 0 LINE",
"176 758 LINE",
"120 758 LINE",
"120 0 LINE"
);
}
);
width = 642;
}
);
unicode = 0050;
userData = {
com.typemytype.robofont.layerData = {
background = {
anchors = (
);
components = (
);
contours = (
);
lib = {
};
name = P;
unicodes = (
);
width = 696;
};
};
com.typemytype.robofont.mark = (
0,
1,
0,
1
);
};
},
{
color = (255,255,0,1);
glyphname = Thorn;
lastChange = "2015-02-28 18:39:26 +0000";
layers = (
{
anchors = (
{
name = Accent;
position = "{387, 758}";
}
);
layerId = "BE6E37CB-569E-4B40-A59A-BD6EE6EB60D7";
name = Bold;
paths = (
{
closed = 1;
nodes = (
"387 134 LINE",
"580 134 OFFCURVE",
"676 223 OFFCURVE",
"676 385 CURVE SMOOTH",
"676 552 OFFCURVE",
"580 638 OFFCURVE",
"387 638 CURVE",
"182 638 LINE",
"182 486 LINE",
"387 486 LINE",
"459 486 OFFCURVE",
"494 457 OFFCURVE",
"494 385 CURVE SMOOTH",
"493 317 OFFCURVE",
"459 286 OFFCURVE",
"387 286 CURVE",
"181 286 LINE",
"181 134 LINE"
);
},
{
closed = 1;
nodes = (
"260 0 LINE",
"260 758 LINE",
"80 758 LINE",
"80 0 LINE"
);
}
);
width = 642;
},
{
anchors = (
{
name = Accent;
position = "{365, 758}";
}
);
layerId = "817DDDC7-9D97-429D-9F3D-5ABA58537E71";
name = Light;
paths = (
{
closed = 1;
nodes = (
"365 172 LINE",
"518 172 OFFCURVE",
"592 247 OFFCURVE",
"592 383 CURVE SMOOTH",
"592 524 OFFCURVE",
"518 596 OFFCURVE",
"365 596 CURVE",
"160 596 LINE",
"160 544 LINE",
"365 544 LINE",
"476 544 OFFCURVE",
"535 497 OFFCURVE",
"534 383 CURVE SMOOTH",
"533 276 OFFCURVE",
"476 224 OFFCURVE",
"365 224 CURVE",
"159 224 LINE",
"159 172 LINE"
);
},
{
closed = 1;
nodes = (
"176 0 LINE",
"176 758 LINE",
"120 758 LINE",
"120 0 LINE"
);
}
);
width = 642;
}
);
unicode = 00DE;
userData = {
com.typemytype.robofont.layerData = {
background = {
anchors = (
{
name = Accent;
x = 365;
y = 758;
},
{
name = Accent;
x = 387;
y = 758;
}
);
components = (
);
contours = (
{
points = (
{
segmentType = line;
smooth = 0;
x = 120;
y = 758;
},
{
segmentType = line;
smooth = 0;
x = 120;
y = 0;
},
{
segmentType = line;
smooth = 0;
x = 176;
y = 0;
},
{
segmentType = line;
smooth = 0;
x = 176;
y = 758;
}
);
},
{
points = (
{
segmentType = line;
smooth = 0;
x = 160;
y = 596;
},
{
segmentType = line;
smooth = 0;
x = 160;
y = 544;
},
{
segmentType = line;
smooth = 0;
x = 365;
y = 544;
},
{
smooth = 0;
x = 476;
y = 544;
},
{
smooth = 0;
x = 535;
y = 497;
},
{
segmentType = curve;
smooth = 1;
x = 534;
y = 383;
},
{
smooth = 0;
x = 533;
y = 276;
},
{
smooth = 0;
x = 476;
y = 224;
},
{
segmentType = curve;
smooth = 0;
x = 365;
y = 224;
},
{
segmentType = line;
smooth = 0;
x = 159;
y = 224;
},
{
segmentType = line;
smooth = 0;
x = 159;
y = 172;
},
{
segmentType = line;
smooth = 0;
x = 365;
y = 172;
},
{
smooth = 0;
x = 518;
y = 172;
},
{
smooth = 0;
x = 592;
y = 247;
},
{
segmentType = curve;
smooth = 1;
x = 592;
y = 383;
},
{
smooth = 0;
x = 592;
y = 524;
},
{
smooth = 0;
x = 518;
y = 596;
},
{
segmentType = curve;
smooth = 0;
x = 365;
y = 596;
}
);
},
{
points = (
{
segmentType = line;
smooth = 0;
x = 80;
y = 758;
},
{
segmentType = line;
smooth = 0;
x = 80;
y = 0;
},
{
segmentType = line;
smooth = 0;
x = 260;
y = 0;
},
{
segmentType = line;
smooth = 0;
x = 260;
y = 758;
}
);
},
{
points = (
{
segmentType = line;
smooth = 0;
x = 182;
y = 758;
},
{
segmentType = line;
smooth = 0;
x = 182;
y = 606;
},
{
segmentType = line;
smooth = 0;
x = 387;
y = 606;
},
{
smooth = 0;
x = 459;
y = 606;
},
{
smooth = 0;
x = 494;
y = 577;
},
{
segmentType = curve;
smooth = 1;
x = 494;
y = 505;
},
{
smooth = 0;
x = 493;
y = 437;
},
{
smooth = 0;
x = 459;
y = 406;
},
{
segmentType = curve;
smooth = 0;
x = 387;
y = 406;
},
{
segmentType = line;
smooth = 0;
x = 181;
y = 406;
},
{
segmentType = line;
smooth = 0;
x = 181;
y = 254;
},
{
segmentType = line;
smooth = 0;
x = 387;
y = 254;
},
{
smooth = 0;
x = 580;
y = 254;
},
{
smooth = 0;
x = 676;
y = 343;
},
{
segmentType = curve;
smooth = 1;
x = 676;
y = 505;
},
{
smooth = 0;
x = 676;
y = 672;
},
{
smooth = 0;
x = 580;
y = 758;
},
{
segmentType = curve;
smooth = 0;
x = 387;
y = 758;
}
);
}
);
lib = {
};
name = Thorn;
unicodes = (
);
width = 642;
};
};
com.typemytype.robofont.mark = (
1,
1,
0,
1
);
};
},
{
color = (0,255,0,1);
glyphname = Q;
lastChange = "2015-02-28 18:39:26 +0000";
layers = (
{
components = (
{
name = O;
}
);
layerId = "BE6E37CB-569E-4B40-A59A-BD6EE6EB60D7";
name = Bold;
paths = (
{
closed = 1;
nodes = (
"802 -64 LINE",
"682 72 LINE",
"539 237 LINE",
"339 237 LINE",
"503 47 LINE",
"598 -64 LINE"
);
}
);
width = 849;
},
{
components = (
{
name = O;
}
);
layerId = "817DDDC7-9D97-429D-9F3D-5ABA58537E71";
name = Light;
paths = (
{
closed = 1;
nodes = (
"752 -64 LINE",
"632 72 LINE",
"489 237 LINE",
"419 237 LINE",
"583 47 LINE",
"678 -64 LINE"
);
}
);
width = 829;
}
);
unicode = 0051;
userData = {
com.typemytype.robofont.layerData = {
background = {
anchors = (
);
components = (
);
contours = (
);
lib = {
};
name = Q;
unicodes = (
);
width = 849;
};
};
com.typemytype.robofont.mark = (
0,
1,
0,
1
);
};
},
{
color = (0,255,0,1);
glyphname = R;
lastChange = "2015-02-28 18:39:26 +0000";
layers = (
{
anchors = (
{
name = Accent;
position = "{353, 800}";
},
{
name = bottomaccent;
position = "{370.5, 0}";
}
);
layerId = "BE6E37CB-569E-4B40-A59A-BD6EE6EB60D7";
name = Bold;
paths = (
{
closed = 1;
nodes = (
"387 274 LINE",
"580 274 OFFCURVE",
"676 359 OFFCURVE",
"676 515 CURVE SMOOTH",
"676 676 OFFCURVE",
"580 758 OFFCURVE",
"387 758 CURVE",
"182 758 LINE",
"182 606 LINE",
"387 606 LINE",
"459 606 OFFCURVE",
"494 579 OFFCURVE",
"494 515 CURVE SMOOTH",
"494 456 OFFCURVE",
"459 426 OFFCURVE",
"387 426 CURVE",
"181 426 LINE",
"181 274 LINE"
);
},
{
closed = 1;
nodes = (
"260 0 LINE",
"260 758 LINE",
"80 758 LINE",
"80 0 LINE"
);
},
{
closed = 1;
nodes = (
"706 0 LINE",
"464 391 LINE",
"294 359 LINE",
"506 0 LINE"
);
}
);
width = 741;
},
{
anchors = (
{
name = Accent;
position = "{315, 758}";
},
{
name = bottomaccent;
position = "{334, 0}";
}
);
layerId = "817DDDC7-9D97-429D-9F3D-5ABA58537E71";
name = Light;
paths = (
{
closed = 1;
nodes = (
"365 344 LINE",
"518 344 OFFCURVE",
"592 417 OFFCURVE",
"592 550 CURVE SMOOTH",
"592 688 OFFCURVE",
"518 758 OFFCURVE",
"365 758 CURVE",
"160 758 LINE",
"160 706 LINE",
"365 706 LINE",
"476 706 OFFCURVE",
"535 660 OFFCURVE",
"534 550 CURVE SMOOTH",
"533 446 OFFCURVE",
"476 396 OFFCURVE",
"365 396 CURVE",
"159 396 LINE",
"159 344 LINE"
);
},
{
closed = 1;
nodes = (
"176 0 LINE",
"176 758 LINE",
"120 758 LINE",
"120 0 LINE"
);
},
{
closed = 1;
nodes = (
"632 0 LINE",
"390 391 LINE",
"344 359 LINE",
"566 0 LINE"
);
}
);
width = 689;
}
);
unicode = 0052;
userData = {
com.typemytype.robofont.layerData = {
background = {
anchors = (
);
components = (
);
contours = (
);
lib = {
};
name = R;
unicodes = (
);
width = 741;
};
};
com.typemytype.robofont.mark = (
0,
1,
0,
1
);
};
},
{
color = (0,255,0,1);
glyphname = S;
lastChange = "2015-02-28 18:39:26 +0000";
layers = (
{
anchors = (
{
name = Accent;
position = "{335.5, 800}";
},
{
name = bottomaccent;
position = "{330, 0}";
}
);
layerId = "BE6E37CB-569E-4B40-A59A-BD6EE6EB60D7";
name = Bold;
paths = (
{
closed = 1;
nodes = (
"516 -17 OFFCURVE",
"626 72 OFFCURVE",
"627 217 CURVE",
"627 376 OFFCURVE",
"515 422 OFFCURVE",
"410 451 CURVE SMOOTH",
"341 470 LINE SMOOTH",
"264 491 OFFCURVE",
"238 503 OFFCURVE",
"237 550 CURVE",
"237 591 OFFCURVE",
"257 620 OFFCURVE",
"332 620 CURVE SMOOTH",
"435 620 OFFCURVE",
"517 598 OFFCURVE",
"590 559 CURVE",
"590 715 LINE",
"513 751 OFFCURVE",
"441 772 OFFCURVE",
"332 772 CURVE SMOOTH",
"161 772 OFFCURVE",
"59 691 OFFCURVE",
"59 533 CURVE SMOOTH",
"59 379 OFFCURVE",
"177 336 OFFCURVE",
"269 310 CURVE SMOOTH",
"337 291 LINE SMOOTH",
"414 270 OFFCURVE",
"449 255 OFFCURVE",
"449 208 CURVE SMOOTH",
"449 168 OFFCURVE",
"418 135 OFFCURVE",
"335 135 CURVE SMOOTH",
"243 135 OFFCURVE",
"147 154 OFFCURVE",
"56 202 CURVE",
"56 40 LINE",
"141 0 OFFCURVE",
"230 -17 OFFCURVE",
"335 -17 CURVE SMOOTH"
);
}
);
width = 671;
},
{
anchors = (
{
name = Accent;
position = "{322, 758}";
},
{
name = bottomaccent;
position = "{315, 0}";
}
);
layerId = "817DDDC7-9D97-429D-9F3D-5ABA58537E71";
name = Light;
paths = (
{
closed = 1;
nodes = (
"465 -17 OFFCURVE",
"556 61 OFFCURVE",
"557 187 CURVE",
"557 323 OFFCURVE",
"468 365 OFFCURVE",
"366 393 CURVE SMOOTH",
"297 412 LINE SMOOTH",
"214 435 OFFCURVE",
"148 467 OFFCURVE",
"147 562 CURVE",
"147 655 OFFCURVE",
"196 720 OFFCURVE",
"312 720 CURVE SMOOTH",
"395 720 OFFCURVE",
"461 700 OFFCURVE",
"520 669 CURVE",
"520 725 LINE",
"458 754 OFFCURVE",
"400 772 OFFCURVE",
"312 772 CURVE SMOOTH",
"172 772 OFFCURVE",
"89 701 OFFCURVE",
"89 563 CURVE SMOOTH",
"89 426 OFFCURVE",
"183 385 OFFCURVE",
"276 358 CURVE SMOOTH",
"344 339 LINE SMOOTH",
"422 317 OFFCURVE",
"499 283 OFFCURVE",
"499 188 CURVE SMOOTH",
"498 103 OFFCURVE",
"449 35 OFFCURVE",
"315 35 CURVE SMOOTH",
"233 35 OFFCURVE",
"146 50 OFFCURVE",
"66 92 CURVE",
"66 36 LINE",
"141 0 OFFCURVE",
"221 -17 OFFCURVE",
"315 -17 CURVE SMOOTH"
);
}
);
width = 629;
}
);
unicode = 0053;
userData = {
com.typemytype.robofont.layerData = {
background = {
anchors = (
{
name = Accent;
x = 342;
y = 758;
},
{
name = bottomaccent;
x = 335;
y = 0;
}
);
components = (
);
contours = (
{
points = (
{
smooth = 0;
x = 577;
y = 323;
},
{
smooth = 0;
x = 488;
y = 365;
},
{
segmentType = curve;
smooth = 1;
x = 386;
y = 393;
},
{
segmentType = line;
smooth = 1;
x = 317;
y = 412;
},
{
smooth = 0;
x = 234;
y = 435;
},
{
smooth = 0;
x = 168;
y = 467;
},
{
segmentType = curve;
smooth = 0;
x = 167;
y = 562;
},
{
smooth = 0;
x = 167;
y = 655;
},
{
smooth = 0;
x = 216;
y = 720;
},
{
segmentType = curve;
smooth = 1;
x = 332;
y = 720;
},
{
smooth = 0;
x = 415;
y = 720;
},
{
smooth = 0;
x = 481;
y = 700;
},
{
segmentType = curve;
smooth = 0;
x = 540;
y = 669;
},
{
segmentType = line;
smooth = 0;
x = 540;
y = 725;
},
{
smooth = 0;
x = 478;
y = 754;
},
{
smooth = 0;
x = 420;
y = 772;
},
{
segmentType = curve;
smooth = 1;
x = 332;
y = 772;
},
{
smooth = 0;
x = 192;
y = 772;
},
{
smooth = 0;
x = 109;
y = 701;
},
{
segmentType = curve;
smooth = 1;
x = 109;
y = 563;
},
{
smooth = 0;
x = 109;
y = 426;
},
{
smooth = 0;
x = 203;
y = 385;
},
{
segmentType = curve;
smooth = 1;
x = 296;
y = 358;
},
{
segmentType = line;
smooth = 1;
x = 364;
y = 339;
},
{
smooth = 0;
x = 442;
y = 317;
},
{
smooth = 0;
x = 519;
y = 283;
},
{
segmentType = curve;
smooth = 1;
x = 519;
y = 188;
},
{
smooth = 0;
x = 518;
y = 103;
},
{
smooth = 0;
x = 469;
y = 35;
},
{
segmentType = curve;
smooth = 1;
x = 335;
y = 35;
},
{
smooth = 0;
x = 253;
y = 35;
},
{
smooth = 0;
x = 166;
y = 50;
},
{
segmentType = curve;
smooth = 0;
x = 86;
y = 92;
},
{
segmentType = line;
smooth = 0;
x = 86;
y = 36;
},
{
smooth = 0;
x = 161;
y = 0;
},
{
smooth = 0;
x = 241;
y = "-17";
},
{
segmentType = curve;
smooth = 1;
x = 335;
y = "-17";
},
{
smooth = 0;
x = 485;
y = "-17";
},
{
smooth = 0;
x = 576;
y = 61;
},
{
segmentType = curve;
smooth = 0;
x = 577;
y = 187;
}
);
}
);
lib = {
};
name = S;
unicodes = (
);
width = 671;
};
};
com.typemytype.robofont.mark = (
0,
1,
0,
1
);
};
},
{
color = (0,255,0,1);
glyphname = T;
lastChange = "2015-02-28 18:39:26 +0000";
layers = (
{
anchors = (
{
name = Accent;
position = "{337, 800}";
},
{
name = bottomaccent;
position = "{337, 0}";
}
);
layerId = "BE6E37CB-569E-4B40-A59A-BD6EE6EB60D7";
name = Bold;
paths = (
{
closed = 1;
nodes = (
"427 0 LINE",
"427 758 LINE",
"247 758 LINE",
"247 0 LINE"
);
},
{
closed = 1;
nodes = (
"265 604 LINE",
"265 758 LINE",
"40 758 LINE",
"40 604 LINE"
);
},
{
closed = 1;
nodes = (
"634 604 LINE",
"634 758 LINE",
"349 758 LINE",
"349 604 LINE"
);
}
);
width = 674;
},
{
anchors = (
{
name = Accent;
position = "{307, 758}";
},
{
name = bottomaccent;
position = "{304, 0}";
}
);
layerId = "817DDDC7-9D97-429D-9F3D-5ABA58537E71";
name = Light;
paths = (
{
closed = 1;
nodes = (
"335 0 LINE",
"335 758 LINE",
"279 758 LINE",
"279 0 LINE"
);
},
{
closed = 1;
nodes = (
"295 704 LINE",
"295 758 LINE",
"40 758 LINE",
"40 704 LINE"
);
},
{
closed = 1;
nodes = (
"574 704 LINE",
"574 758 LINE",
"319 758 LINE",
"319 704 LINE"
);
}
);
width = 614;
}
);
unicode = 0054;
userData = {
com.typemytype.robofont.layerData = {
background = {
anchors = (
);
components = (
);
contours = (
);
lib = {
};
name = T;
unicodes = (
);
width = 674;
};
};
com.typemytype.robofont.mark = (
0,
1,
0,
1
);
};
},
{
color = (255,255,0,1);
glyphname = Tbar;
lastChange = "2015-02-28 18:39:27 +0000";
layers = (
{
components = (
{
name = T;
transform = "{1, 0, 0, 1, -10, 0}";
}
);
layerId = "BE6E37CB-569E-4B40-A59A-BD6EE6EB60D7";
name = Bold;
paths = (
{
closed = 1;
nodes = (
"554 294 LINE",
"554 446 LINE",
"100 446 LINE",
"100 294 LINE"
);
}
);
width = 614;
},
{
components = (
{
name = T;
}
);
layerId = "817DDDC7-9D97-429D-9F3D-5ABA58537E71";
name = Light;
paths = (
{
closed = 1;
nodes = (
"514 494 LINE",
"514 546 LINE",
"100 546 LINE",
"100 494 LINE"
);
}
);
width = 614;
}
);
unicode = 0166;
userData = {
com.typemytype.robofont.layerData = {
background = {
anchors = (
);
components = (
);
contours = (
);
lib = {
};
name = Tbar;
unicodes = (
);
width = 614;
};
};
com.typemytype.robofont.mark = (
1,
1,
0,
1
);
};
},
{
color = (0,255,0,1);
glyphname = U;
lastChange = "2015-02-28 18:39:27 +0000";
layers = (
{
anchors = (
{
name = Accent;
position = "{410, 800}";
},
{
name = ogonek;
position = "{447, 0}";
}
);
layerId = "BE6E37CB-569E-4B40-A59A-BD6EE6EB60D7";
name = Bold;
paths = (
{
closed = 1;
nodes = (
"637 -17 OFFCURVE",
"740 102 OFFCURVE",
"740 298 CURVE SMOOTH",
"740 758 LINE",
"560 758 LINE",
"560 298 LINE SMOOTH",
"560 191 OFFCURVE",
"510 135 OFFCURVE",
"410 135 CURVE SMOOTH",
"310 135 OFFCURVE",
"260 191 OFFCURVE",
"260 298 CURVE SMOOTH",
"260 758 LINE",
"80 758 LINE",
"80 298 LINE SMOOTH",
"80 102 OFFCURVE",
"185 -17 OFFCURVE",
"410 -17 CURVE SMOOTH"
);
}
);
width = 820;
},
{
anchors = (
{
name = Accent;
position = "{383, 758}";
},
{
name = ogonek;
position = "{434, 0}";
}
);
layerId = "817DDDC7-9D97-429D-9F3D-5ABA58537E71";
name = Light;
paths = (
{
closed = 1;
nodes = (
"567 -17 OFFCURVE",
"651 83 OFFCURVE",
"651 248 CURVE SMOOTH",
"651 758 LINE",
"595 758 LINE",
"595 248 LINE SMOOTH",
"595 108 OFFCURVE",
"524 35 OFFCURVE",
"383 35 CURVE SMOOTH",
"242 35 OFFCURVE",
"171 108 OFFCURVE",
"171 248 CURVE SMOOTH",
"171 758 LINE",
"115 758 LINE",
"115 248 LINE SMOOTH",
"115 83 OFFCURVE",
"200 -17 OFFCURVE",
"383 -17 CURVE SMOOTH"
);
}
);
width = 766;
}
);
unicode = 0055;
userData = {
com.typemytype.robofont.layerData = {
background = {
anchors = (
);
components = (
);
contours = (
);
lib = {
};
name = U;
unicodes = (
);
width = 820;
};
};
com.typemytype.robofont.mark = (
0,
1,
0,
1
);
};
},
{
color = (0,255,0,1);
glyphname = V;
lastChange = "2015-02-28 18:39:26 +0000";
layers = (
{
layerId = "BE6E37CB-569E-4B40-A59A-BD6EE6EB60D7";
name = Bold;
paths = (
{
closed = 1;
nodes = (
"524 -9 LINE",
"789 758 LINE",
"604 758 LINE",
"372 63 LINE",
"448 63 LINE",
"215 758 LINE",
"30 758 LINE",
"296 -9 LINE"
);
}
);
width = 819;
},
{
layerId = "817DDDC7-9D97-429D-9F3D-5ABA58537E71";
name = Light;
paths = (
{
closed = 1;
nodes = (
"379 -9 LINE",
"674 758 LINE",
"614 758 LINE",
"347 63 LINE",
"363 63 LINE",
"95 758 LINE",
"35 758 LINE",
"331 -9 LINE"
);
}
);
width = 709;
}
);
unicode = 0056;
userData = {
com.typemytype.robofont.layerData = {
background = {
anchors = (
{
name = Accent;
x = 410;
y = 758;
}
);
components = (
);
contours = (
{
points = (
{
segmentType = line;
smooth = 0;
x = 729;
y = 758;
},
{
segmentType = line;
smooth = 0;
x = 669;
y = 758;
},
{
segmentType = line;
smooth = 0;
x = 402;
y = 63;
},
{
segmentType = line;
smooth = 0;
x = 418;
y = 63;
},
{
segmentType = line;
smooth = 0;
x = 150;
y = 758;
},
{
segmentType = line;
smooth = 0;
x = 90;
y = 758;
},
{
segmentType = line;
smooth = 0;
x = 386;
y = "-9";
},
{
segmentType = line;
smooth = 0;
x = 434;
y = "-9";
}
);
}
);
lib = {
};
name = V;
unicodes = (
);
width = 819;
};
};
com.typemytype.robofont.mark = (
0,
1,
0,
1
);
};
},
{
color = (255,255,0,1);
glyphname = W;
lastChange = "2015-02-28 18:39:26 +0000";
layers = (
{
anchors = (
{
name = Accent;
position = "{599, 800}";
}
);
layerId = "BE6E37CB-569E-4B40-A59A-BD6EE6EB60D7";
name = Bold;
paths = (
{
closed = 1;
nodes = (
"464 -9 LINE",
"646 684 LINE",
"552 684 LINE",
"735 -9 LINE",
"963 -9 LINE",
"1148 758 LINE",
"973 758 LINE",
"816 63 LINE",
"882 63 LINE",
"704 758 LINE",
"494 758 LINE",
"318 67 LINE",
"382 67 LINE",
"225 758 LINE",
"50 758 LINE",
"236 -9 LINE"
);
}
);
width = 1198;
},
{
anchors = (
{
name = Accent;
position = "{524, 758}";
}
);
layerId = "817DDDC7-9D97-429D-9F3D-5ABA58537E71";
name = Light;
paths = (
{
closed = 1;
nodes = (
"319 -9 LINE",
"531 684 LINE",
"517 684 LINE",
"730 -9 LINE",
"778 -9 LINE",
"1013 758 LINE",
"953 758 LINE",
"746 63 LINE",
"762 63 LINE",
"554 758 LINE",
"494 758 LINE",
"288 67 LINE",
"302 67 LINE",
"95 758 LINE",
"35 758 LINE",
"271 -9 LINE"
);
}
);
width = 1048;
}
);
unicode = 0057;
userData = {
com.typemytype.robofont.layerData = {
background = {
anchors = (
{
name = Accent;
x = 599;
y = 758;
}
);
components = (
);
contours = (
{
points = (
{
segmentType = line;
smooth = 0;
x = 1028;
y = 758;
},
{
segmentType = line;
smooth = 0;
x = 821;
y = 63;
},
{
segmentType = line;
smooth = 0;
x = 837;
y = 63;
},
{
segmentType = line;
smooth = 0;
x = 629;
y = 758;
},
{
segmentType = line;
smooth = 0;
x = 569;
y = 758;
},
{
segmentType = line;
smooth = 0;
x = 363;
y = 67;
},
{
segmentType = line;
smooth = 0;
x = 377;
y = 67;
},
{
segmentType = line;
smooth = 0;
x = 170;
y = 758;
},
{
segmentType = line;
smooth = 0;
x = 110;
y = 758;
},
{
segmentType = line;
smooth = 0;
x = 346;
y = "-9";
},
{
segmentType = line;
smooth = 0;
x = 394;
y = "-9";
},
{
segmentType = line;
smooth = 0;
x = 606;
y = 684;
},
{
segmentType = line;
smooth = 0;
x = 592;
y = 684;
},
{
segmentType = line;
smooth = 0;
x = 805;
y = "-9";
},
{
segmentType = line;
smooth = 0;
x = 853;
y = "-9";
},
{
segmentType = line;
smooth = 0;
x = 1088;
y = 758;
}
);
}
);
lib = {
};
name = W;
unicodes = (
);
width = 1198;
};
};
com.typemytype.robofont.mark = (
1,
1,
0,
1
);
};
},
{
color = (255,255,0,1);
glyphname = X;
lastChange = "2015-02-28 18:39:27 +0000";
layers = (
{
layerId = "BE6E37CB-569E-4B40-A59A-BD6EE6EB60D7";
name = Bold;
paths = (
{
closed = 1;
nodes = (
"238 0 LINE",
"477 360 LINE",
"501 378 LINE",
"765 758 LINE",
"558 758 LINE",
"340 428 LINE",
"319 413 LINE",
"30 0 LINE"
);
},
{
closed = 1;
nodes = (
"782 0 LINE",
"494 413 LINE",
"473 428 LINE",
"255 758 LINE",
"48 758 LINE",
"312 378 LINE",
"336 360 LINE",
"574 0 LINE"
);
}
);
width = 812;
},
{
layerId = "817DDDC7-9D97-429D-9F3D-5ABA58537E71";
name = Light;
paths = (
{
closed = 1;
nodes = (
"117 0 LINE",
"361 360 LINE",
"385 378 LINE",
"644 758 LINE",
"577 758 LINE",
"354 428 LINE",
"333 413 LINE",
"49 0 LINE"
);
},
{
closed = 1;
nodes = (
"661 0 LINE",
"378 413 LINE",
"357 428 LINE",
"134 758 LINE",
"67 758 LINE",
"326 378 LINE",
"350 360 LINE",
"593 0 LINE"
);
}
);
width = 706;
}
);
unicode = 0058;
userData = {
com.typemytype.robofont.layerData = {
background = {
anchors = (
{
name = Accent;
x = 404;
y = 758;
}
);
components = (
);
contours = (
{
points = (
{
segmentType = line;
smooth = 0;
x = 405;
y = 428;
},
{
segmentType = line;
smooth = 0;
x = 384;
y = 413;
},
{
segmentType = line;
smooth = 0;
x = 100;
y = 0;
},
{
segmentType = line;
smooth = 0;
x = 168;
y = 0;
},
{
segmentType = line;
smooth = 0;
x = 412;
y = 360;
},
{
segmentType = line;
smooth = 0;
x = 436;
y = 378;
},
{
segmentType = line;
smooth = 0;
x = 695;
y = 758;
},
{
segmentType = line;
smooth = 0;
x = 628;
y = 758;
}
);
},
{
points = (
{
segmentType = line;
smooth = 0;
x = 118;
y = 758;
},
{
segmentType = line;
smooth = 0;
x = 377;
y = 378;
},
{
segmentType = line;
smooth = 0;
x = 401;
y = 360;
},
{
segmentType = line;
smooth = 0;
x = 644;
y = 0;
},
{
segmentType = line;
smooth = 0;
x = 712;
y = 0;
},
{
segmentType = line;
smooth = 0;
x = 429;
y = 413;
},
{
segmentType = line;
smooth = 0;
x = 408;
y = 428;
},
{
segmentType = line;
smooth = 0;
x = 185;
y = 758;
}
);
}
);
lib = {
};
name = X;
unicodes = (
);
width = 812;
};
};
com.typemytype.robofont.mark = (
1,
1,
0,
1
);
};
},
{
color = (255,255,0,1);
glyphname = Y;
lastChange = "2015-02-28 18:39:27 +0000";
layers = (
{
anchors = (
{
name = Accent;
position = "{367, 800}";
}
);
layerId = "BE6E37CB-569E-4B40-A59A-BD6EE6EB60D7";
name = Bold;
paths = (
{
closed = 1;
nodes = (
"450 286 LINE",
"713 758 LINE",
"533 758 LINE",
"298 328 LINE",
"434 328 LINE",
"200 758 LINE",
"20 758 LINE",
"282 286 LINE"
);
},
{
closed = 1;
nodes = (
"454 0 LINE",
"454 339 LINE",
"278 339 LINE",
"278 0 LINE"
);
}
);
width = 733;
},
{
anchors = (
{
name = Accent;
position = "{351, 758}";
}
);
layerId = "817DDDC7-9D97-429D-9F3D-5ABA58537E71";
name = Light;
paths = (
{
closed = 1;
nodes = (
"375 286 LINE",
"668 758 LINE",
"608 758 LINE",
"343 328 LINE",
"359 328 LINE",
"95 758 LINE",
"35 758 LINE",
"327 286 LINE"
);
},
{
closed = 1;
nodes = (
"379 0 LINE",
"379 339 LINE",
"323 339 LINE",
"323 0 LINE"
);
}
);
width = 703;
}
);
unicode = 0059;
userData = {
com.typemytype.robofont.layerData = {
background = {
anchors = (
{
name = Accent;
x = 366;
y = 758;
}
);
components = (
);
contours = (
{
points = (
{
segmentType = line;
smooth = 0;
x = 683;
y = 758;
},
{
segmentType = line;
smooth = 0;
x = 623;
y = 758;
},
{
segmentType = line;
smooth = 0;
x = 358;
y = 328;
},
{
segmentType = line;
smooth = 0;
x = 374;
y = 328;
},
{
segmentType = line;
smooth = 0;
x = 110;
y = 758;
},
{
segmentType = line;
smooth = 0;
x = 50;
y = 758;
},
{
segmentType = line;
smooth = 0;
x = 342;
y = 286;
},
{
segmentType = line;
smooth = 0;
x = 390;
y = 286;
}
);
},
{
points = (
{
segmentType = line;
smooth = 0;
x = 338;
y = 339;
},
{
segmentType = line;
smooth = 0;
x = 338;
y = 0;
},
{
segmentType = line;
smooth = 0;
x = 394;
y = 0;
},
{
segmentType = line;
smooth = 0;
x = 394;
y = 339;
}
);
}
);
lib = {
};
name = Y;
unicodes = (
);
width = 733;
};
};
com.typemytype.robofont.mark = (
1,
1,
0,
1
);
};
},
{
color = (255,255,0,1);
glyphname = Z;
lastChange = "2015-02-28 18:39:26 +0000";
layers = (
{
anchors = (
{
name = Accent;
position = "{375, 800}";
}
);
layerId = "BE6E37CB-569E-4B40-A59A-BD6EE6EB60D7";
name = Bold;
paths = (
{
closed = 1;
nodes = (
"678 0 LINE",
"678 154 LINE",
"120 154 LINE",
"233 54 LINE",
"645 606 LINE",
"645 758 LINE",
"93 758 LINE",
"93 604 LINE",
"606 604 LINE",
"493 704 LINE",
"80 152 LINE",
"80 0 LINE"
);
}
);
width = 738;
},
{
anchors = (
{
name = Accent;
position = "{347, 758}";
}
);
layerId = "817DDDC7-9D97-429D-9F3D-5ABA58537E71";
name = Light;
paths = (
{
closed = 1;
nodes = (
"628 0 LINE",
"628 54 LINE",
"120 54 LINE",
"133 34 LINE",
"595 706 LINE",
"595 758 LINE",
"93 758 LINE",
"93 704 LINE",
"556 704 LINE",
"543 724 LINE",
"80 52 LINE",
"80 0 LINE"
);
}
);
width = 708;
}
);
unicode = 005A;
userData = {
com.typemytype.robofont.layerData = {
background = {
anchors = (
{
name = Accent;
x = 347;
y = 758;
}
);
components = (
);
contours = (
{
points = (
{
segmentType = line;
smooth = 0;
x = 120;
y = 54;
},
{
segmentType = line;
smooth = 0;
x = 133;
y = 34;
},
{
segmentType = line;
smooth = 0;
x = 595;
y = 706;
},
{
segmentType = line;
smooth = 0;
x = 595;
y = 758;
},
{
segmentType = line;
smooth = 0;
x = 93;
y = 758;
},
{
segmentType = line;
smooth = 0;
x = 93;
y = 704;
},
{
segmentType = line;
smooth = 0;
x = 556;
y = 704;
},
{
segmentType = line;
smooth = 0;
x = 543;
y = 724;
},
{
segmentType = line;
smooth = 0;
x = 80;
y = 52;
},
{
segmentType = line;
smooth = 0;
x = 80;
y = 0;
},
{
segmentType = line;
smooth = 0;
x = 628;
y = 0;
},
{
segmentType = line;
smooth = 0;
x = 628;
y = 54;
}
);
}
);
lib = {
};
name = Z;
unicodes = (
);
width = 738;
};
};
com.typemytype.robofont.mark = (
1,
1,
0,
1
);
};
},
{
color = (0,255,0,1);
glyphname = a;
lastChange = "2015-02-28 18:39:26 +0000";
layers = (
{
anchors = (
{
name = accent;
position = "{295, 600}";
},
{
name = ogonek;
position = "{485, 0}";
}
);
layerId = "BE6E37CB-569E-4B40-A59A-BD6EE6EB60D7";
name = Bold;
paths = (
{
closed = 1;
nodes = (
"553 0 LINE",
"553 333 LINE SMOOTH",
"553 465 OFFCURVE",
"522 566 OFFCURVE",
"290 566 CURVE SMOOTH",
"161 566 LINE",
"161 416 LINE",
"275 416 LINE SMOOTH",
"373 416 OFFCURVE",
"379 381 OFFCURVE",
"379 323 CURVE SMOOTH",
"379 0 LINE"
);
},
{
closed = 1;
nodes = (
"307 -13 OFFCURVE",
"361 16 OFFCURVE",
"434 105 CURVE",
"433 219 LINE",
"374 154 OFFCURVE",
"321 121 OFFCURVE",
"272 121 CURVE SMOOTH",
"233 121 OFFCURVE",
"206 134 OFFCURVE",
"206 180 CURVE SMOOTH",
"206 225 OFFCURVE",
"237 243 OFFCURVE",
"282 243 CURVE SMOOTH",
"337 243 OFFCURVE",
"382 223 OFFCURVE",
"430 189 CURVE",
"436 297 LINE",
"382 347 OFFCURVE",
"320 367 OFFCURVE",
"240 367 CURVE SMOOTH",
"109 367 OFFCURVE",
"30 300 OFFCURVE",
"30 178 CURVE SMOOTH",
"30 57 OFFCURVE",
"108 -13 OFFCURVE",
"235 -13 CURVE SMOOTH"
);
}
);
width = 618;
},
{
anchors = (
{
name = accent;
position = "{265, 546}";
},
{
name = ogonek;
position = "{401, 0}";
}
);
layerId = "817DDDC7-9D97-429D-9F3D-5ABA58537E71";
name = Light;
paths = (
{
closed = 1;
nodes = (
"428 0 LINE",
"428 313 LINE SMOOTH",
"428 445 OFFCURVE",
"406 546 OFFCURVE",
"245 546 CURVE SMOOTH",
"176 546 LINE",
"176 496 LINE",
"230 496 LINE SMOOTH",
"366 496 OFFCURVE",
"374 423 OFFCURVE",
"374 303 CURVE SMOOTH",
"374 0 LINE"
);
},
{
closed = 1;
nodes = (
"279 -13 OFFCURVE",
"337 16 OFFCURVE",
"399 85 CURVE",
"398 139 LINE",
"336 70 OFFCURVE",
"268 41 OFFCURVE",
"210 41 CURVE SMOOTH",
"161 41 OFFCURVE",
"91 72 OFFCURVE",
"91 173 CURVE SMOOTH",
"91 280 OFFCURVE",
"171 308 OFFCURVE",
"240 308 CURVE SMOOTH",
"288 308 OFFCURVE",
"347 297 OFFCURVE",
"395 264 CURVE",
"401 312 LINE",
"358 344 OFFCURVE",
"292 362 OFFCURVE",
"240 362 CURVE SMOOTH",
"120 362 OFFCURVE",
"35 295 OFFCURVE",
"35 173 CURVE SMOOTH",
"35 55 OFFCURVE",
"119 -13 OFFCURVE",
"210 -13 CURVE SMOOTH"
);
}
);
width = 493;
}
);
unicode = 0061;
userData = {
com.typemytype.robofont.layerData = {
background = {
anchors = (
{
name = accent;
x = 330;
y = 546;
},
{
name = accent;
x = 330;
y = 546;
},
{
name = accent;
x = 330;
y = 546;
}
);
components = (
);
contours = (
{
points = (
{
segmentType = line;
smooth = 0;
x = "-889";
y = 546;
},
{
segmentType = line;
smooth = 0;
x = "-889";
y = 496;
},
{
segmentType = line;
smooth = 1;
x = "-835";
y = 496;
},
{
smooth = 0;
x = "-699";
y = 496;
},
{
smooth = 0;
x = "-691";
y = 423;
},
{
segmentType = curve;
smooth = 1;
x = "-691";
y = 303;
},
{
segmentType = line;
smooth = 0;
x = "-691";
y = 0;
},
{
segmentType = line;
smooth = 0;
x = "-637";
y = 0;
},
{
segmentType = line;
smooth = 1;
x = "-637";
y = 313;
},
{
smooth = 0;
x = "-637";
y = 445;
},
{
smooth = 0;
x = "-659";
y = 546;
},
{
segmentType = curve;
smooth = 1;
x = "-820";
y = 546;
}
);
},
{
points = (
{
smooth = 0;
x = "-707";
y = 344;
},
{
smooth = 0;
x = "-773";
y = 362;
},
{
segmentType = curve;
smooth = 1;
x = "-825";
y = 362;
},
{
smooth = 0;
x = "-945";
y = 362;
},
{
smooth = 0;
x = "-1030";
y = 295;
},
{
segmentType = curve;
smooth = 1;
x = "-1030";
y = 173;
},
{
smooth = 0;
x = "-1030";
y = 55;
},
{
smooth = 0;
x = "-946";
y = "-13";
},
{
segmentType = curve;
smooth = 1;
x = "-855";
y = "-13";
},
{
smooth = 0;
x = "-786";
y = "-13";
},
{
smooth = 0;
x = "-728";
y = 16;
},
{
segmentType = curve;
smooth = 0;
x = "-666";
y = 85;
},
{
segmentType = line;
smooth = 0;
x = "-667";
y = 139;
},
{
smooth = 0;
x = "-729";
y = 70;
},
{
smooth = 0;
x = "-797";
y = 41;
},
{
segmentType = curve;
smooth = 1;
x = "-855";
y = 41;
},
{
smooth = 0;
x = "-904";
y = 41;
},
{
smooth = 0;
x = "-974";
y = 72;
},
{
segmentType = curve;
smooth = 1;
x = "-974";
y = 173;
},
{
smooth = 0;
x = "-974";
y = 280;
},
{
smooth = 0;
x = "-894";
y = 308;
},
{
segmentType = curve;
smooth = 1;
x = "-825";
y = 308;
},
{
smooth = 0;
x = "-777";
y = 308;
},
{
smooth = 0;
x = "-718";
y = 297;
},
{
segmentType = curve;
smooth = 0;
x = "-670";
y = 264;
},
{
segmentType = line;
smooth = 0;
x = "-664";
y = 312;
}
);
},
{
points = (
{
segmentType = line;
smooth = 0;
x = "-424";
y = 546;
},
{
segmentType = line;
smooth = 0;
x = "-424";
y = 386;
},
{
segmentType = line;
smooth = 1;
x = "-270";
y = 386;
},
{
smooth = 0;
x = "-207";
y = 386;
},
{
smooth = 0;
x = "-196";
y = 358;
},
{
segmentType = curve;
smooth = 1;
x = "-196";
y = 313;
},
{
segmentType = line;
smooth = 0;
x = "-196";
y = 0;
},
{
segmentType = line;
smooth = 0;
x = "-2";
y = 0;
},
{
segmentType = line;
smooth = 1;
x = "-2";
y = 313;
},
{
smooth = 0;
x = "-2";
y = 445;
},
{
smooth = 0;
x = "-32";
y = 546;
},
{
segmentType = curve;
smooth = 1;
x = "-255";
y = 546;
}
);
},
{
points = (
{
smooth = 0;
x = "-171";
y = 330;
},
{
smooth = 0;
x = "-236";
y = 352;
},
{
segmentType = curve;
smooth = 1;
x = "-312";
y = 352;
},
{
smooth = 0;
x = "-444";
y = 352;
},
{
smooth = 0;
x = "-525";
y = 287;
},
{
segmentType = curve;
smooth = 1;
x = "-525";
y = 168;
},
{
smooth = 0;
x = "-525";
y = 53;
},
{
smooth = 0;
x = "-446";
y = "-13";
},
{
segmentType = curve;
smooth = 1;
x = "-342";
y = "-13";
},
{
smooth = 0;
x = "-247";
y = "-13";
},
{
smooth = 0;
x = "-192";
y = 17;
},
{
segmentType = curve;
smooth = 0;
x = "-121";
y = 95;
},
{
segmentType = line;
smooth = 0;
x = "-122";
y = 224;
},
{
smooth = 0;
x = "-180";
y = 160;
},
{
smooth = 0;
x = "-231";
y = 126;
},
{
segmentType = curve;
smooth = 1;
x = "-280";
y = 126;
},
{
smooth = 0;
x = "-300";
y = 126;
},
{
smooth = 0;
x = "-329";
y = 137;
},
{
segmentType = curve;
smooth = 1;
x = "-329";
y = 173;
},
{
smooth = 0;
x = "-329";
y = 213;
},
{
smooth = 0;
x = "-293";
y = 223;
},
{
segmentType = curve;
smooth = 1;
x = "-260";
y = 223;
},
{
smooth = 0;
x = "-218";
y = 223;
},
{
smooth = 0;
x = "-169";
y = 210;
},
{
segmentType = curve;
smooth = 0;
x = "-125";
y = 179;
},
{
segmentType = line;
smooth = 0;
x = "-119";
y = 292;
}
);
},
{
points = (
{
segmentType = line;
smooth = 0;
x = 241;
y = 546;
},
{
segmentType = line;
smooth = 0;
x = 241;
y = 496;
},
{
segmentType = line;
smooth = 1;
x = 295;
y = 496;
},
{
smooth = 0;
x = 431;
y = 496;
},
{
smooth = 0;
x = 439;
y = 423;
},
{
segmentType = curve;
smooth = 1;
x = 439;
y = 303;
},
{
segmentType = line;
smooth = 0;
x = 439;
y = 0;
},
{
segmentType = line;
smooth = 0;
x = 493;
y = 0;
},
{
segmentType = line;
smooth = 1;
x = 493;
y = 313;
},
{
smooth = 0;
x = 493;
y = 445;
},
{
smooth = 0;
x = 471;
y = 546;
},
{
segmentType = curve;
smooth = 1;
x = 310;
y = 546;
}
);
},
{
points = (
{
smooth = 0;
x = 423;
y = 344;
},
{
smooth = 0;
x = 357;
y = 362;
},
{
segmentType = curve;
smooth = 1;
x = 305;
y = 362;
},
{
smooth = 0;
x = 185;
y = 362;
},
{
smooth = 0;
x = 100;
y = 295;
},
{
segmentType = curve;
smooth = 1;
x = 100;
y = 173;
},
{
smooth = 0;
x = 100;
y = 55;
},
{
smooth = 0;
x = 184;
y = "-13";
},
{
segmentType = curve;
smooth = 1;
x = 275;
y = "-13";
},
{
smooth = 0;
x = 344;
y = "-13";
},
{
smooth = 0;
x = 402;
y = 16;
},
{
segmentType = curve;
smooth = 0;
x = 464;
y = 85;
},
{
segmentType = line;
smooth = 0;
x = 463;
y = 139;
},
{
smooth = 0;
x = 401;
y = 70;
},
{
smooth = 0;
x = 333;
y = 41;
},
{
segmentType = curve;
smooth = 1;
x = 275;
y = 41;
},
{
smooth = 0;
x = 226;
y = 41;
},
{
smooth = 0;
x = 156;
y = 72;
},
{
segmentType = curve;
smooth = 1;
x = 156;
y = 173;
},
{
smooth = 0;
x = 156;
y = 280;
},
{
smooth = 0;
x = 236;
y = 308;
},
{
segmentType = curve;
smooth = 1;
x = 305;
y = 308;
},
{
smooth = 0;
x = 353;
y = 308;
},
{
smooth = 0;
x = 412;
y = 297;
},
{
segmentType = curve;
smooth = 0;
x = 460;
y = 264;
},
{
segmentType = line;
smooth = 0;
x = 466;
y = 312;
}
);
}
);
lib = {
};
name = a;
unicodes = (
);
width = 618;
};
};
com.typemytype.robofont.mark = (
0,
1,
0,
1
);
};
},
{
glyphname = aogonek;
lastChange = "2015-02-28 18:39:26 +0000";
layers = (
{
components = (
{
name = a;
}
);
layerId = "BE6E37CB-569E-4B40-A59A-BD6EE6EB60D7";
name = Bold;
paths = (
{
closed = 1;
nodes = (
"498 -263 OFFCURVE",
"526 -258 OFFCURVE",
"553 -249 CURVE",
"553 -154 LINE",
"535 -162 OFFCURVE",
"517 -166 OFFCURVE",
"500 -166 CURVE SMOOTH",
"475 -166 OFFCURVE",
"460 -156 OFFCURVE",
"460 -131 CURVE SMOOTH",
"460 -88 OFFCURVE",
"499 -42 OFFCURVE",
"553 0 CURVE",
"553 17 LINE",
"418 17 LINE",
"418 0 LINE",
"355 -49 OFFCURVE",
"329 -107 OFFCURVE",
"329 -160 CURVE SMOOTH",
"329 -224 OFFCURVE",
"374 -263 OFFCURVE",
"471 -263 CURVE"
);
}
);
width = 618;
},
{
components = (
{
name = a;
}
);
layerId = "817DDDC7-9D97-429D-9F3D-5ABA58537E71";
name = Light;
paths = (
{
closed = 1;
nodes = (
"393 -223 OFFCURVE",
"410 -220 OFFCURVE",
"428 -212 CURVE",
"428 -164 LINE",
"409 -174 OFFCURVE",
"391 -176 OFFCURVE",
"376 -176 CURVE SMOOTH",
"341 -176 OFFCURVE",
"327 -157 OFFCURVE",
"327 -135 CURVE SMOOTH",
"327 -85 OFFCURVE",
"373 -44 OFFCURVE",
"428 0 CURVE",
"428 10 LINE",
"374 10 LINE",
"374 0 LINE",
"312 -46 OFFCURVE",
"276 -88 OFFCURVE",
"276 -140 CURVE SMOOTH",
"276 -188 OFFCURVE",
"308 -223 OFFCURVE",
"376 -223 CURVE"
);
}
);
width = 493;
}
);
unicode = 0105;
userData = {
com.typemytype.robofont.layerData = {
background = {
anchors = (
);
components = (
);
contours = (
);
lib = {
};
name = aogonek;
unicodes = (
);
width = 618;
};
};
};
},
{
color = (255,255,0,1);
glyphname = ae;
lastChange = "2015-02-28 18:39:26 +0000";
layers = (
{
layerId = "BE6E37CB-569E-4B40-A59A-BD6EE6EB60D7";
name = Bold;
paths = (
{
closed = 1;
nodes = (
"779 -17 OFFCURVE",
"842 -5 OFFCURVE",
"913 35 CURVE",
"868 169 LINE",
"807 139 OFFCURVE",
"764 127 OFFCURVE",
"712 127 CURVE",
"589 127 OFFCURVE",
"559 200 OFFCURVE",
"559 285 CURVE SMOOTH",
"559 404 OFFCURVE",
"597 438 OFFCURVE",
"656 438 CURVE SMOOTH",
"715 438 OFFCURVE",
"742 406 OFFCURVE",
"742 328 CURVE SMOOTH",
"742 229 LINE",
"923 229 LINE",
"923 298 LINE SMOOTH",
"923 488 OFFCURVE",
"818 582 OFFCURVE",
"670 582 CURVE SMOOTH",
"519 582 OFFCURVE",
"408 479 OFFCURVE",
"408 284 CURVE",
"378 272 LINE",
"378 100 OFFCURVE",
"491 -17 OFFCURVE",
"688 -17 CURVE"
);
},
{
closed = 1;
nodes = (
"323 -13 OFFCURVE",
"395 11 OFFCURVE",
"477 111 CURVE",
"433 219 LINE",
"374 154 OFFCURVE",
"321 121 OFFCURVE",
"272 121 CURVE SMOOTH",
"233 121 OFFCURVE",
"206 134 OFFCURVE",
"206 180 CURVE SMOOTH",
"206 225 OFFCURVE",
"237 243 OFFCURVE",
"282 243 CURVE SMOOTH",
"337 243 OFFCURVE",
"382 223 OFFCURVE",
"430 189 CURVE",
"436 297 LINE",
"382 347 OFFCURVE",
"320 367 OFFCURVE",
"240 367 CURVE SMOOTH",
"109 367 OFFCURVE",
"30 300 OFFCURVE",
"30 178 CURVE SMOOTH",
"30 57 OFFCURVE",
"108 -13 OFFCURVE",
"235 -13 CURVE SMOOTH"
);
},
{
closed = 1;
nodes = (
"523 277 LINE",
"523 333 LINE SMOOTH",
"523 465 OFFCURVE",
"495.536 566 OFFCURVE",
"290 566 CURVE SMOOTH",
"161 566 LINE",
"161 416 LINE",
"275 416 LINE SMOOTH",
"373 416 OFFCURVE",
"379 381 OFFCURVE",
"379 323 CURVE SMOOTH",
"379 277 LINE"
);
},
{
closed = 1;
nodes = (
"818 229 LINE",
"818 358 LINE",
"479 358 LINE",
"479 229 LINE"
);
}
);
width = 953;
},
{
layerId = "817DDDC7-9D97-429D-9F3D-5ABA58537E71";
name = Light;
paths = (
{
closed = 1;
nodes = (
"695 -17 OFFCURVE",
"758 -1 OFFCURVE",
"815 28 CURVE",
"795 78 LINE",
"742 54 OFFCURVE",
"687 37 OFFCURVE",
"632 37 CURVE",
"483 39 OFFCURVE",
"430 146 OFFCURVE",
"430 275 CURVE SMOOTH",
"430 434 OFFCURVE",
"502 508 OFFCURVE",
"612 508 CURVE SMOOTH",
"723 508 OFFCURVE",
"773 446 OFFCURVE",
"773 310 CURVE",
"773 289 LINE",
"829 289 LINE",
"829 310 LINE",
"828 475 OFFCURVE",
"744 562 OFFCURVE",
"612 562 CURVE SMOOTH",
"480 562 OFFCURVE",
"375 463 OFFCURVE",
"375 274 CURVE",
"374 274 LINE",
"374 102 OFFCURVE",
"463 -17 OFFCURVE",
"632 -17 CURVE"
);
},
{
closed = 1;
nodes = (
"291 -13 OFFCURVE",
"359 26 OFFCURVE",
"432 96 CURVE",
"398 139 LINE",
"336 70 OFFCURVE",
"268 41 OFFCURVE",
"210 41 CURVE SMOOTH",
"161 41 OFFCURVE",
"91 72 OFFCURVE",
"91 173 CURVE SMOOTH",
"91 280 OFFCURVE",
"171 308 OFFCURVE",
"240 308 CURVE SMOOTH",
"288 308 OFFCURVE",
"347 297 OFFCURVE",
"395 264 CURVE",
"401 312 LINE",
"358 344 OFFCURVE",
"292 362 OFFCURVE",
"240 362 CURVE SMOOTH",
"120 362 OFFCURVE",
"35 295 OFFCURVE",
"35 173 CURVE SMOOTH",
"35 55 OFFCURVE",
"119 -13 OFFCURVE",
"210 -13 CURVE SMOOTH"
);
},
{
closed = 1;
nodes = (
"426 274 LINE",
"426 313 LINE SMOOTH",
"425.989 445 OFFCURVE",
"404.231 546 OFFCURVE",
"245 546 CURVE SMOOTH",
"176 546 LINE",
"176 496 LINE",
"230 496 LINE SMOOTH",
"366 496 OFFCURVE",
"374 423 OFFCURVE",
"374 303 CURVE SMOOTH",
"374 274 LINE"
);
},
{
closed = 1;
nodes = (
"784 289 LINE",
"784 343 LINE",
"415 343 LINE",
"415 289 LINE"
);
}
);
width = 879;
}
);
unicode = 00E6;
userData = {
com.typemytype.robofont.layerData = {
background = {
anchors = (
);
components = (
);
contours = (
{
points = (
{
segmentType = line;
smooth = 0;
x = 176;
y = 546;
},
{
segmentType = line;
smooth = 0;
x = 176;
y = 496;
},
{
segmentType = line;
smooth = 1;
x = 230;
y = 496;
},
{
smooth = 0;
x = 366;
y = 496;
},
{
smooth = 0;
x = 374;
y = 423;
},
{
segmentType = curve;
smooth = 1;
x = 374;
y = 303;
},
{
segmentType = line;
smooth = 0;
x = 374;
y = 274;
},
{
segmentType = line;
smooth = 0;
x = 426;
y = 274;
},
{
segmentType = line;
smooth = 1;
x = 426;
y = 313;
},
{
smooth = 0;
x = 426;
y = 445;
},
{
smooth = 0;
x = 404;
y = 546;
},
{
segmentType = curve;
smooth = 1;
x = 245;
y = 546;
}
);
},
{
points = (
{
smooth = 0;
x = 358;
y = 344;
},
{
smooth = 0;
x = 292;
y = 362;
},
{
segmentType = curve;
smooth = 1;
x = 240;
y = 362;
},
{
smooth = 0;
x = 120;
y = 362;
},
{
smooth = 0;
x = 35;
y = 295;
},
{
segmentType = curve;
smooth = 1;
x = 35;
y = 173;
},
{
smooth = 0;
x = 35;
y = 55;
},
{
smooth = 0;
x = 119;
y = "-13";
},
{
segmentType = curve;
smooth = 1;
x = 210;
y = "-13";
},
{
smooth = 0;
x = 291;
y = "-13";
},
{
smooth = 0;
x = 359;
y = 26;
},
{
segmentType = curve;
smooth = 0;
x = 432;
y = 96;
},
{
segmentType = line;
smooth = 0;
x = 398;
y = 139;
},
{
smooth = 0;
x = 336;
y = 70;
},
{
smooth = 0;
x = 268;
y = 41;
},
{
segmentType = curve;
smooth = 1;
x = 210;
y = 41;
},
{
smooth = 0;
x = 161;
y = 41;
},
{
smooth = 0;
x = 91;
y = 72;
},
{
segmentType = curve;
smooth = 1;
x = 91;
y = 173;
},
{
smooth = 0;
x = 91;
y = 280;
},
{
smooth = 0;
x = 171;
y = 308;
},
{
segmentType = curve;
smooth = 1;
x = 240;
y = 308;
},
{
smooth = 0;
x = 288;
y = 308;
},
{
smooth = 0;
x = 347;
y = 297;
},
{
segmentType = curve;
smooth = 0;
x = 395;
y = 264;
},
{
segmentType = line;
smooth = 0;
x = 401;
y = 312;
}
);
},
{
points = (
{
smooth = 0;
x = 483;
y = 37;
},
{
smooth = 0;
x = 430;
y = 145;
},
{
segmentType = curve;
smooth = 1;
x = 430;
y = 275;
},
{
smooth = 0;
x = 430;
y = 434;
},
{
smooth = 0;
x = 502;
y = 508;
},
{
segmentType = curve;
smooth = 1;
x = 612;
y = 508;
},
{
smooth = 0;
x = 723;
y = 508;
},
{
smooth = 0;
x = 773;
y = 446;
},
{
segmentType = curve;
smooth = 0;
x = 773;
y = 310;
},
{
segmentType = line;
smooth = 0;
x = 773;
y = 289;
},
{
segmentType = line;
smooth = 0;
x = 829;
y = 289;
},
{
segmentType = line;
smooth = 0;
x = 829;
y = 310;
},
{
smooth = 0;
x = 828;
y = 475;
},
{
smooth = 0;
x = 744;
y = 562;
},
{
segmentType = curve;
smooth = 1;
x = 612;
y = 562;
},
{
smooth = 0;
x = 480;
y = 562;
},
{
smooth = 0;
x = 374;
y = 463;
},
{
segmentType = curve;
smooth = 1;
x = 374;
y = 274;
},
{
smooth = 0;
x = 374;
y = 102;
},
{
smooth = 0;
x = 463;
y = "-17";
},
{
segmentType = curve;
smooth = 0;
x = 632;
y = "-17";
},
{
smooth = 0;
x = 695;
y = "-17";
},
{
smooth = 0;
x = 758;
y = "-1";
},
{
segmentType = curve;
smooth = 0;
x = 815;
y = 28;
},
{
segmentType = line;
smooth = 0;
x = 795;
y = 78;
},
{
smooth = 0;
x = 742;
y = 54;
},
{
smooth = 0;
x = 687;
y = 37;
},
{
segmentType = curve;
smooth = 0;
x = 632;
y = 37;
}
);
},
{
points = (
{
segmentType = line;
smooth = 0;
x = 415;
y = 289;
},
{
segmentType = line;
smooth = 0;
x = 784;
y = 289;
},
{
segmentType = line;
smooth = 0;
x = 784;
y = 343;
},
{
segmentType = line;
smooth = 0;
x = 415;
y = 343;
}
);
}
);
lib = {
};
name = ae;
unicodes = (
);
width = 953;
};
};
com.typemytype.robofont.mark = (
1,
1,
0,
1
);
};
},
{
color = (0,255,0,1);
glyphname = b;
lastChange = "2015-02-28 18:39:27 +0000";
layers = (
{
layerId = "BE6E37CB-569E-4B40-A59A-BD6EE6EB60D7";
name = Bold;
paths = (
{
closed = 1;
nodes = (
"545 -17 OFFCURVE",
"656 81 OFFCURVE",
"656 283 CURVE",
"656 483 OFFCURVE",
"545 582 OFFCURVE",
"396 582 CURVE SMOOTH",
"299 582 OFFCURVE",
"223 523 OFFCURVE",
"156 440 CURVE",
"156 306 LINE",
"214 370 OFFCURVE",
"279 428 OFFCURVE",
"358 428 CURVE SMOOTH",
"435 428 OFFCURVE",
"475 377 OFFCURVE",
"475 283 CURVE",
"475 187 OFFCURVE",
"435 137 OFFCURVE",
"358 137 CURVE SMOOTH",
"279 137 OFFCURVE",
"214 195 OFFCURVE",
"156 259 CURVE",
"156 125 LINE",
"223 42 OFFCURVE",
"299 -17 OFFCURVE",
"396 -17 CURVE SMOOTH"
);
},
{
closed = 1;
nodes = (
"244 0 LINE",
"244 846 LINE",
"70 846 LINE",
"70 0 LINE"
);
}
);
width = 691;
},
{
layerId = "817DDDC7-9D97-429D-9F3D-5ABA58537E71";
name = Light;
paths = (
{
closed = 1;
nodes = (
"459 -17 OFFCURVE",
"556 78 OFFCURVE",
"556 272 CURVE",
"556 467 OFFCURVE",
"459 562 OFFCURVE",
"318 562 CURVE SMOOTH",
"247 562 OFFCURVE",
"176 515 OFFCURVE",
"126 460 CURVE",
"126 406 LINE",
"177 462 OFFCURVE",
"243 508 OFFCURVE",
"318 508 CURVE SMOOTH",
"438 508 OFFCURVE",
"500 426 OFFCURVE",
"500 272 CURVE",
"500 119 OFFCURVE",
"438 37 OFFCURVE",
"318 37 CURVE SMOOTH",
"243 37 OFFCURVE",
"177 83 OFFCURVE",
"126 139 CURVE",
"126 85 LINE",
"176 30 OFFCURVE",
"247 -17 OFFCURVE",
"318 -17 CURVE SMOOTH"
);
},
{
closed = 1;
nodes = (
"154 0 LINE",
"154 846 LINE",
"100 846 LINE",
"100 0 LINE"
);
}
);
width = 623;
}
);
unicode = 0062;
userData = {
com.typemytype.robofont.layerData = {
background = {
anchors = (
{
name = accent;
x = 361;
y = 546;
}
);
components = (
);
contours = (
{
points = (
{
segmentType = line;
smooth = 0;
x = 197;
y = 846;
},
{
segmentType = line;
smooth = 0;
x = 143;
y = 846;
},
{
segmentType = line;
smooth = 0;
x = 143;
y = 0;
},
{
segmentType = line;
smooth = 0;
x = 197;
y = 0;
}
);
},
{
points = (
{
smooth = 0;
x = 599;
y = 467;
},
{
smooth = 0;
x = 502;
y = 562;
},
{
segmentType = curve;
smooth = 1;
x = 361;
y = 562;
},
{
smooth = 0;
x = 290;
y = 562;
},
{
smooth = 0;
x = 219;
y = 515;
},
{
segmentType = curve;
smooth = 0;
x = 169;
y = 460;
},
{
segmentType = line;
smooth = 0;
x = 169;
y = 406;
},
{
smooth = 0;
x = 220;
y = 462;
},
{
smooth = 0;
x = 286;
y = 508;
},
{
segmentType = curve;
smooth = 1;
x = 361;
y = 508;
},
{
smooth = 0;
x = 481;
y = 508;
},
{
smooth = 0;
x = 543;
y = 426;
},
{
segmentType = curve;
smooth = 0;
x = 543;
y = 272;
},
{
smooth = 0;
x = 543;
y = 119;
},
{
smooth = 0;
x = 481;
y = 37;
},
{
segmentType = curve;
smooth = 1;
x = 361;
y = 37;
},
{
smooth = 0;
x = 286;
y = 37;
},
{
smooth = 0;
x = 220;
y = 83;
},
{
segmentType = curve;
smooth = 0;
x = 169;
y = 139;
},
{
segmentType = line;
smooth = 0;
x = 169;
y = 85;
},
{
smooth = 0;
x = 219;
y = 30;
},
{
smooth = 0;
x = 290;
y = "-17";
},
{
segmentType = curve;
smooth = 1;
x = 361;
y = "-17";
},
{
smooth = 0;
x = 502;
y = "-17";
},
{
smooth = 0;
x = 599;
y = 78;
},
{
segmentType = curve;
smooth = 0;
x = 599;
y = 272;
}
);
}
);
lib = {
};
name = b;
unicodes = (
);
width = 691;
};
};
com.typemytype.robofont.mark = (
0,
1,
0,
1
);
};
},
{
color = (0,255,0,1);
glyphname = c;
lastChange = "2015-02-28 18:39:26 +0000";
layers = (
{
anchors = (
{
name = accent;
position = "{312, 600}";
},
{
name = bottomaccent;
position = "{319, 0}";
}
);
layerId = "BE6E37CB-569E-4B40-A59A-BD6EE6EB60D7";
name = Bold;
paths = (
{
closed = 1;
nodes = (
"393 -17 OFFCURVE",
"459 -2 OFFCURVE",
"526 38 CURVE",
"477 182 LINE",
"430 152 OFFCURVE",
"387 137 OFFCURVE",
"338 137 CURVE SMOOTH",
"250 137 OFFCURVE",
"216 193 OFFCURVE",
"216 285 CURVE",
"216 374 OFFCURVE",
"250 427 OFFCURVE",
"343 428 CURVE",
"393 428 OFFCURVE",
"434 421 OFFCURVE",
"485 396 CURVE",
"485 554 LINE",
"433 575 OFFCURVE",
"391 582 OFFCURVE",
"323 582 CURVE",
"134 581 OFFCURVE",
"35 471 OFFCURVE",
"35 284 CURVE",
"35 96 OFFCURVE",
"134 -16 OFFCURVE",
"323 -17 CURVE SMOOTH"
);
}
);
width = 546;
},
{
anchors = (
{
name = accent;
position = "{306, 546}";
},
{
name = bottomaccent;
position = "{305, 0}";
}
);
layerId = "817DDDC7-9D97-429D-9F3D-5ABA58537E71";
name = Light;
paths = (
{
closed = 1;
nodes = (
"388 -17 OFFCURVE",
"450 -1 OFFCURVE",
"508 28 CURVE",
"488 78 LINE",
"435 54 OFFCURVE",
"380 37 OFFCURVE",
"325 37 CURVE SMOOTH",
"176 38 OFFCURVE",
"123 144 OFFCURVE",
"123 275 CURVE",
"123 403 OFFCURVE",
"175.528 507.115 OFFCURVE",
"325 508 CURVE",
"374 508 OFFCURVE",
"414 501 OFFCURVE",
"464 477 CURVE",
"464 535 LINE",
"419 553 OFFCURVE",
"383 562 OFFCURVE",
"325 562 CURVE",
"155.836 561.273 OFFCURVE",
"67 444 OFFCURVE",
"67 274 CURVE",
"67 102 OFFCURVE",
"156 -16 OFFCURVE",
"325 -17 CURVE SMOOTH"
);
}
);
width = 546;
}
);
unicode = 0063;
userData = {
com.typemytype.robofont.layerData = {
background = {
anchors = (
{
name = bottomaccent;
x = 305;
y = 0;
},
{
name = accent;
x = 306;
y = 546;
}
);
components = (
);
contours = (
{
points = (
{
smooth = 0;
x = 67;
y = 102;
},
{
smooth = 0;
x = 156;
y = "-16";
},
{
segmentType = curve;
smooth = 1;
x = 325;
y = "-17";
},
{
smooth = 0;
x = 388;
y = "-17";
},
{
smooth = 0;
x = 450;
y = "-1";
},
{
segmentType = curve;
smooth = 0;
x = 508;
y = 28;
},
{
segmentType = line;
smooth = 0;
x = 488;
y = 78;
},
{
smooth = 0;
x = 435;
y = 54;
},
{
smooth = 0;
x = 380;
y = 37;
},
{
segmentType = curve;
smooth = 1;
x = 325;
y = 37;
},
{
smooth = 0;
x = 176;
y = 38;
},
{
smooth = 0;
x = 123;
y = 144;
},
{
segmentType = curve;
smooth = 0;
x = 123;
y = 275;
},
{
smooth = 0;
x = 123;
y = 403;
},
{
smooth = 0;
x = 176;
y = 507;
},
{
segmentType = curve;
smooth = 0;
x = 325;
y = 508;
},
{
smooth = 0;
x = 374;
y = 508;
},
{
smooth = 0;
x = 414;
y = 501;
},
{
segmentType = curve;
smooth = 0;
x = 464;
y = 477;
},
{
segmentType = line;
smooth = 0;
x = 464;
y = 535;
},
{
smooth = 0;
x = 419;
y = 553;
},
{
smooth = 0;
x = 383;
y = 562;
},
{
segmentType = curve;
smooth = 0;
x = 325;
y = 562;
},
{
smooth = 0;
x = 156;
y = 561;
},
{
smooth = 0;
x = 67;
y = 444;
},
{
segmentType = curve;
smooth = 0;
x = 67;
y = 274;
}
);
}
);
lib = {
};
name = c;
unicodes = (
);
width = 546;
};
};
com.typemytype.robofont.mark = (
0,
1,
0,
1
);
};
},
{
color = (0,255,0,1);
glyphname = d;
lastChange = "2015-02-28 18:39:27 +0000";
layers = (
{
anchors = (
{
name = slovak;
position = "{641, 556}";
}
);
layerId = "BE6E37CB-569E-4B40-A59A-BD6EE6EB60D7";
name = Bold;
paths = (
{
closed = 1;
nodes = (
"392 -17 OFFCURVE",
"468 42 OFFCURVE",
"535 125 CURVE",
"535 259 LINE",
"477 195 OFFCURVE",
"412 137 OFFCURVE",
"333 137 CURVE SMOOTH",
"256 137 OFFCURVE",
"216 187 OFFCURVE",
"216 283 CURVE",
"216 377 OFFCURVE",
"256 428 OFFCURVE",
"333 428 CURVE SMOOTH",
"412 428 OFFCURVE",
"477 370 OFFCURVE",
"535 306 CURVE",
"535 440 LINE",
"468 523 OFFCURVE",
"392 582 OFFCURVE",
"295 582 CURVE SMOOTH",
"146 582 OFFCURVE",
"35 483 OFFCURVE",
"35 283 CURVE",
"35 81 OFFCURVE",
"146 -17 OFFCURVE",
"295 -17 CURVE SMOOTH"
);
},
{
closed = 1;
nodes = (
"621 0 LINE",
"621 846 LINE",
"447 846 LINE",
"447 0 LINE"
);
}
);
width = 691;
},
{
anchors = (
{
name = slovak;
position = "{575, 546}";
}
);
layerId = "817DDDC7-9D97-429D-9F3D-5ABA58537E71";
name = Light;
paths = (
{
closed = 1;
nodes = (
"376 -17 OFFCURVE",
"447 30 OFFCURVE",
"497 85 CURVE",
"497 139 LINE",
"446 83 OFFCURVE",
"380 37 OFFCURVE",
"305 37 CURVE SMOOTH",
"184.812 37 OFFCURVE",
"123 119 OFFCURVE",
"123 273 CURVE",
"123 426 OFFCURVE",
"184.812 508 OFFCURVE",
"305 508 CURVE SMOOTH",
"380 508 OFFCURVE",
"446 462 OFFCURVE",
"497 406 CURVE",
"497 460 LINE",
"447 515 OFFCURVE",
"376 562 OFFCURVE",
"305 562 CURVE SMOOTH",
"164.452 562 OFFCURVE",
"67 467 OFFCURVE",
"67 273 CURVE",
"67 78 OFFCURVE",
"164.452 -17 OFFCURVE",
"305 -17 CURVE SMOOTH"
);
},
{
closed = 1;
nodes = (
"523 0 LINE",
"523 846 LINE",
"469 846 LINE",
"469 0 LINE"
);
}
);
width = 623;
}
);
unicode = 0064;
userData = {
com.typemytype.robofont.layerData = {
background = {
anchors = (
{
name = accent;
x = 343;
y = 546;
},
{
name = accent;
x = 343;
y = 546;
},
{
name = accent;
x = 343;
y = 546;
},
{
name = accent;
x = 343;
y = 546;
}
);
components = (
);
contours = (
{
points = (
{
segmentType = line;
smooth = 0;
x = "-799";
y = 0;
},
{
segmentType = line;
smooth = 0;
x = "-745";
y = 0;
},
{
segmentType = line;
smooth = 0;
x = "-745";
y = 846;
},
{
segmentType = line;
smooth = 0;
x = "-799";
y = 846;
}
);
},
{
points = (
{
smooth = 0;
x = "-1201";
y = 78;
},
{
smooth = 0;
x = "-1104";
y = "-17";
},
{
segmentType = curve;
smooth = 1;
x = "-963";
y = "-17";
},
{
smooth = 0;
x = "-892";
y = "-17";
},
{
smooth = 0;
x = "-821";
y = 30;
},
{
segmentType = curve;
smooth = 0;
x = "-771";
y = 85;
},
{
segmentType = line;
smooth = 0;
x = "-771";
y = 139;
},
{
smooth = 0;
x = "-822";
y = 83;
},
{
smooth = 0;
x = "-888";
y = 37;
},
{
segmentType = curve;
smooth = 1;
x = "-963";
y = 37;
},
{
smooth = 0;
x = "-1083";
y = 37;
},
{
smooth = 0;
x = "-1145";
y = 119;
},
{
segmentType = curve;
smooth = 0;
x = "-1145";
y = 273;
},
{
smooth = 0;
x = "-1145";
y = 426;
},
{
smooth = 0;
x = "-1083";
y = 508;
},
{
segmentType = curve;
smooth = 1;
x = "-963";
y = 508;
},
{
smooth = 0;
x = "-888";
y = 508;
},
{
smooth = 0;
x = "-822";
y = 462;
},
{
segmentType = curve;
smooth = 0;
x = "-771";
y = 406;
},
{
segmentType = line;
smooth = 0;
x = "-771";
y = 460;
},
{
smooth = 0;
x = "-821";
y = 515;
},
{
smooth = 0;
x = "-892";
y = 562;
},
{
segmentType = curve;
smooth = 1;
x = "-963";
y = 562;
},
{
smooth = 0;
x = "-1104";
y = 562;
},
{
smooth = 0;
x = "-1201";
y = 467;
},
{
segmentType = curve;
smooth = 0;
x = "-1201";
y = 273;
}
);
},
{
points = (
{
segmentType = line;
smooth = 0;
x = "-226";
y = 0;
},
{
segmentType = line;
smooth = 0;
x = "-22";
y = 0;
},
{
segmentType = line;
smooth = 0;
x = "-22";
y = 846;
},
{
segmentType = line;
smooth = 0;
x = "-226";
y = 846;
}
);
},
{
points = (
{
smooth = 0;
x = "-618";
y = 79;
},
{
smooth = 0;
x = "-511";
y = "-16";
},
{
segmentType = curve;
smooth = 1;
x = "-368";
y = "-16";
},
{
smooth = 0;
x = "-284";
y = "-16";
},
{
smooth = 0;
x = "-219";
y = 28;
},
{
segmentType = curve;
smooth = 0;
x = "-168";
y = 85;
},
{
segmentType = line;
smooth = 0;
x = "-168";
y = 244;
},
{
smooth = 0;
x = "-214";
y = 193;
},
{
smooth = 0;
x = "-256";
y = 142;
},
{
segmentType = curve;
smooth = 1;
x = "-320";
y = 142;
},
{
smooth = 0;
x = "-386";
y = 142;
},
{
smooth = 0;
x = "-422";
y = "-1.232529278";
},
{
segmentType = curve;
smooth = 0;
x = "-422";
y = 273;
},
{
smooth = 0;
x = "-422";
y = 357.24;
},
{
smooth = 0;
x = "-386";
y = 403;
},
{
segmentType = curve;
smooth = 1;
x = "-320";
y = 403;
},
{
smooth = 0;
x = "-256";
y = 403;
},
{
smooth = 0;
x = "-214";
y = 352;
},
{
segmentType = curve;
smooth = 0;
x = "-168";
y = 301;
},
{
segmentType = line;
smooth = 0;
x = "-168";
y = 460;
},
{
smooth = 0;
x = "-219";
y = 517;
},
{
smooth = 0;
x = "-263";
y = 562;
},
{
segmentType = curve;
smooth = 1;
x = "-368";
y = 562;
},
{
smooth = 0;
x = "-511";
y = 562;
},
{
smooth = 0;
x = "-618";
y = 467;
},
{
segmentType = curve;
smooth = 0;
x = "-618";
y = 273;
}
);
},
{
points = (
{
segmentType = line;
smooth = 0;
x = 507;
y = 0;
},
{
segmentType = line;
smooth = 0;
x = 561;
y = 0;
},
{
segmentType = line;
smooth = 0;
x = 561;
y = 846;
},
{
segmentType = line;
smooth = 0;
x = 507;
y = 846;
}
);
},
{
points = (
{
smooth = 0;
x = 105;
y = 78;
},
{
smooth = 0;
x = 202;
y = "-17";
},
{
segmentType = curve;
smooth = 1;
x = 343;
y = "-17";
},
{
smooth = 0;
x = 414;
y = "-17";
},
{
smooth = 0;
x = 485;
y = 30;
},
{
segmentType = curve;
smooth = 0;
x = 535;
y = 85;
},
{
segmentType = line;
smooth = 0;
x = 535;
y = 139;
},
{
smooth = 0;
x = 484;
y = 83;
},
{
smooth = 0;
x = 418;
y = 37;
},
{
segmentType = curve;
smooth = 1;
x = 343;
y = 37;
},
{
smooth = 0;
x = 223;
y = 37;
},
{
smooth = 0;
x = 161;
y = 119;
},
{
segmentType = curve;
smooth = 0;
x = 161;
y = 273;
},
{
smooth = 0;
x = 161;
y = 426;
},
{
smooth = 0;
x = 223;
y = 508;
},
{
segmentType = curve;
smooth = 1;
x = 343;
y = 508;
},
{
smooth = 0;
x = 418;
y = 508;
},
{
smooth = 0;
x = 484;
y = 462;
},
{
segmentType = curve;
smooth = 0;
x = 535;
y = 406;
},
{
segmentType = line;
smooth = 0;
x = 535;
y = 460;
},
{
smooth = 0;
x = 485;
y = 515;
},
{
smooth = 0;
x = 414;
y = 562;
},
{
segmentType = curve;
smooth = 1;
x = 343;
y = 562;
},
{
smooth = 0;
x = 202;
y = 562;
},
{
smooth = 0;
x = 105;
y = 467;
},
{
segmentType = curve;
smooth = 0;
x = 105;
y = 273;
}
);
}
);
lib = {
};
name = d;
unicodes = (
);
width = 691;
};
};
com.typemytype.robofont.mark = (
0,
1,
0,
1
);
};
},
{
color = (255,255,0,1);
glyphname = eth;
lastChange = "2015-02-28 18:39:27 +0000";
layers = (
{
layerId = "BE6E37CB-569E-4B40-A59A-BD6EE6EB60D7";
name = Bold;
paths = (
{
closed = 1;
nodes = (
"536 -17 OFFCURVE",
"638 120 OFFCURVE",
"638 325 CURVE SMOOTH",
"638 568 OFFCURVE",
"518 744 OFFCURVE",
"326 862 CURVE",
"185 743 LINE",
"362 646 OFFCURVE",
"462 503 OFFCURVE",
"462 313 CURVE SMOOTH",
"462 198 OFFCURVE",
"414 137 OFFCURVE",
"337 137 CURVE SMOOTH",
"266 137 OFFCURVE",
"211 172 OFFCURVE",
"211 276 CURVE SMOOTH",
"211 392 OFFCURVE",
"276 418 OFFCURVE",
"336 418 CURVE SMOOTH",
"416 418 OFFCURVE",
"483 361 OFFCURVE",
"525 316 CURVE",
"525 450 LINE",
"463 519 OFFCURVE",
"380 572 OFFCURVE",
"289 572 CURVE SMOOTH",
"161 572 OFFCURVE",
"35 494 OFFCURVE",
"35 276 CURVE SMOOTH",
"35 81 OFFCURVE",
"155 -17 OFFCURVE",
"337 -17 CURVE SMOOTH"
);
},
{
closed = 1;
nodes = (
"533 785 LINE",
"460 874 LINE",
"193 669 LINE",
"264 582 LINE"
);
}
);
width = 673;
},
{
layerId = "817DDDC7-9D97-429D-9F3D-5ABA58537E71";
name = Light;
paths = (
{
closed = 1;
nodes = (
"468 -17 OFFCURVE",
"550 120 OFFCURVE",
"550 313 CURVE SMOOTH",
"550 531 OFFCURVE",
"442 759 OFFCURVE",
"258 862 CURVE",
"227 823 LINE",
"401 727 OFFCURVE",
"496 507 OFFCURVE",
"494 313 CURVE SMOOTH",
"492 133 OFFCURVE",
"423 37 OFFCURVE",
"309 37 CURVE SMOOTH",
"204 37 OFFCURVE",
"123 95 OFFCURVE",
"123 272 CURVE SMOOTH",
"123 465 OFFCURVE",
"219 508 OFFCURVE",
"308 508 CURVE SMOOTH",
"388 508 OFFCURVE",
"455 451 OFFCURVE",
"497 406 CURVE",
"497 460 LINE",
"445 518 OFFCURVE",
"372 562 OFFCURVE",
"308 562 CURVE SMOOTH",
"179 562 OFFCURVE",
"67 485 OFFCURVE",
"67 272 CURVE SMOOTH",
"67 80 OFFCURVE",
"163 -17 OFFCURVE",
"309 -17 CURVE SMOOTH"
);
},
{
closed = 1;
nodes = (
"437 847 LINE",
"402 874 LINE",
"204 689 LINE",
"237 664 LINE"
);
}
);
width = 617;
}
);
unicode = 00F0;
userData = {
com.typemytype.robofont.layerData = {
background = {
anchors = (
);
components = (
);
contours = (
{
points = (
{
smooth = 0;
x = 496;
y = "-17";
},
{
smooth = 0;
x = 578;
y = 120;
},
{
segmentType = curve;
smooth = 1;
x = 578;
y = 313;
},
{
smooth = 0;
x = 578;
y = 531;
},
{
smooth = 0;
x = 470;
y = 759;
},
{
segmentType = curve;
smooth = 0;
x = 286;
y = 862;
},
{
segmentType = line;
smooth = 0;
x = 255;
y = 823;
},
{
smooth = 0;
x = 429;
y = 727;
},
{
smooth = 0;
x = 524;
y = 507;
},
{
segmentType = curve;
smooth = 1;
x = 522;
y = 313;
},
{
smooth = 0;
x = 520;
y = 133;
},
{
smooth = 0;
x = 451;
y = 37;
},
{
segmentType = curve;
smooth = 1;
x = 337;
y = 37;
},
{
smooth = 0;
x = 232;
y = 37;
},
{
smooth = 0;
x = 151;
y = 95;
},
{
segmentType = curve;
smooth = 1;
x = 151;
y = 272;
},
{
smooth = 0;
x = 151;
y = 465;
},
{
smooth = 0;
x = 247;
y = 508;
},
{
segmentType = curve;
smooth = 1;
x = 336;
y = 508;
},
{
smooth = 0;
x = 416;
y = 508;
},
{
smooth = 0;
x = 483;
y = 451;
},
{
segmentType = curve;
smooth = 0;
x = 525;
y = 406;
},
{
segmentType = line;
smooth = 0;
x = 525;
y = 460;
},
{
smooth = 0;
x = 473;
y = 518;
},
{
smooth = 0;
x = 400;
y = 562;
},
{
segmentType = curve;
smooth = 1;
x = 336;
y = 562;
},
{
smooth = 0;
x = 207;
y = 562;
},
{
smooth = 0;
x = 95;
y = 485;
},
{
segmentType = curve;
smooth = 1;
x = 95;
y = 272;
},
{
smooth = 0;
x = 95;
y = 80;
},
{
smooth = 0;
x = 191;
y = "-17";
},
{
segmentType = curve;
smooth = 1;
x = 337;
y = "-17";
}
);
},
{
points = (
{
segmentType = line;
smooth = 0;
x = 465;
y = 847;
},
{
segmentType = line;
smooth = 0;
x = 430;
y = 874;
},
{
segmentType = line;
smooth = 0;
x = 232;
y = 689;
},
{
segmentType = line;
smooth = 0;
x = 265;
y = 664;
}
);
}
);
lib = {
};
name = eth;
unicodes = (
);
width = 673;
};
};
com.typemytype.robofont.mark = (
1,
1,
0,
1
);
};
},
{
color = (255,255,0,1);
glyphname = dcroat;
lastChange = "2015-02-28 18:39:27 +0000";
layers = (
{
components = (
{
name = d;
}
);
layerId = "BE6E37CB-569E-4B40-A59A-BD6EE6EB60D7";
name = Bold;
paths = (
{
closed = 1;
nodes = (
"691 626 LINE",
"691 754 LINE",
"290 754 LINE",
"290 626 LINE"
);
}
);
width = 691;
},
{
components = (
{
name = d;
}
);
layerId = "817DDDC7-9D97-429D-9F3D-5ABA58537E71";
name = Light;
paths = (
{
closed = 1;
nodes = (
"586 666 LINE",
"586 714 LINE",
"285 714 LINE",
"285 666 LINE"
);
}
);
width = 623;
}
);
unicode = 0111;
userData = {
com.typemytype.robofont.layerData = {
background = {
anchors = (
);
components = (
);
contours = (
);
lib = {
};
name = dcroat;
unicodes = (
);
width = 691;
};
};
com.typemytype.robofont.mark = (
1,
1,
0,
1
);
};
},
{
color = (0,255,0,1);
glyphname = e;
lastChange = "2015-02-28 18:39:26 +0000";
layers = (
{
anchors = (
{
name = accent;
position = "{315, 600}";
},
{
name = ogonek;
position = "{417, 0}";
}
);
layerId = "BE6E37CB-569E-4B40-A59A-BD6EE6EB60D7";
name = Bold;
paths = (
{
closed = 1;
nodes = (
"436 -17 OFFCURVE",
"499 -5 OFFCURVE",
"570 35 CURVE",
"525 169 LINE",
"464 139 OFFCURVE",
"421 127 OFFCURVE",
"369 127 CURVE",
"246 127 OFFCURVE",
"216 200 OFFCURVE",
"216 285 CURVE SMOOTH",
"216 404 OFFCURVE",
"254 438 OFFCURVE",
"313 438 CURVE SMOOTH",
"372 438 OFFCURVE",
"399 406 OFFCURVE",
"399 328 CURVE SMOOTH",
"399 229 LINE",
"580 229 LINE",
"580 298 LINE SMOOTH",
"580 488 OFFCURVE",
"475 582 OFFCURVE",
"313 582 CURVE SMOOTH",
"160 582 OFFCURVE",
"35 479 OFFCURVE",
"35 284 CURVE SMOOTH",
"35 106 OFFCURVE",
"143 -17 OFFCURVE",
"345 -17 CURVE"
);
},
{
closed = 1;
nodes = (
"475 229 LINE",
"475 358 LINE",
"136 358 LINE",
"136 229 LINE"
);
}
);
width = 610;
},
{
anchors = (
{
name = accent;
position = "{305, 546}";
},
{
name = ogonek;
position = "{387, 0}";
}
);
layerId = "817DDDC7-9D97-429D-9F3D-5ABA58537E71";
name = Light;
paths = (
{
closed = 1;
nodes = (
"388 -17 OFFCURVE",
"451 -1 OFFCURVE",
"508 28 CURVE",
"488 78 LINE",
"435 54 OFFCURVE",
"380 37 OFFCURVE",
"325 37 CURVE",
"176 37 OFFCURVE",
"123 145 OFFCURVE",
"123 275 CURVE SMOOTH",
"123 434 OFFCURVE",
"195 508 OFFCURVE",
"305 508 CURVE SMOOTH",
"416 508 OFFCURVE",
"466 446 OFFCURVE",
"466 310 CURVE",
"466 289 LINE",
"522 289 LINE",
"522 310 LINE",
"521 475 OFFCURVE",
"437 562 OFFCURVE",
"305 562 CURVE SMOOTH",
"173 562 OFFCURVE",
"67 463 OFFCURVE",
"67 274 CURVE SMOOTH",
"67 102 OFFCURVE",
"156 -17 OFFCURVE",
"325 -17 CURVE"
);
},
{
closed = 1;
nodes = (
"477 289 LINE",
"477 343 LINE",
"108 343 LINE",
"108 289 LINE"
);
}
);
width = 572;
}
);
unicode = 0065;
userData = {
com.typemytype.robofont.layerData = {
background = {
anchors = (
{
name = accent;
x = 328;
y = 546;
},
{
name = accent;
x = 328;
y = 546;
},
{
name = accent;
x = 328;
y = 546;
},
{
name = accent;
x = 328;
y = 546;
}
);
components = (
);
contours = (
{
points = (
{
smooth = 0;
x = "-1571";
y = 37;
},
{
smooth = 0;
x = "-1624";
y = 145;
},
{
segmentType = curve;
smooth = 1;
x = "-1624";
y = 275;
},
{
smooth = 0;
x = "-1624";
y = 434;
},
{
smooth = 0;
x = "-1552";
y = 508;
},
{
segmentType = curve;
smooth = 1;
x = "-1442";
y = 508;
},
{
smooth = 0;
x = "-1331";
y = 508;
},
{
smooth = 0;
x = "-1281";
y = 446;
},
{
segmentType = curve;
smooth = 0;
x = "-1281";
y = 310;
},
{
segmentType = line;
smooth = 0;
x = "-1281";
y = 289;
},
{
segmentType = line;
smooth = 0;
x = "-1225";
y = 289;
},
{
segmentType = line;
smooth = 0;
x = "-1225";
y = 310;
},
{
smooth = 0;
x = "-1226";
y = 475;
},
{
smooth = 0;
x = "-1310";
y = 562;
},
{
segmentType = curve;
smooth = 1;
x = "-1442";
y = 562;
},
{
smooth = 0;
x = "-1574";
y = 562;
},
{
smooth = 0;
x = "-1680";
y = 463;
},
{
segmentType = curve;
smooth = 1;
x = "-1680";
y = 274;
},
{
smooth = 0;
x = "-1680";
y = 102;
},
{
smooth = 0;
x = "-1591";
y = "-17";
},
{
segmentType = curve;
smooth = 0;
x = "-1422";
y = "-17";
},
{
smooth = 0;
x = "-1359";
y = "-17";
},
{
smooth = 0;
x = "-1296";
y = "-1";
},
{
segmentType = curve;
smooth = 0;
x = "-1239";
y = 28;
},
{
segmentType = line;
smooth = 0;
x = "-1259";
y = 78;
},
{
smooth = 0;
x = "-1312";
y = 54;
},
{
smooth = 0;
x = "-1367";
y = 37;
},
{
segmentType = curve;
smooth = 0;
x = "-1422";
y = 37;
}
);
},
{
points = (
{
segmentType = line;
smooth = 0;
x = "-1639";
y = 289;
},
{
segmentType = line;
smooth = 0;
x = "-1270";
y = 289;
},
{
segmentType = line;
smooth = 0;
x = "-1270";
y = 343;
},
{
segmentType = line;
smooth = 0;
x = "-1639";
y = 343;
}
);
},
{
points = (
{
smooth = 0;
x = "-999";
y = 37;
},
{
smooth = 0;
x = "-1052";
y = 145;
},
{
segmentType = curve;
smooth = 1;
x = "-1052";
y = 275;
},
{
smooth = 0;
x = "-1052";
y = 434;
},
{
smooth = 0;
x = "-980";
y = 508;
},
{
segmentType = curve;
smooth = 1;
x = "-870";
y = 508;
},
{
smooth = 0;
x = "-759";
y = 508;
},
{
smooth = 0;
x = "-709";
y = 446;
},
{
segmentType = curve;
smooth = 0;
x = "-709";
y = 310;
},
{
segmentType = line;
smooth = 0;
x = "-709";
y = 289;
},
{
segmentType = line;
smooth = 0;
x = "-653";
y = 289;
},
{
segmentType = line;
smooth = 0;
x = "-653";
y = 310;
},
{
smooth = 0;
x = "-654";
y = 475;
},
{
smooth = 0;
x = "-738";
y = 562;
},
{
segmentType = curve;
smooth = 1;
x = "-870";
y = 562;
},
{
smooth = 0;
x = "-1002";
y = 562;
},
{
smooth = 0;
x = "-1108";
y = 463;
},
{
segmentType = curve;
smooth = 1;
x = "-1108";
y = 274;
},
{
smooth = 0;
x = "-1108";
y = 102;
},
{
smooth = 0;
x = "-1019";
y = "-17";
},
{
segmentType = curve;
smooth = 0;
x = "-850";
y = "-17";
},
{
smooth = 0;
x = "-787";
y = "-17";
},
{
smooth = 0;
x = "-724";
y = "-1";
},
{
segmentType = curve;
smooth = 0;
x = "-667";
y = 28;
},
{
segmentType = line;
smooth = 0;
x = "-687";
y = 78;
},
{
smooth = 0;
x = "-740";
y = 54;
},
{
smooth = 0;
x = "-795";
y = 37;
},
{
segmentType = curve;
smooth = 0;
x = "-850";
y = 37;
}
);
},
{
points = (
{
segmentType = line;
smooth = 0;
x = "-1067";
y = 289;
},
{
segmentType = line;
smooth = 0;
x = "-698";
y = 289;
},
{
segmentType = line;
smooth = 0;
x = "-698";
y = 343;
},
{
segmentType = line;
smooth = 0;
x = "-1067";
y = 343;
}
);
},
{
points = (
{
smooth = 0;
x = "-320";
y = 131;
},
{
smooth = 0;
x = "-353";
y = 175;
},
{
segmentType = curve;
smooth = 0;
x = "-353";
y = 260;
},
{
segmentType = line;
smooth = 1;
x = "-353";
y = 324;
},
{
smooth = 0;
x = "-353";
y = 0;
},
{
smooth = 0;
x = "-319";
y = 412;
},
{
segmentType = curve;
smooth = 1;
x = "-276";
y = 412;
},
{
smooth = 0;
x = "-233";
y = 412;
},
{
smooth = 0;
x = "-200";
y = 0;
},
{
segmentType = curve;
smooth = 1;
x = "-200";
y = 324;
},
{
segmentType = line;
smooth = 0;
x = "-200";
y = 219;
},
{
segmentType = line;
smooth = 0;
x = "-4";
y = 219;
},
{
segmentType = line;
smooth = 1;
x = "-4";
y = 293;
},
{
smooth = 0;
x = "-4";
y = 1.127991904;
},
{
smooth = 0;
x = "-126";
y = 562;
},
{
segmentType = curve;
smooth = 1;
x = "-277";
y = 562;
},
{
smooth = 0;
x = "-427";
y = 562;
},
{
smooth = 0;
x = "-549";
y = 468;
},
{
segmentType = curve;
smooth = 1;
x = "-549";
y = 274;
},
{
smooth = 0;
x = "-549";
y = 102;
},
{
smooth = 0;
x = "-454";
y = "-17";
},
{
segmentType = curve;
smooth = 0;
x = "-246";
y = "-17";
},
{
smooth = 0;
x = "-168";
y = "-17";
},
{
smooth = 0;
x = "-90";
y = 4;
},
{
segmentType = curve;
smooth = 0;
x = "-20";
y = 46;
},
{
segmentType = line;
smooth = 0;
x = "-75";
y = 180;
},
{
smooth = 0;
x = "-127";
y = 151;
},
{
smooth = 0;
x = "-176";
y = 131;
},
{
segmentType = curve;
smooth = 0;
x = "-227";
y = 131;
}
);
},
{
points = (
{
segmentType = line;
smooth = 0;
x = "-458";
y = 219;
},
{
segmentType = line;
smooth = 0;
x = "-99";
y = 219;
},
{
segmentType = line;
smooth = 0;
x = "-99";
y = 343;
},
{
segmentType = line;
smooth = 0;
x = "-458";
y = 343;
}
);
},
{
points = (
{
smooth = 0;
x = 199;
y = 37;
},
{
smooth = 0;
x = 146;
y = 145;
},
{
segmentType = curve;
smooth = 1;
x = 146;
y = 275;
},
{
smooth = 0;
x = 146;
y = 434;
},
{
smooth = 0;
x = 218;
y = 508;
},
{
segmentType = curve;
smooth = 1;
x = 328;
y = 508;
},
{
smooth = 0;
x = 439;
y = 508;
},
{
smooth = 0;
x = 489;
y = 446;
},
{
segmentType = curve;
smooth = 0;
x = 489;
y = 310;
},
{
segmentType = line;
smooth = 0;
x = 489;
y = 289;
},
{
segmentType = line;
smooth = 0;
x = 545;
y = 289;
},
{
segmentType = line;
smooth = 0;
x = 545;
y = 310;
},
{
smooth = 0;
x = 544;
y = 475;
},
{
smooth = 0;
x = 460;
y = 562;
},
{
segmentType = curve;
smooth = 1;
x = 328;
y = 562;
},
{
smooth = 0;
x = 196;
y = 562;
},
{
smooth = 0;
x = 90;
y = 463;
},
{
segmentType = curve;
smooth = 1;
x = 90;
y = 274;
},
{
smooth = 0;
x = 90;
y = 102;
},
{
smooth = 0;
x = 179;
y = "-17";
},
{
segmentType = curve;
smooth = 0;
x = 348;
y = "-17";
},
{
smooth = 0;
x = 411;
y = "-17";
},
{
smooth = 0;
x = 474;
y = "-1";
},
{
segmentType = curve;
smooth = 0;
x = 531;
y = 28;
},
{
segmentType = line;
smooth = 0;
x = 511;
y = 78;
},
{
smooth = 0;
x = 458;
y = 54;
},
{
smooth = 0;
x = 403;
y = 37;
},
{
segmentType = curve;
smooth = 0;
x = 348;
y = 37;
}
);
},
{
points = (
{
segmentType = line;
smooth = 0;
x = 131;
y = 289;
},
{
segmentType = line;
smooth = 0;
x = 500;
y = 289;
},
{
segmentType = line;
smooth = 0;
x = 500;
y = 343;
},
{
segmentType = line;
smooth = 0;
x = 131;
y = 343;
}
);
}
);
lib = {
};
name = e;
unicodes = (
);
width = 610;
};
};
com.typemytype.robofont.mark = (
0,
1,
0,
1
);
};
},
{
glyphname = eogonek;
lastChange = "2015-02-28 18:39:27 +0000";
layers = (
{
components = (
{
name = e;
}
);
layerId = "BE6E37CB-569E-4B40-A59A-BD6EE6EB60D7";
name = Bold;
paths = (
{
closed = 1;
nodes = (
"430 -263 OFFCURVE",
"458 -258 OFFCURVE",
"485 -249 CURVE",
"485 -154 LINE",
"467 -162 OFFCURVE",
"449 -166 OFFCURVE",
"432 -166 CURVE SMOOTH",
"407 -166 OFFCURVE",
"392 -156 OFFCURVE",
"392 -131 CURVE SMOOTH",
"392 -88 OFFCURVE",
"431 -42 OFFCURVE",
"485 0 CURVE",
"350 0 LINE",
"287 -49 OFFCURVE",
"261 -107 OFFCURVE",
"261 -160 CURVE SMOOTH",
"261 -224 OFFCURVE",
"306 -263 OFFCURVE",
"403 -263 CURVE"
);
}
);
width = 610;
},
{
components = (
{
name = e;
}
);
layerId = "817DDDC7-9D97-429D-9F3D-5ABA58537E71";
name = Light;
paths = (
{
closed = 1;
nodes = (
"439 -223 OFFCURVE",
"456 -220 OFFCURVE",
"474 -212 CURVE",
"474 -164 LINE",
"455 -174 OFFCURVE",
"437 -176 OFFCURVE",
"422 -176 CURVE SMOOTH",
"386 -176 OFFCURVE",
"371 -157 OFFCURVE",
"371 -135 CURVE SMOOTH",
"371 -75 OFFCURVE",
"434 -25 OFFCURVE",
"508 28 CURVE",
"409 0 LINE",
"352 -46 OFFCURVE",
"320 -88 OFFCURVE",
"320 -140 CURVE SMOOTH",
"320 -188 OFFCURVE",
"353 -223 OFFCURVE",
"422 -223 CURVE"
);
}
);
width = 572;
}
);
unicode = 0119;
userData = {
com.typemytype.robofont.layerData = {
background = {
anchors = (
);
components = (
);
contours = (
);
lib = {
};
name = eogonek;
unicodes = (
);
width = 610;
};
};
};
},
{
color = (0,255,0,1);
glyphname = f;
lastChange = "2015-02-28 18:39:26 +0000";
layers = (
{
layerId = "BE6E37CB-569E-4B40-A59A-BD6EE6EB60D7";
name = Bold;
paths = (
{
closed = 1;
nodes = (
"272 0 LINE",
"272 645 LINE SMOOTH",
"272 689 OFFCURVE",
"284 705 OFFCURVE",
"323 705 CURVE SMOOTH",
"348 705 OFFCURVE",
"366 702 OFFCURVE",
"382 697 CURVE",
"382 845 LINE",
"344 853 OFFCURVE",
"313 859 OFFCURVE",
"274 859 CURVE SMOOTH",
"153 859 OFFCURVE",
"98 803 OFFCURVE",
"98 708 CURVE SMOOTH",
"98 0 LINE"
);
},
{
closed = 1;
nodes = (
"382 412 LINE",
"382 566 LINE",
"30 566 LINE",
"30 412 LINE"
);
}
);
width = 407;
},
{
layerId = "817DDDC7-9D97-429D-9F3D-5ABA58537E71";
name = Light;
paths = (
{
closed = 1;
nodes = (
"163 0 LINE",
"163 732 LINE SMOOTH",
"163 789 OFFCURVE",
"177 805 OFFCURVE",
"227 805 CURVE SMOOTH",
"242 805 OFFCURVE",
"258 804 OFFCURVE",
"273 801 CURVE",
"273 855 LINE",
"258 858 OFFCURVE",
"243 859 OFFCURVE",
"232 859 CURVE SMOOTH",
"144 859 OFFCURVE",
"109 833 OFFCURVE",
"109 738 CURVE SMOOTH",
"109 0 LINE"
);
},
{
closed = 1;
nodes = (
"273 492 LINE",
"273 546 LINE",
"41 546 LINE",
"41 492 LINE"
);
}
);
width = 298;
}
);
unicode = 0066;
userData = {
com.typemytype.robofont.layerData = {
background = {
anchors = (
{
name = accent;
x = 281;
y = 845;
}
);
components = (
);
contours = (
{
points = (
{
smooth = 0;
x = 193;
y = 859;
},
{
smooth = 0;
x = 158;
y = 833;
},
{
segmentType = curve;
smooth = 1;
x = 158;
y = 738;
},
{
segmentType = line;
smooth = 0;
x = 158;
y = 0;
},
{
segmentType = line;
smooth = 0;
x = 212;
y = 0;
},
{
segmentType = line;
smooth = 1;
x = 212;
y = 732;
},
{
smooth = 0;
x = 212;
y = 789;
},
{
smooth = 0;
x = 226;
y = 805;
},
{
segmentType = curve;
smooth = 1;
x = 276;
y = 805;
},
{
smooth = 0;
x = 291;
y = 805;
},
{
smooth = 0;
x = 307;
y = 804;
},
{
segmentType = curve;
smooth = 0;
x = 322;
y = 801;
},
{
segmentType = line;
smooth = 0;
x = 322;
y = 855;
},
{
smooth = 0;
x = 307;
y = 858;
},
{
smooth = 0;
x = 292;
y = 859;
},
{
segmentType = curve;
smooth = 1;
x = 281;
y = 859;
}
);
},
{
points = (
{
segmentType = line;
smooth = 0;
x = 90;
y = 492;
},
{
segmentType = line;
smooth = 0;
x = 322;
y = 492;
},
{
segmentType = line;
smooth = 0;
x = 322;
y = 546;
},
{
segmentType = line;
smooth = 0;
x = 90;
y = 546;
}
);
}
);
lib = {
};
name = f;
unicodes = (
);
width = 407;
};
};
com.typemytype.robofont.mark = (
0,
1,
0,
1
);
};
},
{
color = (0,255,0,1);
glyphname = g;
lastChange = "2015-02-28 18:39:26 +0000";
layers = (
{
anchors = (
{
name = accent;
position = "{343, 600}";
}
);
layerId = "BE6E37CB-569E-4B40-A59A-BD6EE6EB60D7";
name = Bold;
paths = (
{
closed = 1;
nodes = (
"524 -251 OFFCURVE",
"616 -141 OFFCURVE",
"616 2 CURVE SMOOTH",
"616 566 LINE",
"442 566 LINE",
"442 12 LINE SMOOTH",
"442 -57 OFFCURVE",
"401 -97 OFFCURVE",
"298 -97 CURVE SMOOTH",
"249 -97 OFFCURVE",
"171 -87 OFFCURVE",
"94 -55 CURVE",
"94 -215 LINE",
"169 -243 OFFCURVE",
"251 -251 OFFCURVE",
"353 -251 CURVE SMOOTH"
);
},
{
closed = 1;
nodes = (
"387 3 OFFCURVE",
"463 62 OFFCURVE",
"530 145 CURVE",
"530 279 LINE",
"472 215 OFFCURVE",
"407 157 OFFCURVE",
"328 157 CURVE SMOOTH",
"251 157 OFFCURVE",
"211 189 OFFCURVE",
"211 293 CURVE",
"211 381 OFFCURVE",
"251 428 OFFCURVE",
"328 428 CURVE SMOOTH",
"407 428 OFFCURVE",
"472 370 OFFCURVE",
"530 306 CURVE",
"530 440 LINE",
"463 523 OFFCURVE",
"387 582 OFFCURVE",
"290 582 CURVE SMOOTH",
"141 582 OFFCURVE",
"30 486 OFFCURVE",
"30 293 CURVE",
"30 84 OFFCURVE",
"141 3 OFFCURVE",
"290 3 CURVE SMOOTH"
);
}
);
width = 686;
},
{
anchors = (
{
name = accent;
position = "{305, 546}";
}
);
layerId = "817DDDC7-9D97-429D-9F3D-5ABA58537E71";
name = Light;
paths = (
{
closed = 1;
nodes = (
"495.576 -251 OFFCURVE",
"523 -150 OFFCURVE",
"523 -18 CURVE SMOOTH",
"523 546 LINE",
"469 546 LINE",
"469 -8 LINE SMOOTH",
"469 -125.5 OFFCURVE",
"458.649 -197 OFFCURVE",
"285 -197 CURVE SMOOTH",
"232 -197 OFFCURVE",
"175 -181 OFFCURVE",
"121 -155 CURVE",
"121 -215 LINE",
"182 -241 OFFCURVE",
"226 -251 OFFCURVE",
"300 -251 CURVE SMOOTH"
);
},
{
closed = 1;
nodes = (
"376 3 OFFCURVE",
"447 50 OFFCURVE",
"497 105 CURVE",
"497 159 LINE",
"446 103 OFFCURVE",
"380 57 OFFCURVE",
"305 57 CURVE SMOOTH",
"185 57 OFFCURVE",
"123 145 OFFCURVE",
"123 283 CURVE",
"123 419 OFFCURVE",
"184.812 508 OFFCURVE",
"305 508 CURVE SMOOTH",
"380 508 OFFCURVE",
"446 462 OFFCURVE",
"497 406 CURVE",
"497 460 LINE",
"447 515 OFFCURVE",
"376 562 OFFCURVE",
"305 562 CURVE SMOOTH",
"164.452 562 OFFCURVE",
"67 470 OFFCURVE",
"67 283 CURVE",
"67 105 OFFCURVE",
"164 3 OFFCURVE",
"305 3 CURVE SMOOTH"
);
}
);
width = 600;
}
);
unicode = 0067;
userData = {
com.typemytype.robofont.layerData = {
background = {
anchors = (
{
name = accent;
x = 308;
y = 546;
}
);
components = (
);
contours = (
{
points = (
{
smooth = 0;
x = 499;
y = "-251";
},
{
smooth = 0;
x = 526;
y = "-150";
},
{
segmentType = curve;
smooth = 1;
x = 526;
y = "-18";
},
{
segmentType = line;
smooth = 0;
x = 526;
y = 546;
},
{
segmentType = line;
smooth = 0;
x = 472;
y = 546;
},
{
segmentType = line;
smooth = 1;
x = 472;
y = "-8";
},
{
smooth = 0;
x = 472;
y = "-126";
},
{
smooth = 0;
x = 462;
y = "-197";
},
{
segmentType = curve;
smooth = 1;
x = 288;
y = "-197";
},
{
smooth = 0;
x = 235;
y = "-197";
},
{
smooth = 0;
x = 178;
y = "-181";
},
{
segmentType = curve;
smooth = 0;
x = 124;
y = "-155";
},
{
segmentType = line;
smooth = 0;
x = 124;
y = "-215";
},
{
smooth = 0;
x = 185;
y = "-241";
},
{
smooth = 0;
x = 229;
y = "-251";
},
{
segmentType = curve;
smooth = 1;
x = 303;
y = "-251";
}
);
},
{
points = (
{
smooth = 0;
x = 70;
y = 105;
},
{
smooth = 0;
x = 167;
y = 3;
},
{
segmentType = curve;
smooth = 1;
x = 308;
y = 3;
},
{
smooth = 0;
x = 379;
y = 3;
},
{
smooth = 0;
x = 450;
y = 50;
},
{
segmentType = curve;
smooth = 0;
x = 500;
y = 105;
},
{
segmentType = line;
smooth = 0;
x = 500;
y = 159;
},
{
smooth = 0;
x = 449;
y = 103;
},
{
smooth = 0;
x = 383;
y = 57;
},
{
segmentType = curve;
smooth = 1;
x = 308;
y = 57;
},
{
smooth = 0;
x = 188;
y = 57;
},
{
smooth = 0;
x = 126;
y = 145;
},
{
segmentType = curve;
smooth = 0;
x = 126;
y = 283;
},
{
smooth = 0;
x = 126;
y = 419;
},
{
smooth = 0;
x = 188;
y = 508;
},
{
segmentType = curve;
smooth = 1;
x = 308;
y = 508;
},
{
smooth = 0;
x = 383;
y = 508;
},
{
smooth = 0;
x = 449;
y = 462;
},
{
segmentType = curve;
smooth = 0;
x = 500;
y = 406;
},
{
segmentType = line;
smooth = 0;
x = 500;
y = 460;
},
{
smooth = 0;
x = 450;
y = 515;
},
{
smooth = 0;
x = 379;
y = 562;
},
{
segmentType = curve;
smooth = 1;
x = 308;
y = 562;
},
{
smooth = 0;
x = 167;
y = 562;
},
{
smooth = 0;
x = 70;
y = 470;
},
{
segmentType = curve;
smooth = 0;
x = 70;
y = 283;
}
);
}
);
lib = {
};
name = g;
unicodes = (
);
width = 686;
};
};
com.typemytype.robofont.mark = (
0,
1,
0,
1
);
};
},
{
color = (0,255,0,1);
glyphname = h;
lastChange = "2015-02-28 18:39:27 +0000";
layers = (
{
anchors = (
{
name = accent;
position = "{155, 900}";
}
);
layerId = "BE6E37CB-569E-4B40-A59A-BD6EE6EB60D7";
name = Bold;
paths = (
{
closed = 1;
nodes = (
"627 0 LINE",
"627 340 LINE SMOOTH",
"627 508 OFFCURVE",
"550 578 OFFCURVE",
"402 578 CURVE SMOOTH",
"308 578 OFFCURVE",
"239 533 OFFCURVE",
"156 431 CURVE",
"156 287 LINE",
"227 370 OFFCURVE",
"289 424 OFFCURVE",
"363 424 CURVE SMOOTH",
"431 424 OFFCURVE",
"453 391 OFFCURVE",
"453 340 CURVE SMOOTH",
"453 0 LINE"
);
},
{
closed = 1;
nodes = (
"244 0 LINE",
"244 846 LINE",
"70 846 LINE",
"70 0 LINE"
);
}
);
width = 692;
},
{
anchors = (
{
name = accent;
position = "{328, 546}";
}
);
layerId = "817DDDC7-9D97-429D-9F3D-5ABA58537E71";
name = Light;
paths = (
{
closed = 1;
nodes = (
"517 0 LINE",
"517 330 LINE SMOOTH",
"517 499 OFFCURVE",
"454 558 OFFCURVE",
"328 558 CURVE SMOOTH",
"253 558 OFFCURVE",
"176 509 OFFCURVE",
"126 451 CURVE",
"126 397 LINE",
"177 456 OFFCURVE",
"249 504 OFFCURVE",
"328 504 CURVE SMOOTH",
"430 504 OFFCURVE",
"463 458 OFFCURVE",
"463 330 CURVE SMOOTH",
"463 0 LINE"
);
},
{
closed = 1;
nodes = (
"154 0 LINE",
"154 846 LINE",
"100 846 LINE",
"100 0 LINE"
);
}
);
width = 612;
}
);
unicode = 0068;
userData = {
com.typemytype.robofont.layerData = {
background = {
anchors = (
{
name = bottomaccent;
x = 343;
y = 0;
},
{
name = accent;
x = 338;
y = 546;
},
{
name = accent;
x = 358;
y = 546;
},
{
name = accent;
x = 358;
y = 546;
},
{
name = bottomaccent;
x = 343;
y = 0;
},
{
name = accent;
x = 338;
y = 546;
}
);
components = (
);
contours = (
{
points = (
{
smooth = 0;
x = "-941";
y = 558;
},
{
smooth = 0;
x = "-1018";
y = 509;
},
{
segmentType = curve;
smooth = 0;
x = "-1068";
y = 451;
},
{
segmentType = line;
smooth = 0;
x = "-1068";
y = 397;
},
{
smooth = 0;
x = "-1017";
y = 456;
},
{
smooth = 0;
x = "-945";
y = 504;
},
{
segmentType = curve;
smooth = 1;
x = "-866";
y = 504;
},
{
smooth = 0;
x = "-764";
y = 504;
},
{
smooth = 0;
x = "-731";
y = 458;
},
{
segmentType = curve;
smooth = 1;
x = "-731";
y = 330;
},
{
segmentType = line;
smooth = 0;
x = "-731";
y = 0;
},
{
segmentType = line;
smooth = 0;
x = "-677";
y = 0;
},
{
segmentType = line;
smooth = 1;
x = "-677";
y = 330;
},
{
smooth = 0;
x = "-677";
y = 499;
},
{
smooth = 0;
x = "-740";
y = 558;
},
{
segmentType = curve;
smooth = 1;
x = "-866";
y = 558;
}
);
},
{
points = (
{
segmentType = line;
smooth = 0;
x = "-1094";
y = 546;
},
{
segmentType = line;
smooth = 0;
x = "-1094";
y = 0;
},
{
segmentType = line;
smooth = 0;
x = "-1040";
y = 0;
},
{
segmentType = line;
smooth = 0;
x = "-1040";
y = 546;
}
);
},
{
points = (
{
smooth = 0;
x = "-329";
y = 558;
},
{
smooth = 0;
x = "-406";
y = 509;
},
{
segmentType = curve;
smooth = 0;
x = "-456";
y = 451;
},
{
segmentType = line;
smooth = 0;
x = "-456";
y = 397;
},
{
smooth = 0;
x = "-405";
y = 456;
},
{
smooth = 0;
x = "-333";
y = 504;
},
{
segmentType = curve;
smooth = 1;
x = "-254";
y = 504;
},
{
smooth = 0;
x = "-152";
y = 504;
},
{
smooth = 0;
x = "-119";
y = 458;
},
{
segmentType = curve;
smooth = 1;
x = "-119";
y = 330;
},
{
segmentType = line;
smooth = 0;
x = "-119";
y = 0;
},
{
segmentType = line;
smooth = 0;
x = "-65";
y = 0;
},
{
segmentType = line;
smooth = 1;
x = "-65";
y = 330;
},
{
smooth = 0;
x = "-65";
y = 499;
},
{
smooth = 0;
x = "-128";
y = 558;
},
{
segmentType = curve;
smooth = 1;
x = "-254";
y = 558;
}
);
},
{
points = (
{
segmentType = line;
smooth = 0;
x = "-482";
y = 846;
},
{
segmentType = line;
smooth = 0;
x = "-482";
y = 0;
},
{
segmentType = line;
smooth = 0;
x = "-428";
y = 0;
},
{
segmentType = line;
smooth = 0;
x = "-428";
y = 846;
}
);
},
{
points = (
{
smooth = 0;
x = 327;
y = 558;
},
{
smooth = 0;
x = 247;
y = 511;
},
{
segmentType = curve;
smooth = 0;
x = 196;
y = 451;
},
{
segmentType = line;
smooth = 0;
x = 196;
y = 287;
},
{
smooth = 0;
x = 244;
y = 342;
},
{
smooth = 0;
x = 299;
y = 394;
},
{
segmentType = curve;
smooth = 1;
x = 365;
y = 394;
},
{
smooth = 0;
x = 409;
y = 394;
},
{
smooth = 0;
x = 423;
y = 372;
},
{
segmentType = curve;
smooth = 1;
x = 423;
y = 310;
},
{
segmentType = line;
smooth = 0;
x = 423;
y = 0;
},
{
segmentType = line;
smooth = 0;
x = 617;
y = 0;
},
{
segmentType = line;
smooth = 1;
x = 617;
y = 330;
},
{
smooth = 0;
x = 617;
y = 499;
},
{
smooth = 0;
x = 538;
y = 558;
},
{
segmentType = curve;
smooth = 1;
x = 412;
y = 558;
}
);
},
{
points = (
{
segmentType = line;
smooth = 0;
x = 60;
y = 846;
},
{
segmentType = line;
smooth = 0;
x = 60;
y = 0;
},
{
segmentType = line;
smooth = 0;
x = 254;
y = 0;
},
{
segmentType = line;
smooth = 0;
x = 254;
y = 846;
}
);
}
);
lib = {
};
name = h;
unicodes = (
);
width = 692;
};
};
com.typemytype.robofont.mark = (
0,
1,
0,
1
);
};
},
{
color = (255,255,0,1);
glyphname = hbar;
lastChange = "2015-02-28 18:39:26 +0000";
layers = (
{
components = (
{
name = h;
}
);
layerId = "BE6E37CB-569E-4B40-A59A-BD6EE6EB60D7";
name = Bold;
paths = (
{
closed = 1;
nodes = (
"398 626 LINE",
"398 754 LINE",
"-3 754 LINE",
"-3 626 LINE"
);
}
);
width = 692;
},
{
components = (
{
name = h;
}
);
layerId = "817DDDC7-9D97-429D-9F3D-5ABA58537E71";
name = Light;
paths = (
{
closed = 1;
nodes = (
"338 666 LINE",
"338 714 LINE",
"37 714 LINE",
"37 666 LINE"
);
}
);
width = 612;
}
);
unicode = 0127;
userData = {
com.typemytype.robofont.layerData = {
background = {
anchors = (
);
components = (
);
contours = (
);
lib = {
};
name = hbar;
unicodes = (
);
width = 692;
};
};
com.typemytype.robofont.mark = (
1,
1,
0,
1
);
};
},
{
color = (0,255,0,1);
glyphname = i;
lastChange = "2015-02-28 18:39:26 +0000";
layers = (
{
anchors = (
{
name = ogonek;
position = "{157, 0}";
}
);
layerId = "BE6E37CB-569E-4B40-A59A-BD6EE6EB60D7";
name = Bold;
paths = (
{
closed = 1;
nodes = (
"244 0 LINE",
"244 566 LINE",
"70 566 LINE",
"70 0 LINE"
);
},
{
closed = 1;
nodes = (
"244 656 LINE",
"244 807 LINE",
"70 807 LINE",
"70 656 LINE"
);
}
);
width = 314;
},
{
anchors = (
{
name = ogonek;
position = "{127, 0}";
}
);
layerId = "817DDDC7-9D97-429D-9F3D-5ABA58537E71";
name = Light;
paths = (
{
closed = 1;
nodes = (
"154 0 LINE",
"154 546 LINE",
"100 546 LINE",
"100 0 LINE"
);
},
{
closed = 1;
nodes = (
"154 657 LINE",
"154 808 LINE",
"100 808 LINE",
"100 657 LINE"
);
}
);
width = 254;
}
);
unicode = 0069;
userData = {
com.typemytype.robofont.layerData = {
background = {
anchors = (
);
components = (
);
contours = (
{
points = (
{
segmentType = line;
smooth = 0;
x = 130;
y = 546;
},
{
segmentType = line;
smooth = 0;
x = 130;
y = 0;
},
{
segmentType = line;
smooth = 0;
x = 184;
y = 0;
},
{
segmentType = line;
smooth = 0;
x = 184;
y = 546;
}
);
},
{
points = (
{
segmentType = line;
smooth = 0;
x = 130;
y = 808;
},
{
segmentType = line;
smooth = 0;
x = 130;
y = 657;
},
{
segmentType = line;
smooth = 0;
x = 184;
y = 657;
},
{
segmentType = line;
smooth = 0;
x = 184;
y = 808;
}
);
}
);
lib = {
};
name = i;
unicodes = (
);
width = 314;
};
};
com.typemytype.robofont.mark = (
0,
1,
0,
1
);
};
},
{
color = (255,255,0,1);
glyphname = idotless;
lastChange = "2015-02-28 18:39:27 +0000";
layers = (
{
anchors = (
{
name = accent;
position = "{157, 600}";
},
{
name = ogonek;
position = "{157, 0}";
}
);
layerId = "BE6E37CB-569E-4B40-A59A-BD6EE6EB60D7";
name = Bold;
paths = (
{
closed = 1;
nodes = (
"244 0 LINE",
"244 566 LINE",
"70 566 LINE",
"70 0 LINE"
);
}
);
width = 314;
},
{
anchors = (
{
name = accent;
position = "{127, 546}";
},
{
name = ogonek;
position = "{127, 0}";
}
);
layerId = "817DDDC7-9D97-429D-9F3D-5ABA58537E71";
name = Light;
paths = (
{
closed = 1;
nodes = (
"154 0 LINE",
"154 546 LINE",
"100 546 LINE",
"100 0 LINE"
);
}
);
width = 254;
}
);
unicode = 0131;
userData = {
com.typemytype.robofont.layerData = {
background = {
anchors = (
);
components = (
);
contours = (
{
points = (
{
segmentType = line;
smooth = 0;
x = 130;
y = 546;
},
{
segmentType = line;
smooth = 0;
x = 130;
y = 0;
},
{
segmentType = line;
smooth = 0;
x = 184;
y = 0;
},
{
segmentType = line;
smooth = 0;
x = 184;
y = 546;
}
);
},
{
points = (
{
segmentType = line;
smooth = 0;
x = 130;
y = 808;
},
{
segmentType = line;
smooth = 0;
x = 130;
y = 657;
},
{
segmentType = line;
smooth = 0;
x = 184;
y = 657;
},
{
segmentType = line;
smooth = 0;
x = 184;
y = 808;
}
);
}
);
lib = {
};
name = idotless;
unicodes = (
);
width = 314;
};
};
com.typemytype.robofont.mark = (
1,
1,
0,
1
);
};
},
{
glyphname = iogonek;
lastChange = "2015-02-28 18:39:26 +0000";
layers = (
{
components = (
{
name = i;
}
);
layerId = "BE6E37CB-569E-4B40-A59A-BD6EE6EB60D7";
name = Bold;
paths = (
{
closed = 1;
nodes = (
"170 -263 OFFCURVE",
"198 -258 OFFCURVE",
"225 -249 CURVE",
"225 -154 LINE",
"207 -162 OFFCURVE",
"189 -166 OFFCURVE",
"172 -166 CURVE SMOOTH",
"147 -166 OFFCURVE",
"132 -156 OFFCURVE",
"132 -131 CURVE SMOOTH",
"132 -88 OFFCURVE",
"171 -42 OFFCURVE",
"225 0 CURVE",
"225 33 LINE",
"90 33 LINE",
"90 0 LINE",
"27 -49 OFFCURVE",
"1 -107 OFFCURVE",
"1 -160 CURVE SMOOTH",
"1 -224 OFFCURVE",
"46 -263 OFFCURVE",
"143 -263 CURVE"
);
}
);
width = 314;
},
{
components = (
{
name = i;
}
);
layerId = "817DDDC7-9D97-429D-9F3D-5ABA58537E71";
name = Light;
paths = (
{
closed = 1;
nodes = (
"119 -223 OFFCURVE",
"136 -220 OFFCURVE",
"154 -212 CURVE",
"154 -164 LINE",
"135 -174 OFFCURVE",
"117 -176 OFFCURVE",
"102 -176 CURVE SMOOTH",
"67 -176 OFFCURVE",
"53 -157 OFFCURVE",
"53 -135 CURVE SMOOTH",
"53 -85 OFFCURVE",
"99 -44 OFFCURVE",
"154 0 CURVE",
"154 10 LINE",
"100 10 LINE",
"100 0 LINE",
"38 -46 OFFCURVE",
"2 -88 OFFCURVE",
"2 -140 CURVE SMOOTH",
"2 -188 OFFCURVE",
"34 -223 OFFCURVE",
"102 -223 CURVE"
);
}
);
width = 254;
}
);
unicode = 012F;
userData = {
com.typemytype.robofont.layerData = {
background = {
anchors = (
);
components = (
);
contours = (
);
lib = {
};
name = iogonek;
unicodes = (
);
width = 314;
};
};
};
},
{
color = (0,255,0,1);
glyphname = j;
lastChange = "2015-02-28 18:39:27 +0000";
layers = (
{
layerId = "BE6E37CB-569E-4B40-A59A-BD6EE6EB60D7";
name = Bold;
paths = (
{
closed = 1;
nodes = (
"189 -250 OFFCURVE",
"244 -194 OFFCURVE",
"244 -99 CURVE SMOOTH",
"244 569 LINE",
"70 569 LINE",
"70 -36 LINE SMOOTH",
"70 -80 OFFCURVE",
"58 -96 OFFCURVE",
"19 -96 CURVE SMOOTH",
"-6 -96 OFFCURVE",
"-24 -93 OFFCURVE",
"-40 -88 CURVE",
"-40 -236 LINE",
"-2 -244 OFFCURVE",
"29 -250 OFFCURVE",
"68 -250 CURVE SMOOTH"
);
},
{
closed = 1;
nodes = (
"244 656 LINE",
"244 807 LINE",
"70 807 LINE",
"70 656 LINE"
);
}
);
width = 314;
},
{
layerId = "817DDDC7-9D97-429D-9F3D-5ABA58537E71";
name = Light;
paths = (
{
closed = 1;
nodes = (
"128 -251 OFFCURVE",
"154 -217 OFFCURVE",
"154 -90 CURVE SMOOTH",
"154 546 LINE",
"100 546 LINE",
"100 -84 LINE SMOOTH",
"100 -178 OFFCURVE",
"86 -197 OFFCURVE",
"36 -197 CURVE SMOOTH",
"21 -197 OFFCURVE",
"5 -196 OFFCURVE",
"-10 -193 CURVE",
"-10 -247 LINE",
"5 -250 OFFCURVE",
"20 -251 OFFCURVE",
"31 -251 CURVE SMOOTH"
);
},
{
closed = 1;
nodes = (
"154 657 LINE",
"154 808 LINE",
"100 808 LINE",
"100 657 LINE"
);
}
);
width = 254;
}
);
unicode = 006A;
userData = {
com.typemytype.robofont.layerData = {
background = {
anchors = (
);
components = (
);
contours = (
);
lib = {
};
name = j;
unicodes = (
);
width = 314;
};
};
com.typemytype.robofont.mark = (
0,
1,
0,
1
);
};
},
{
color = (255,255,0,1);
glyphname = jdotless;
lastChange = "2015-02-28 18:39:26 +0000";
layers = (
{
anchors = (
{
name = accent;
position = "{157, 600}";
}
);
layerId = "BE6E37CB-569E-4B40-A59A-BD6EE6EB60D7";
name = Bold;
paths = (
{
closed = 1;
nodes = (
"189 -250 OFFCURVE",
"244 -194 OFFCURVE",
"244 -99 CURVE SMOOTH",
"244 569 LINE",
"70 569 LINE",
"70 -36 LINE SMOOTH",
"70 -80 OFFCURVE",
"58 -96 OFFCURVE",
"19 -96 CURVE SMOOTH",
"-6 -96 OFFCURVE",
"-24 -93 OFFCURVE",
"-40 -88 CURVE",
"-40 -236 LINE",
"-2 -244 OFFCURVE",
"29 -250 OFFCURVE",
"68 -250 CURVE SMOOTH"
);
}
);
width = 314;
},
{
anchors = (
{
name = accent;
position = "{127, 546}";
}
);
layerId = "817DDDC7-9D97-429D-9F3D-5ABA58537E71";
name = Light;
paths = (
{
closed = 1;
nodes = (
"128 -251 OFFCURVE",
"154 -217 OFFCURVE",
"154 -90 CURVE SMOOTH",
"154 546 LINE",
"100 546 LINE",
"100 -84 LINE SMOOTH",
"100 -178 OFFCURVE",
"86 -197 OFFCURVE",
"36 -197 CURVE SMOOTH",
"21 -197 OFFCURVE",
"5 -196 OFFCURVE",
"-10 -193 CURVE",
"-10 -247 LINE",
"5 -250 OFFCURVE",
"20 -251 OFFCURVE",
"31 -251 CURVE SMOOTH"
);
}
);
width = 254;
}
);
unicode = 0237;
userData = {
com.typemytype.robofont.layerData = {
background = {
anchors = (
);
components = (
);
contours = (
);
lib = {
};
name = jdotless;
unicodes = (
);
width = 314;
};
};
com.typemytype.robofont.mark = (
1,
1,
0,
1
);
};
},
{
color = (0,255,0,1);
glyphname = k;
lastChange = "2015-02-28 18:39:27 +0000";
layers = (
{
anchors = (
{
name = bottomaccent;
position = "{328.5, 0}";
}
);
layerId = "BE6E37CB-569E-4B40-A59A-BD6EE6EB60D7";
name = Bold;
paths = (
{
closed = 1;
nodes = (
"629 546 LINE",
"421 546 LINE",
"101 205 LINE",
"191 84 LINE"
);
},
{
closed = 1;
nodes = (
"647 0 LINE",
"379 340 LINE",
"200 303 LINE",
"439 0 LINE"
);
},
{
closed = 1;
nodes = (
"244 0 LINE",
"244 846 LINE",
"70 846 LINE",
"70 0 LINE"
);
}
);
width = 657;
},
{
anchors = (
{
name = bottomaccent;
position = "{283, 0}";
}
);
layerId = "817DDDC7-9D97-429D-9F3D-5ABA58537E71";
name = Light;
paths = (
{
closed = 1;
nodes = (
"477 546 LINE",
"405 546 LINE",
"146 285 LINE",
"146 213 LINE"
);
},
{
closed = 1;
nodes = (
"517 0 LINE",
"249 340 LINE",
"210 303 LINE",
"449 0 LINE"
);
},
{
closed = 1;
nodes = (
"154 0 LINE",
"154 846 LINE",
"100 846 LINE",
"100 0 LINE"
);
}
);
width = 547;
}
);
unicode = 006B;
userData = {
com.typemytype.robofont.layerData = {
background = {
anchors = (
{
name = bottomaccent;
x = 313;
y = 0;
},
{
name = accent;
x = 157;
y = 846;
},
{
name = bottomaccent;
x = 313;
y = 0;
},
{
name = accent;
x = 157;
y = 846;
}
);
components = (
);
contours = (
{
points = (
{
segmentType = line;
smooth = 0;
x = "-40";
y = 546;
},
{
segmentType = line;
smooth = 0;
x = "-112";
y = 546;
},
{
segmentType = line;
smooth = 0;
x = "-371";
y = 285;
},
{
segmentType = line;
smooth = 0;
x = "-371";
y = 213;
}
);
},
{
points = (
{
segmentType = line;
smooth = 0;
x = "-417";
y = 846;
},
{
segmentType = line;
smooth = 0;
x = "-417";
y = 0;
},
{
segmentType = line;
smooth = 0;
x = "-363";
y = 0;
},
{
segmentType = line;
smooth = 0;
x = "-363";
y = 846;
}
);
},
{
points = (
{
segmentType = line;
smooth = 0;
x = "-307";
y = 303;
},
{
segmentType = line;
smooth = 0;
x = "-68";
y = 0;
},
{
segmentType = line;
smooth = 0;
x = 0;
y = 0;
},
{
segmentType = line;
smooth = 0;
x = "-268";
y = 340;
}
);
},
{
points = (
{
segmentType = line;
smooth = 0;
x = 507;
y = 546;
},
{
segmentType = line;
smooth = 0;
x = 435;
y = 546;
},
{
segmentType = line;
smooth = 0;
x = 176;
y = 285;
},
{
segmentType = line;
smooth = 0;
x = 176;
y = 213;
}
);
},
{
points = (
{
segmentType = line;
smooth = 0;
x = 130;
y = 846;
},
{
segmentType = line;
smooth = 0;
x = 130;
y = 0;
},
{
segmentType = line;
smooth = 0;
x = 184;
y = 0;
},
{
segmentType = line;
smooth = 0;
x = 184;
y = 846;
}
);
},
{
points = (
{
segmentType = line;
smooth = 0;
x = 240;
y = 303;
},
{
segmentType = line;
smooth = 0;
x = 479;
y = 0;
},
{
segmentType = line;
smooth = 0;
x = 547;
y = 0;
},
{
segmentType = line;
smooth = 0;
x = 279;
y = 340;
}
);
}
);
lib = {
};
name = k;
unicodes = (
);
width = 657;
};
};
com.typemytype.robofont.mark = (
0,
1,
0,
1
);
};
},
{
color = (0,255,0,1);
glyphname = l;
lastChange = "2015-02-28 18:39:26 +0000";
layers = (
{
anchors = (
{
name = accent;
position = "{155, 900}";
},
{
name = bottomaccent;
position = "{227, 0}";
},
{
name = slovak;
position = "{264, 556}";
}
);
layerId = "BE6E37CB-569E-4B40-A59A-BD6EE6EB60D7";
name = Bold;
paths = (
{
closed = 1;
nodes = (
"285 -13 OFFCURVE",
"316 -7 OFFCURVE",
"354 1 CURVE",
"354 149 LINE",
"338 144 OFFCURVE",
"320 141 OFFCURVE",
"295 141 CURVE SMOOTH",
"256 141 OFFCURVE",
"244 157 OFFCURVE",
"244 201 CURVE SMOOTH",
"244 846 LINE",
"70 846 LINE",
"70 138 LINE SMOOTH",
"70 43 OFFCURVE",
"125 -13 OFFCURVE",
"246 -13 CURVE SMOOTH"
);
}
);
width = 379;
},
{
anchors = (
{
name = accent;
position = "{127, 846}";
},
{
name = bottomaccent;
position = "{197, 0}";
},
{
name = slovak;
position = "{229, 556}";
}
);
layerId = "817DDDC7-9D97-429D-9F3D-5ABA58537E71";
name = Light;
paths = (
{
closed = 1;
nodes = (
"234 -13 OFFCURVE",
"249 -12 OFFCURVE",
"264 -9 CURVE",
"264 45 LINE",
"249 42 OFFCURVE",
"233 41 OFFCURVE",
"218 41 CURVE SMOOTH",
"168 41 OFFCURVE",
"154 57 OFFCURVE",
"154 114 CURVE SMOOTH",
"154 846 LINE",
"100 846 LINE",
"100 108 LINE SMOOTH",
"100 13 OFFCURVE",
"135 -13 OFFCURVE",
"223 -13 CURVE SMOOTH"
);
}
);
width = 289;
}
);
unicode = 006C;
userData = {
com.typemytype.robofont.layerData = {
background = {
anchors = (
{
name = bottomaccent;
x = 218;
y = 0;
},
{
name = accent;
x = 148;
y = 846;
}
);
components = (
);
contours = (
{
points = (
{
smooth = 0;
x = 255;
y = "-13";
},
{
smooth = 0;
x = 270;
y = "-12";
},
{
segmentType = curve;
smooth = 0;
x = 285;
y = "-9";
},
{
segmentType = line;
smooth = 0;
x = 285;
y = 45;
},
{
smooth = 0;
x = 270;
y = 42;
},
{
smooth = 0;
x = 254;
y = 41;
},
{
segmentType = curve;
smooth = 1;
x = 239;
y = 41;
},
{
smooth = 0;
x = 189;
y = 41;
},
{
smooth = 0;
x = 175;
y = 57;
},
{
segmentType = curve;
smooth = 1;
x = 175;
y = 114;
},
{
segmentType = line;
smooth = 0;
x = 175;
y = 846;
},
{
segmentType = line;
smooth = 0;
x = 121;
y = 846;
},
{
segmentType = line;
smooth = 1;
x = 121;
y = 108;
},
{
smooth = 0;
x = 121;
y = 13;
},
{
smooth = 0;
x = 156;
y = "-13";
},
{
segmentType = curve;
smooth = 1;
x = 244;
y = "-13";
}
);
}
);
lib = {
};
name = l;
unicodes = (
);
width = 379;
};
};
com.typemytype.robofont.mark = (
0,
1,
0,
1
);
};
},
{
color = (255,255,0,1);
glyphname = lslash;
lastChange = "2015-02-28 18:39:27 +0000";
layers = (
{
components = (
{
name = l;
}
);
layerId = "BE6E37CB-569E-4B40-A59A-BD6EE6EB60D7";
name = Bold;
paths = (
{
closed = 1;
nodes = (
"355 409 LINE",
"355 559 LINE",
"1 457 LINE",
"1 307 LINE"
);
}
);
width = 379;
},
{
components = (
{
name = l;
}
);
layerId = "817DDDC7-9D97-429D-9F3D-5ABA58537E71";
name = Light;
paths = (
{
closed = 1;
nodes = (
"260 456 LINE",
"260 506 LINE",
"11 407 LINE",
"11 357 LINE"
);
}
);
width = 289;
}
);
unicode = 0142;
userData = {
com.typemytype.robofont.layerData = {
background = {
anchors = (
);
components = (
);
contours = (
);
lib = {
};
name = lslash;
unicodes = (
);
width = 379;
};
};
com.typemytype.robofont.mark = (
1,
1,
0,
1
);
};
},
{
color = (0,255,0,1);
glyphname = m;
lastChange = "2015-02-28 18:39:26 +0000";
layers = (
{
layerId = "BE6E37CB-569E-4B40-A59A-BD6EE6EB60D7";
name = Bold;
paths = (
{
closed = 1;
nodes = (
"970 0 LINE",
"970 340 LINE SMOOTH",
"970 508 OFFCURVE",
"897 578 OFFCURVE",
"755 578 CURVE SMOOTH",
"665 578 OFFCURVE",
"601 531 OFFCURVE",
"519 431 CURVE",
"519 287 LINE",
"589 368 OFFCURVE",
"646 424 OFFCURVE",
"716 424 CURVE SMOOTH",
"777 424 OFFCURVE",
"796 391 OFFCURVE",
"796 340 CURVE SMOOTH",
"796 0 LINE"
);
},
{
closed = 1;
nodes = (
"244 0 LINE",
"244 566 LINE",
"70 566 LINE",
"70 0 LINE"
);
},
{
closed = 1;
nodes = (
"607 0 LINE",
"607 340 LINE SMOOTH",
"607 508 OFFCURVE",
"534 578 OFFCURVE",
"392 578 CURVE SMOOTH",
"302 578 OFFCURVE",
"238 531 OFFCURVE",
"156 431 CURVE",
"156 287 LINE",
"226 368 OFFCURVE",
"283 424 OFFCURVE",
"353 424 CURVE SMOOTH",
"414 424 OFFCURVE",
"433 391 OFFCURVE",
"433 340 CURVE SMOOTH",
"433 0 LINE"
);
}
);
width = 1035;
},
{
layerId = "817DDDC7-9D97-429D-9F3D-5ABA58537E71";
name = Light;
paths = (
{
closed = 1;
nodes = (
"880 0 LINE",
"880 330 LINE SMOOTH",
"880 499 OFFCURVE",
"817 558 OFFCURVE",
"691 558 CURVE SMOOTH",
"616 558 OFFCURVE",
"539 509 OFFCURVE",
"489 451 CURVE",
"489 387 LINE",
"540 452 OFFCURVE",
"612 504 OFFCURVE",
"691 504 CURVE SMOOTH",
"793 504 OFFCURVE",
"826 458 OFFCURVE",
"826 330 CURVE SMOOTH",
"826 0 LINE"
);
},
{
closed = 1;
nodes = (
"154 0 LINE",
"154 546 LINE",
"100 546 LINE",
"100 0 LINE"
);
},
{
closed = 1;
nodes = (
"517 0 LINE",
"517 330 LINE SMOOTH",
"517 499 OFFCURVE",
"454 558 OFFCURVE",
"328 558 CURVE SMOOTH",
"253 558 OFFCURVE",
"176 509 OFFCURVE",
"126 451 CURVE",
"126 397 LINE",
"177 456 OFFCURVE",
"249 504 OFFCURVE",
"328 504 CURVE SMOOTH",
"430 504 OFFCURVE",
"463 458 OFFCURVE",
"463 330 CURVE SMOOTH",
"463 0 LINE"
);
}
);
width = 950;
}
);
unicode = 006D;
userData = {
com.typemytype.robofont.layerData = {
background = {
anchors = (
{
name = accent;
x = 520;
y = 546;
}
);
components = (
);
contours = (
{
points = (
{
smooth = 0;
x = 283;
y = 558;
},
{
smooth = 0;
x = 206;
y = 509;
},
{
segmentType = curve;
smooth = 0;
x = 156;
y = 451;
},
{
segmentType = line;
smooth = 0;
x = 156;
y = 397;
},
{
smooth = 0;
x = 207;
y = 456;
},
{
smooth = 0;
x = 279;
y = 504;
},
{
segmentType = curve;
smooth = 1;
x = 358;
y = 504;
},
{
smooth = 0;
x = 460;
y = 504;
},
{
smooth = 0;
x = 493;
y = 458;
},
{
segmentType = curve;
smooth = 1;
x = 493;
y = 330;
},
{
segmentType = line;
smooth = 0;
x = 493;
y = 0;
},
{
segmentType = line;
smooth = 0;
x = 547;
y = 0;
},
{
segmentType = line;
smooth = 1;
x = 547;
y = 330;
},
{
smooth = 0;
x = 547;
y = 499;
},
{
smooth = 0;
x = 484;
y = 558;
},
{
segmentType = curve;
smooth = 1;
x = 358;
y = 558;
}
);
},
{
points = (
{
segmentType = line;
smooth = 0;
x = 130;
y = 546;
},
{
segmentType = line;
smooth = 0;
x = 130;
y = 0;
},
{
segmentType = line;
smooth = 0;
x = 184;
y = 0;
},
{
segmentType = line;
smooth = 0;
x = 184;
y = 546;
}
);
},
{
points = (
{
smooth = 0;
x = 646;
y = 558;
},
{
smooth = 0;
x = 569;
y = 509;
},
{
segmentType = curve;
smooth = 0;
x = 519;
y = 451;
},
{
segmentType = line;
smooth = 0;
x = 519;
y = 387;
},
{
smooth = 0;
x = 570;
y = 452;
},
{
smooth = 0;
x = 642;
y = 504;
},
{
segmentType = curve;
smooth = 1;
x = 721;
y = 504;
},
{
smooth = 0;
x = 823;
y = 504;
},
{
smooth = 0;
x = 856;
y = 458;
},
{
segmentType = curve;
smooth = 1;
x = 856;
y = 330;
},
{
segmentType = line;
smooth = 0;
x = 856;
y = 0;
},
{
segmentType = line;
smooth = 0;
x = 910;
y = 0;
},
{
segmentType = line;
smooth = 1;
x = 910;
y = 330;
},
{
smooth = 0;
x = 910;
y = 499;
},
{
smooth = 0;
x = 847;
y = 558;
},
{
segmentType = curve;
smooth = 1;
x = 721;
y = 558;
}
);
}
);
lib = {
};
name = m;
unicodes = (
);
width = 1035;
};
};
com.typemytype.robofont.mark = (
0,
1,
0,
1
);
};
},
{
color = (0,255,0,1);
glyphname = n;
lastChange = "2015-02-28 18:39:27 +0000";
layers = (
{
anchors = (
{
name = accent;
position = "{356, 600}";
},
{
name = bottomaccent;
position = "{356, 0}";
}
);
layerId = "BE6E37CB-569E-4B40-A59A-BD6EE6EB60D7";
name = Bold;
paths = (
{
closed = 1;
nodes = (
"627 0 LINE",
"627 340 LINE SMOOTH",
"627 508 OFFCURVE",
"550 578 OFFCURVE",
"402 578 CURVE SMOOTH",
"308 578 OFFCURVE",
"239 533 OFFCURVE",
"156 431 CURVE",
"156 287 LINE",
"227 370 OFFCURVE",
"289 424 OFFCURVE",
"363 424 CURVE SMOOTH",
"431 424 OFFCURVE",
"453 391 OFFCURVE",
"453 340 CURVE SMOOTH",
"453 0 LINE"
);
},
{
closed = 1;
nodes = (
"244 0 LINE",
"244 566 LINE",
"70 566 LINE",
"70 0 LINE"
);
}
);
width = 692;
},
{
anchors = (
{
name = accent;
position = "{308, 546}";
},
{
name = bottomaccent;
position = "{313, 0}";
}
);
layerId = "817DDDC7-9D97-429D-9F3D-5ABA58537E71";
name = Light;
paths = (
{
closed = 1;
nodes = (
"517 0 LINE",
"517 330 LINE SMOOTH",
"517 499 OFFCURVE",
"454 558 OFFCURVE",
"328 558 CURVE SMOOTH",
"253 558 OFFCURVE",
"176.376 508.794 OFFCURVE",
"126 451 CURVE",
"126 397 LINE",
"177.327 455.888 OFFCURVE",
"249 504 OFFCURVE",
"328 504 CURVE SMOOTH",
"430 504 OFFCURVE",
"463 458 OFFCURVE",
"463 330 CURVE SMOOTH",
"463 0 LINE"
);
},
{
closed = 1;
nodes = (
"154 0 LINE",
"154 546 LINE",
"100 546 LINE",
"100 0 LINE"
);
}
);
width = 612;
}
);
unicode = 006E;
userData = {
com.typemytype.robofont.layerData = {
background = {
anchors = (
{
name = bottomaccent;
x = 343;
y = 0;
},
{
name = accent;
x = 338;
y = 546;
},
{
name = bottomaccent;
x = 343;
y = 0;
},
{
name = accent;
x = 338;
y = 546;
},
{
name = bottomaccent;
x = 343;
y = 0;
},
{
name = accent;
x = 338;
y = 546;
}
);
components = (
);
contours = (
{
points = (
{
smooth = 0;
x = "-941";
y = 558;
},
{
smooth = 0;
x = "-1018";
y = 509;
},
{
segmentType = curve;
smooth = 0;
x = "-1068";
y = 451;
},
{
segmentType = line;
smooth = 0;
x = "-1068";
y = 397;
},
{
smooth = 0;
x = "-1017";
y = 456;
},
{
smooth = 0;
x = "-945";
y = 504;
},
{
segmentType = curve;
smooth = 1;
x = "-866";
y = 504;
},
{
smooth = 0;
x = "-764";
y = 504;
},
{
smooth = 0;
x = "-731";
y = 458;
},
{
segmentType = curve;
smooth = 1;
x = "-731";
y = 330;
},
{
segmentType = line;
smooth = 0;
x = "-731";
y = 0;
},
{
segmentType = line;
smooth = 0;
x = "-677";
y = 0;
},
{
segmentType = line;
smooth = 1;
x = "-677";
y = 330;
},
{
smooth = 0;
x = "-677";
y = 499;
},
{
smooth = 0;
x = "-740";
y = 558;
},
{
segmentType = curve;
smooth = 1;
x = "-866";
y = 558;
}
);
},
{
points = (
{
segmentType = line;
smooth = 0;
x = "-1094";
y = 546;
},
{
segmentType = line;
smooth = 0;
x = "-1094";
y = 0;
},
{
segmentType = line;
smooth = 0;
x = "-1040";
y = 0;
},
{
segmentType = line;
smooth = 0;
x = "-1040";
y = 546;
}
);
},
{
points = (
{
smooth = 0;
x = "-284.857142857";
y = 558;
},
{
smooth = 0;
x = "-364.568025198";
y = 0;
},
{
segmentType = curve;
smooth = 0;
x = "-416";
y = 451;
},
{
segmentType = line;
smooth = 0;
x = "-416";
y = 287;
},
{
smooth = 0;
x = "-368";
y = 342;
},
{
smooth = 0;
x = "-313";
y = 394;
},
{
segmentType = curve;
smooth = 1;
x = "-247";
y = 394;
},
{
smooth = 0;
x = "-203";
y = 394;
},
{
smooth = 0;
x = "-189";
y = 372;
},
{
segmentType = curve;
smooth = 1;
x = "-189";
y = 310;
},
{
segmentType = line;
smooth = 0;
x = "-189";
y = 0;
},
{
segmentType = line;
smooth = 0;
x = 5;
y = 0;
},
{
segmentType = line;
smooth = 1;
x = 5;
y = 330;
},
{
smooth = 0;
x = 5;
y = 499;
},
{
smooth = 0;
x = "-74";
y = 558;
},
{
segmentType = curve;
smooth = 1;
x = "-200";
y = 558;
}
);
},
{
points = (
{
segmentType = line;
smooth = 0;
x = "-552";
y = 546;
},
{
segmentType = line;
smooth = 0;
x = "-552";
y = 0;
},
{
segmentType = line;
smooth = 0;
x = "-358";
y = 0;
},
{
segmentType = line;
smooth = 0;
x = "-358";
y = 546;
}
);
},
{
points = (
{
smooth = 0;
x = 283;
y = 558;
},
{
smooth = 0;
x = 206;
y = 509;
},
{
segmentType = curve;
smooth = 0;
x = 156;
y = 451;
},
{
segmentType = line;
smooth = 0;
x = 156;
y = 397;
},
{
smooth = 0;
x = 207;
y = 456;
},
{
smooth = 0;
x = 279;
y = 504;
},
{
segmentType = curve;
smooth = 1;
x = 358;
y = 504;
},
{
smooth = 0;
x = 460;
y = 504;
},
{
smooth = 0;
x = 493;
y = 458;
},
{
segmentType = curve;
smooth = 1;
x = 493;
y = 330;
},
{
segmentType = line;
smooth = 0;
x = 493;
y = 0;
},
{
segmentType = line;
smooth = 0;
x = 547;
y = 0;
},
{
segmentType = line;
smooth = 1;
x = 547;
y = 330;
},
{
smooth = 0;
x = 547;
y = 499;
},
{
smooth = 0;
x = 484;
y = 558;
},
{
segmentType = curve;
smooth = 1;
x = 358;
y = 558;
}
);
},
{
points = (
{
segmentType = line;
smooth = 0;
x = 130;
y = 546;
},
{
segmentType = line;
smooth = 0;
x = 130;
y = 0;
},
{
segmentType = line;
smooth = 0;
x = 184;
y = 0;
},
{
segmentType = line;
smooth = 0;
x = 184;
y = 546;
}
);
}
);
lib = {
};
name = n;
unicodes = (
);
width = 692;
};
};
com.typemytype.robofont.mark = (
0,
1,
0,
1
);
};
},
{
color = (255,255,0,1);
glyphname = eng;
lastChange = "2015-02-28 18:39:26 +0000";
layers = (
{
components = (
{
name = n;
}
);
layerId = "BE6E37CB-569E-4B40-A59A-BD6EE6EB60D7";
name = Bold;
paths = (
{
closed = 1;
nodes = (
"572 -250 OFFCURVE",
"627 -194 OFFCURVE",
"627 -99 CURVE SMOOTH",
"627 169 LINE",
"453 169 LINE",
"453 -36 LINE SMOOTH",
"453 -80 OFFCURVE",
"441 -96 OFFCURVE",
"402 -96 CURVE SMOOTH",
"377 -96 OFFCURVE",
"359 -93 OFFCURVE",
"343 -88 CURVE",
"343 -236 LINE",
"381 -244 OFFCURVE",
"412 -250 OFFCURVE",
"451 -250 CURVE SMOOTH"
);
}
);
width = 692;
},
{
components = (
{
name = n;
}
);
layerId = "817DDDC7-9D97-429D-9F3D-5ABA58537E71";
name = Light;
paths = (
{
closed = 1;
nodes = (
"491 -251 OFFCURVE",
"517 -217 OFFCURVE",
"517 -90 CURVE SMOOTH",
"517 146 LINE",
"463 146 LINE",
"463 -84 LINE SMOOTH",
"463 -178 OFFCURVE",
"449 -197 OFFCURVE",
"399 -197 CURVE SMOOTH",
"384 -197 OFFCURVE",
"368 -196 OFFCURVE",
"353 -193 CURVE",
"353 -247 LINE",
"368 -250 OFFCURVE",
"383 -251 OFFCURVE",
"394 -251 CURVE SMOOTH"
);
}
);
width = 600;
}
);
unicode = 014B;
userData = {
com.typemytype.robofont.layerData = {
background = {
anchors = (
);
components = (
);
contours = (
);
lib = {
};
name = eng;
unicodes = (
);
width = 692;
};
};
com.typemytype.robofont.mark = (
1,
1,
0,
1
);
};
},
{
color = (0,255,0,1);
glyphname = o;
lastChange = "2015-02-28 18:39:27 +0000";
layers = (
{
anchors = (
{
name = accent;
position = "{337, 600}";
},
{
name = bottomaccent;
position = "{337, 0}";
}
);
layerId = "BE6E37CB-569E-4B40-A59A-BD6EE6EB60D7";
name = Bold;
paths = (
{
closed = 1;
nodes = (
"539 -17 OFFCURVE",
"639 116 OFFCURVE",
"639 283 CURVE SMOOTH",
"639 448 OFFCURVE",
"539 582 OFFCURVE",
"338 582 CURVE SMOOTH",
"136 582 OFFCURVE",
"35 448 OFFCURVE",
"35 283 CURVE SMOOTH",
"35 116 OFFCURVE",
"136 -17 OFFCURVE",
"338 -17 CURVE SMOOTH"
);
},
{
closed = 1;
nodes = (
"258 131 OFFCURVE",
"216 185.137 OFFCURVE",
"216 283 CURVE SMOOTH",
"216 379.848 OFFCURVE",
"258 434 OFFCURVE",
"338 434 CURVE SMOOTH",
"417 434 OFFCURVE",
"458 379.848 OFFCURVE",
"458 283 CURVE SMOOTH",
"458 185.137 OFFCURVE",
"417 131 OFFCURVE",
"338 131 CURVE SMOOTH"
);
}
);
width = 674;
},
{
anchors = (
{
name = accent;
position = "{325, 546}";
},
{
name = bottomaccent;
position = "{325, 0}";
}
);
layerId = "817DDDC7-9D97-429D-9F3D-5ABA58537E71";
name = Light;
paths = (
{
closed = 1;
nodes = (
"497 -17 OFFCURVE",
"582 112 OFFCURVE",
"582 273 CURVE SMOOTH",
"582 433 OFFCURVE",
"497 562 OFFCURVE",
"325 562 CURVE SMOOTH",
"153 562 OFFCURVE",
"67 433 OFFCURVE",
"67 273 CURVE SMOOTH",
"67 112 OFFCURVE",
"153 -17 OFFCURVE",
"325 -17 CURVE SMOOTH"
);
},
{
closed = 1;
nodes = (
"193 37 OFFCURVE",
"123 143 OFFCURVE",
"123 273 CURVE SMOOTH",
"123 403 OFFCURVE",
"193 508 OFFCURVE",
"325 508 CURVE SMOOTH",
"456 508 OFFCURVE",
"526 403 OFFCURVE",
"526 273 CURVE SMOOTH",
"526 143 OFFCURVE",
"456 37 OFFCURVE",
"325 37 CURVE SMOOTH"
);
}
);
width = 649;
}
);
unicode = 006F;
userData = {
com.typemytype.robofont.layerData = {
background = {
anchors = (
{
name = bottomaccent;
x = 348;
y = 0;
},
{
name = accent;
x = 348;
y = 546;
},
{
name = bottomaccent;
x = 348;
y = 0;
},
{
name = accent;
x = 348;
y = 546;
},
{
name = bottomaccent;
x = 348;
y = 0;
},
{
name = accent;
x = 348;
y = 546;
}
);
components = (
);
contours = (
{
points = (
{
smooth = 0;
x = "-1122";
y = 562;
},
{
smooth = 0;
x = "-1208";
y = 433;
},
{
segmentType = curve;
smooth = 1;
x = "-1208";
y = 273;
},
{
smooth = 0;
x = "-1208";
y = 112;
},
{
smooth = 0;
x = "-1122";
y = "-17";
},
{
segmentType = curve;
smooth = 1;
x = "-950";
y = "-17";
},
{
smooth = 0;
x = "-778";
y = "-17";
},
{
smooth = 0;
x = "-693";
y = 112;
},
{
segmentType = curve;
smooth = 1;
x = "-693";
y = 273;
},
{
smooth = 0;
x = "-693";
y = 433;
},
{
smooth = 0;
x = "-778";
y = 562;
},
{
segmentType = curve;
smooth = 1;
x = "-950";
y = 562;
}
);
},
{
points = (
{
smooth = 0;
x = "-819";
y = 508;
},
{
smooth = 0;
x = "-749";
y = 403;
},
{
segmentType = curve;
smooth = 1;
x = "-749";
y = 273;
},
{
smooth = 0;
x = "-749";
y = 143;
},
{
smooth = 0;
x = "-819";
y = 37;
},
{
segmentType = curve;
smooth = 1;
x = "-950";
y = 37;
},
{
smooth = 0;
x = "-1082";
y = 37;
},
{
smooth = 0;
x = "-1152";
y = 143;
},
{
segmentType = curve;
smooth = 1;
x = "-1152";
y = 273;
},
{
smooth = 0;
x = "-1152";
y = 403;
},
{
smooth = 0;
x = "-1082";
y = 508;
},
{
segmentType = curve;
smooth = 1;
x = "-950";
y = 508;
}
);
},
{
points = (
{
smooth = 0;
x = "-499.666666667";
y = 562;
},
{
smooth = 0;
x = "-599";
y = 433;
},
{
segmentType = curve;
smooth = 1;
x = "-599";
y = 273;
},
{
smooth = 0;
x = "-599";
y = 112;
},
{
smooth = 0;
x = "-499.666666667";
y = "-17";
},
{
segmentType = curve;
smooth = 1;
x = "-301";
y = "-17";
},
{
smooth = 0;
x = "-102.229571984";
y = "-17";
},
{
smooth = 0;
x = "-4";
y = 112;
},
{
segmentType = curve;
smooth = 1;
x = "-4";
y = 273;
},
{
smooth = 0;
x = "-4";
y = 433;
},
{
smooth = 0;
x = "-102.229571984";
y = 562;
},
{
segmentType = curve;
smooth = 1;
x = "-301";
y = 562;
}
);
},
{
points = (
{
smooth = 0;
x = "-235.486486486";
y = 403;
},
{
smooth = 0;
x = "-200";
y = 350;
},
{
segmentType = curve;
smooth = 1;
x = "-200";
y = 273;
},
{
smooth = 0;
x = "-200";
y = 196;
},
{
smooth = 0;
x = "-235.486486486";
y = 142;
},
{
segmentType = curve;
smooth = 1;
x = "-301";
y = 142;
},
{
smooth = 0;
x = "-367.482142857";
y = 142;
},
{
smooth = 0;
x = "-403";
y = 196;
},
{
segmentType = curve;
smooth = 1;
x = "-403";
y = 273;
},
{
smooth = 0;
x = "-403";
y = 350;
},
{
smooth = 0;
x = "-367.482142857";
y = 403;
},
{
segmentType = curve;
smooth = 1;
x = "-301";
y = 403;
}
);
},
{
points = (
{
smooth = 0;
x = 176;
y = 562;
},
{
smooth = 0;
x = 90;
y = 433;
},
{
segmentType = curve;
smooth = 1;
x = 90;
y = 273;
},
{
smooth = 0;
x = 90;
y = 112;
},
{
smooth = 0;
x = 176;
y = "-17";
},
{
segmentType = curve;
smooth = 1;
x = 348;
y = "-17";
},
{
smooth = 0;
x = 520;
y = "-17";
},
{
smooth = 0;
x = 605;
y = 112;
},
{
segmentType = curve;
smooth = 1;
x = 605;
y = 273;
},
{
smooth = 0;
x = 605;
y = 433;
},
{
smooth = 0;
x = 520;
y = 562;
},
{
segmentType = curve;
smooth = 1;
x = 348;
y = 562;
}
);
},
{
points = (
{
smooth = 0;
x = 479;
y = 508;
},
{
smooth = 0;
x = 549;
y = 403;
},
{
segmentType = curve;
smooth = 1;
x = 549;
y = 273;
},
{
smooth = 0;
x = 549;
y = 143;
},
{
smooth = 0;
x = 479;
y = 37;
},
{
segmentType = curve;
smooth = 1;
x = 348;
y = 37;
},
{
smooth = 0;
x = 216;
y = 37;
},
{
smooth = 0;
x = 146;
y = 143;
},
{
segmentType = curve;
smooth = 1;
x = 146;
y = 273;
},
{
smooth = 0;
x = 146;
y = 403;
},
{
smooth = 0;
x = 216;
y = 508;
},
{
segmentType = curve;
smooth = 1;
x = 348;
y = 508;
}
);
}
);
lib = {
};
name = o;
unicodes = (
);
width = 674;
};
};
com.typemytype.robofont.mark = (
0,
1,
0,
1
);
};
},
{
color = 0;
glyphname = oslash;
lastChange = "2015-02-28 18:39:27 +0000";
layers = (
{
components = (
{
name = o;
}
);
layerId = "BE6E37CB-569E-4B40-A59A-BD6EE6EB60D7";
name = Bold;
paths = (
{
closed = 1;
nodes = (
"641 491 LINE",
"547 581 LINE",
"34 76 LINE",
"130 -14 LINE"
);
}
);
width = 674;
},
{
components = (
{
name = o;
}
);
layerId = "817DDDC7-9D97-429D-9F3D-5ABA58537E71";
name = Light;
paths = (
{
closed = 1;
nodes = (
"621 511 LINE",
"587 546 LINE",
"28 34 LINE",
"63 0 LINE"
);
}
);
width = 649;
}
);
unicode = 00F8;
userData = {
com.schriftgestaltung.Glyphs.ColorIndex = 0;
com.typemytype.robofont.layerData = {
background = {
anchors = (
);
components = (
{
baseGlyph = o;
transformation = (
1,
0,
0,
1,
"-10",
0
);
}
);
contours = (
{
points = (
{
segmentType = line;
smooth = 0;
x = 63;
y = 0;
},
{
segmentType = line;
smooth = 0;
x = 621;
y = 511;
},
{
segmentType = line;
smooth = 0;
x = 587;
y = 546;
},
{
segmentType = line;
smooth = 0;
x = 28;
y = 34;
}
);
}
);
lib = {
};
name = oslash;
unicodes = (
);
width = 674;
};
};
com.typemytype.robofont.mark = (
1,
1,
0,
1
);
public.markColor = "0.85,0.26,0.06,1";
};
},
{
color = (255,255,0,1);
glyphname = oe;
lastChange = "2015-02-28 18:39:27 +0000";
layers = (
{
layerId = "BE6E37CB-569E-4B40-A59A-BD6EE6EB60D7";
name = Bold;
paths = (
{
closed = 1;
nodes = (
"515.679 -17 OFFCURVE",
"609 116 OFFCURVE",
"609 283 CURVE SMOOTH",
"609 448 OFFCURVE",
"515.679 582 OFFCURVE",
"328 582 CURVE SMOOTH",
"132.667 582 OFFCURVE",
"35 448 OFFCURVE",
"35 283 CURVE SMOOTH",
"35 116 OFFCURVE",
"132.667 -17 OFFCURVE",
"328 -17 CURVE SMOOTH"
);
},
{
closed = 1;
nodes = (
"258 131 OFFCURVE",
"216 185 OFFCURVE",
"216 283 CURVE SMOOTH",
"216 380 OFFCURVE",
"258 434 OFFCURVE",
"338 434 CURVE SMOOTH",
"417 434 OFFCURVE",
"458 380 OFFCURVE",
"458 283 CURVE SMOOTH",
"458 185 OFFCURVE",
"417 131 OFFCURVE",
"338 131 CURVE SMOOTH"
);
},
{
closed = 1;
nodes = (
"859 -17 OFFCURVE",
"922 -5 OFFCURVE",
"993 35 CURVE",
"948 169 LINE",
"887 139 OFFCURVE",
"844 127 OFFCURVE",
"792 127 CURVE",
"669 127 OFFCURVE",
"639 200 OFFCURVE",
"639 285 CURVE SMOOTH",
"639 404 OFFCURVE",
"677 438 OFFCURVE",
"736 438 CURVE SMOOTH",
"795 438 OFFCURVE",
"822 406 OFFCURVE",
"822 328 CURVE SMOOTH",
"822 229 LINE",
"1003 229 LINE",
"1003 298 LINE SMOOTH",
"1003 488 OFFCURVE",
"901.933 582 OFFCURVE",
"746 582 CURVE SMOOTH",
"604.516 582 OFFCURVE",
"488 479 OFFCURVE",
"488 284 CURVE SMOOTH",
"488 106 OFFCURVE",
"586 -17 OFFCURVE",
"768 -17 CURVE"
);
},
{
closed = 1;
nodes = (
"898 229 LINE",
"898 358 LINE",
"559 358 LINE",
"559 229 LINE"
);
}
);
width = 1033;
},
{
layerId = "817DDDC7-9D97-429D-9F3D-5ABA58537E71";
name = Light;
paths = (
{
closed = 1;
nodes = (
"497 -17 OFFCURVE",
"582 112 OFFCURVE",
"582 273 CURVE SMOOTH",
"582 433 OFFCURVE",
"497 562 OFFCURVE",
"325 562 CURVE SMOOTH",
"153 562 OFFCURVE",
"67 433 OFFCURVE",
"67 273 CURVE SMOOTH",
"67 112 OFFCURVE",
"153 -17 OFFCURVE",
"325 -17 CURVE SMOOTH"
);
},
{
closed = 1;
nodes = (
"193 37 OFFCURVE",
"123 143 OFFCURVE",
"123 273 CURVE SMOOTH",
"123 403 OFFCURVE",
"193 508 OFFCURVE",
"325 508 CURVE SMOOTH",
"456 508 OFFCURVE",
"526 403 OFFCURVE",
"526 273 CURVE SMOOTH",
"526 143 OFFCURVE",
"456 37 OFFCURVE",
"325 37 CURVE SMOOTH"
);
},
{
closed = 1;
nodes = (
"847 -17 OFFCURVE",
"910 -1 OFFCURVE",
"967 28 CURVE",
"947 78 LINE",
"894 54 OFFCURVE",
"839 37 OFFCURVE",
"784 37 CURVE",
"635 37 OFFCURVE",
"582 145 OFFCURVE",
"582 275 CURVE SMOOTH",
"582 434 OFFCURVE",
"654 508 OFFCURVE",
"764 508 CURVE SMOOTH",
"875 508 OFFCURVE",
"925 446 OFFCURVE",
"925 310 CURVE",
"925 289 LINE",
"981 289 LINE",
"981 310 LINE",
"980 475 OFFCURVE",
"896 562 OFFCURVE",
"764 562 CURVE SMOOTH",
"632 562 OFFCURVE",
"526 463 OFFCURVE",
"526 274 CURVE SMOOTH",
"526 102 OFFCURVE",
"615 -17 OFFCURVE",
"784 -17 CURVE"
);
},
{
closed = 1;
nodes = (
"936 289 LINE",
"936 343 LINE",
"567 343 LINE",
"567 289 LINE"
);
}
);
width = 1031;
}
);
unicode = 0153;
userData = {
com.typemytype.robofont.layerData = {
background = {
anchors = (
);
components = (
);
contours = (
);
lib = {
};
name = oe;
unicodes = (
);
width = 1033;
};
};
com.typemytype.robofont.mark = (
1,
1,
0,
1
);
};
},
{
color = (0,255,0,1);
glyphname = p;
lastChange = "2015-02-28 18:39:27 +0000";
layers = (
{
layerId = "BE6E37CB-569E-4B40-A59A-BD6EE6EB60D7";
name = Bold;
paths = (
{
closed = 1;
nodes = (
"545 -17 OFFCURVE",
"656 81 OFFCURVE",
"656 283 CURVE",
"656 483 OFFCURVE",
"545 582 OFFCURVE",
"396 582 CURVE SMOOTH",
"299 582 OFFCURVE",
"223 523 OFFCURVE",
"156 440 CURVE",
"156 306 LINE",
"214 370 OFFCURVE",
"279 428 OFFCURVE",
"358 428 CURVE SMOOTH",
"435 428 OFFCURVE",
"475 377 OFFCURVE",
"475 283 CURVE",
"475 187 OFFCURVE",
"435 137 OFFCURVE",
"358 137 CURVE SMOOTH",
"279 137 OFFCURVE",
"214 195 OFFCURVE",
"156 259 CURVE",
"156 125 LINE",
"223 42 OFFCURVE",
"299 -17 OFFCURVE",
"396 -17 CURVE SMOOTH"
);
},
{
closed = 1;
nodes = (
"244 -234 LINE",
"244 566 LINE",
"70 566 LINE",
"70 -234 LINE"
);
}
);
width = 691;
},
{
layerId = "817DDDC7-9D97-429D-9F3D-5ABA58537E71";
name = Light;
paths = (
{
closed = 1;
nodes = (
"459 -17 OFFCURVE",
"556 78 OFFCURVE",
"556 272 CURVE",
"556 467 OFFCURVE",
"459 562 OFFCURVE",
"318 562 CURVE SMOOTH",
"247 562 OFFCURVE",
"176 515 OFFCURVE",
"126 460 CURVE",
"126 406 LINE",
"177 462 OFFCURVE",
"243 508 OFFCURVE",
"318 508 CURVE SMOOTH",
"438 508 OFFCURVE",
"500 426 OFFCURVE",
"500 272 CURVE",
"500 119 OFFCURVE",
"438 37 OFFCURVE",
"318 37 CURVE SMOOTH",
"243 37 OFFCURVE",
"177 83 OFFCURVE",
"126 139 CURVE",
"126 85 LINE",
"176 30 OFFCURVE",
"247 -17 OFFCURVE",
"318 -17 CURVE SMOOTH"
);
},
{
closed = 1;
nodes = (
"154 -234 LINE",
"154 546 LINE",
"100 546 LINE",
"100 -234 LINE"
);
}
);
width = 623;
}
);
unicode = 0070;
userData = {
com.typemytype.robofont.layerData = {
background = {
anchors = (
{
name = accent;
x = 361;
y = 546;
}
);
components = (
);
contours = (
{
points = (
{
segmentType = line;
smooth = 0;
x = 197;
y = 546;
},
{
segmentType = line;
smooth = 0;
x = 143;
y = 546;
},
{
segmentType = line;
smooth = 0;
x = 143;
y = "-234";
},
{
segmentType = line;
smooth = 0;
x = 197;
y = "-234";
}
);
},
{
points = (
{
smooth = 0;
x = 599;
y = 467;
},
{
smooth = 0;
x = 502;
y = 562;
},
{
segmentType = curve;
smooth = 1;
x = 361;
y = 562;
},
{
smooth = 0;
x = 290;
y = 562;
},
{
smooth = 0;
x = 219;
y = 515;
},
{
segmentType = curve;
smooth = 0;
x = 169;
y = 460;
},
{
segmentType = line;
smooth = 0;
x = 169;
y = 406;
},
{
smooth = 0;
x = 220;
y = 462;
},
{
smooth = 0;
x = 286;
y = 508;
},
{
segmentType = curve;
smooth = 1;
x = 361;
y = 508;
},
{
smooth = 0;
x = 481;
y = 508;
},
{
smooth = 0;
x = 543;
y = 426;
},
{
segmentType = curve;
smooth = 0;
x = 543;
y = 272;
},
{
smooth = 0;
x = 543;
y = 119;
},
{
smooth = 0;
x = 481;
y = 37;
},
{
segmentType = curve;
smooth = 1;
x = 361;
y = 37;
},
{
smooth = 0;
x = 286;
y = 37;
},
{
smooth = 0;
x = 220;
y = 83;
},
{
segmentType = curve;
smooth = 0;
x = 169;
y = 139;
},
{
segmentType = line;
smooth = 0;
x = 169;
y = 85;
},
{
smooth = 0;
x = 219;
y = 30;
},
{
smooth = 0;
x = 290;
y = "-17";
},
{
segmentType = curve;
smooth = 1;
x = 361;
y = "-17";
},
{
smooth = 0;
x = 502;
y = "-17";
},
{
smooth = 0;
x = 599;
y = 78;
},
{
segmentType = curve;
smooth = 0;
x = 599;
y = 272;
}
);
}
);
lib = {
};
name = p;
unicodes = (
);
width = 691;
};
};
com.typemytype.robofont.mark = (
0,
1,
0,
1
);
};
},
{
color = (255,255,0,1);
glyphname = thorn;
lastChange = "2015-02-28 18:39:26 +0000";
layers = (
{
layerId = "BE6E37CB-569E-4B40-A59A-BD6EE6EB60D7";
name = Bold;
paths = (
{
closed = 1;
nodes = (
"545 -17 OFFCURVE",
"656 81 OFFCURVE",
"656 283 CURVE",
"656 483 OFFCURVE",
"545 582 OFFCURVE",
"396 582 CURVE SMOOTH",
"299 582 OFFCURVE",
"223 523 OFFCURVE",
"156 440 CURVE",
"156 306 LINE",
"214 370 OFFCURVE",
"279 428 OFFCURVE",
"358 428 CURVE SMOOTH",
"435 428 OFFCURVE",
"475 377 OFFCURVE",
"475 283 CURVE",
"475 187 OFFCURVE",
"435 137 OFFCURVE",
"358 137 CURVE SMOOTH",
"279 137 OFFCURVE",
"214 195 OFFCURVE",
"156 259 CURVE",
"156 125 LINE",
"223 42 OFFCURVE",
"299 -17 OFFCURVE",
"396 -17 CURVE SMOOTH"
);
},
{
closed = 1;
nodes = (
"244 -234 LINE",
"244 846 LINE",
"70 846 LINE",
"70 -234 LINE"
);
}
);
width = 623;
},
{
layerId = "817DDDC7-9D97-429D-9F3D-5ABA58537E71";
name = Light;
paths = (
{
closed = 1;
nodes = (
"459 -17 OFFCURVE",
"556 78 OFFCURVE",
"556 272 CURVE",
"556 467 OFFCURVE",
"459 562 OFFCURVE",
"318 562 CURVE SMOOTH",
"247 562 OFFCURVE",
"176 515 OFFCURVE",
"126 460 CURVE",
"126 406 LINE",
"177 462 OFFCURVE",
"243 508 OFFCURVE",
"318 508 CURVE SMOOTH",
"438 508 OFFCURVE",
"500 426 OFFCURVE",
"500 272 CURVE",
"500 119 OFFCURVE",
"438 37 OFFCURVE",
"318 37 CURVE SMOOTH",
"243 37 OFFCURVE",
"177 83 OFFCURVE",
"126 139 CURVE",
"126 85 LINE",
"176 30 OFFCURVE",
"247 -17 OFFCURVE",
"318 -17 CURVE SMOOTH"
);
},
{
closed = 1;
nodes = (
"154 -234 LINE",
"154 846 LINE",
"100 846 LINE",
"100 -234 LINE"
);
}
);
width = 623;
}
);
unicode = 00FE;
userData = {
com.typemytype.robofont.layerData = {
background = {
anchors = (
);
components = (
);
contours = (
{
points = (
{
segmentType = line;
smooth = 0;
x = 154;
y = 846;
},
{
segmentType = line;
smooth = 0;
x = 100;
y = 846;
},
{
segmentType = line;
smooth = 0;
x = 100;
y = "-234";
},
{
segmentType = line;
smooth = 0;
x = 154;
y = "-234";
}
);
},
{
points = (
{
smooth = 0;
x = 556;
y = 467;
},
{
smooth = 0;
x = 459;
y = 562;
},
{
segmentType = curve;
smooth = 1;
x = 318;
y = 562;
},
{
smooth = 0;
x = 247;
y = 562;
},
{
smooth = 0;
x = 176;
y = 515;
},
{
segmentType = curve;
smooth = 0;
x = 126;
y = 460;
},
{
segmentType = line;
smooth = 0;
x = 126;
y = 406;
},
{
smooth = 0;
x = 177;
y = 462;
},
{
smooth = 0;
x = 243;
y = 508;
},
{
segmentType = curve;
smooth = 1;
x = 318;
y = 508;
},
{
smooth = 0;
x = 438;
y = 508;
},
{
smooth = 0;
x = 500;
y = 426;
},
{
segmentType = curve;
smooth = 0;
x = 500;
y = 272;
},
{
smooth = 0;
x = 500;
y = 119;
},
{
smooth = 0;
x = 438;
y = 37;
},
{
segmentType = curve;
smooth = 1;
x = 318;
y = 37;
},
{
smooth = 0;
x = 243;
y = 37;
},
{
smooth = 0;
x = 177;
y = 83;
},
{
segmentType = curve;
smooth = 0;
x = 126;
y = 139;
},
{
segmentType = line;
smooth = 0;
x = 126;
y = 85;
},
{
smooth = 0;
x = 176;
y = 30;
},
{
smooth = 0;
x = 247;
y = "-17";
},
{
segmentType = curve;
smooth = 1;
x = 318;
y = "-17";
},
{
smooth = 0;
x = 459;
y = "-17";
},
{
smooth = 0;
x = 556;
y = 78;
},
{
segmentType = curve;
smooth = 0;
x = 556;
y = 272;
}
);
}
);
lib = {
};
name = thorn;
unicodes = (
);
width = 623;
};
};
com.typemytype.robofont.mark = (
1,
1,
0,
1
);
};
},
{
color = (0,255,0,1);
glyphname = q;
lastChange = "2015-02-28 18:39:26 +0000";
layers = (
{
layerId = "BE6E37CB-569E-4B40-A59A-BD6EE6EB60D7";
name = Bold;
paths = (
{
closed = 1;
nodes = (
"392 -17 OFFCURVE",
"468 42 OFFCURVE",
"535 125 CURVE",
"535 259 LINE",
"477 195 OFFCURVE",
"412 137 OFFCURVE",
"333 137 CURVE SMOOTH",
"256 137 OFFCURVE",
"216 187 OFFCURVE",
"216 283 CURVE",
"216 377 OFFCURVE",
"256 428 OFFCURVE",
"333 428 CURVE SMOOTH",
"412 428 OFFCURVE",
"477 370 OFFCURVE",
"535 306 CURVE",
"535 440 LINE",
"468 523 OFFCURVE",
"392 582 OFFCURVE",
"295 582 CURVE SMOOTH",
"146 582 OFFCURVE",
"35 483 OFFCURVE",
"35 283 CURVE",
"35 81 OFFCURVE",
"146 -17 OFFCURVE",
"295 -17 CURVE SMOOTH"
);
},
{
closed = 1;
nodes = (
"621 -234 LINE",
"621 566 LINE",
"447 566 LINE",
"447 -234 LINE"
);
}
);
width = 691;
},
{
layerId = "817DDDC7-9D97-429D-9F3D-5ABA58537E71";
name = Light;
paths = (
{
closed = 1;
nodes = (
"376 -17 OFFCURVE",
"447 30 OFFCURVE",
"497 85 CURVE",
"497 139 LINE",
"446 83 OFFCURVE",
"380 37 OFFCURVE",
"305 37 CURVE SMOOTH",
"184.812 37 OFFCURVE",
"123 119 OFFCURVE",
"123 273 CURVE",
"123 426 OFFCURVE",
"184.812 508 OFFCURVE",
"305 508 CURVE SMOOTH",
"380 508 OFFCURVE",
"446 462 OFFCURVE",
"497 406 CURVE",
"497 460 LINE",
"447 515 OFFCURVE",
"376 562 OFFCURVE",
"305 562 CURVE SMOOTH",
"164.452 562 OFFCURVE",
"67 467 OFFCURVE",
"67 273 CURVE",
"67 78 OFFCURVE",
"164.452 -17 OFFCURVE",
"305 -17 CURVE SMOOTH"
);
},
{
closed = 1;
nodes = (
"523 -234 LINE",
"523 546 LINE",
"469 546 LINE",
"469 -234 LINE"
);
}
);
width = 623;
}
);
unicode = 0071;
userData = {
com.typemytype.robofont.layerData = {
background = {
anchors = (
{
name = accent;
x = 313;
y = 546;
}
);
components = (
);
contours = (
{
points = (
{
smooth = 0;
x = 75;
y = 78;
},
{
smooth = 0;
x = 172;
y = "-17";
},
{
segmentType = curve;
smooth = 1;
x = 313;
y = "-17";
},
{
smooth = 0;
x = 384;
y = "-17";
},
{
smooth = 0;
x = 455;
y = 30;
},
{
segmentType = curve;
smooth = 0;
x = 505;
y = 85;
},
{
segmentType = line;
smooth = 0;
x = 505;
y = 139;
},
{
smooth = 0;
x = 454;
y = 83;
},
{
smooth = 0;
x = 388;
y = 37;
},
{
segmentType = curve;
smooth = 1;
x = 313;
y = 37;
},
{
smooth = 0;
x = 193;
y = 37;
},
{
smooth = 0;
x = 131;
y = 119;
},
{
segmentType = curve;
smooth = 0;
x = 131;
y = 273;
},
{
smooth = 0;
x = 131;
y = 426;
},
{
smooth = 0;
x = 193;
y = 508;
},
{
segmentType = curve;
smooth = 1;
x = 313;
y = 508;
},
{
smooth = 0;
x = 388;
y = 508;
},
{
smooth = 0;
x = 454;
y = 462;
},
{
segmentType = curve;
smooth = 0;
x = 505;
y = 406;
},
{
segmentType = line;
smooth = 0;
x = 505;
y = 460;
},
{
smooth = 0;
x = 455;
y = 515;
},
{
smooth = 0;
x = 384;
y = 562;
},
{
segmentType = curve;
smooth = 1;
x = 313;
y = 562;
},
{
smooth = 0;
x = 172;
y = 562;
},
{
smooth = 0;
x = 75;
y = 467;
},
{
segmentType = curve;
smooth = 0;
x = 75;
y = 273;
}
);
},
{
points = (
{
segmentType = line;
smooth = 0;
x = 531;
y = 546;
},
{
segmentType = line;
smooth = 0;
x = 477;
y = 546;
},
{
segmentType = line;
smooth = 0;
x = 477;
y = "-234";
},
{
segmentType = line;
smooth = 0;
x = 531;
y = "-234";
}
);
}
);
lib = {
};
name = q;
unicodes = (
);
width = 691;
};
};
com.typemytype.robofont.mark = (
0,
1,
0,
1
);
};
},
{
color = (0,255,0,1);
glyphname = r;
lastChange = "2015-02-28 18:39:27 +0000";
layers = (
{
anchors = (
{
name = accent;
position = "{234, 600}";
},
{
name = bottomaccent;
position = "{160, 0}";
}
);
layerId = "BE6E37CB-569E-4B40-A59A-BD6EE6EB60D7";
name = Bold;
paths = (
{
closed = 1;
nodes = (
"221 362 OFFCURVE",
"303 424 OFFCURVE",
"398 424 CURVE",
"421 424 LINE",
"421 578 LINE",
"398 578 LINE",
"308 578 OFFCURVE",
"238 525 OFFCURVE",
"156 421 CURVE",
"156 287 LINE"
);
},
{
closed = 1;
nodes = (
"244 0 LINE",
"244 566 LINE",
"70 566 LINE",
"70 0 LINE"
);
}
);
width = 451;
},
{
anchors = (
{
name = accent;
position = "{235, 546}";
},
{
name = bottomaccent;
position = "{127, 0}";
}
);
layerId = "817DDDC7-9D97-429D-9F3D-5ABA58537E71";
name = Light;
paths = (
{
closed = 1;
nodes = (
"177 456 OFFCURVE",
"249 504 OFFCURVE",
"328 504 CURVE",
"351 504 LINE",
"351 558 LINE",
"328 558 LINE",
"253 558 OFFCURVE",
"176 509 OFFCURVE",
"126 451 CURVE",
"126 397 LINE"
);
},
{
closed = 1;
nodes = (
"154 0 LINE",
"154 546 LINE",
"100 546 LINE",
"100 0 LINE"
);
}
);
width = 381;
}
);
unicode = 0072;
userData = {
com.typemytype.robofont.layerData = {
background = {
anchors = (
{
name = bottomaccent;
x = 157;
y = 0;
},
{
name = accent;
x = 265;
y = 546;
},
{
name = bottomaccent;
x = 343;
y = 0;
},
{
name = accent;
x = 338;
y = 546;
}
);
components = (
);
contours = (
{
points = (
{
smooth = 0;
x = 283;
y = 558;
},
{
smooth = 0;
x = 206;
y = 509;
},
{
segmentType = curve;
smooth = 0;
x = 156;
y = 451;
},
{
segmentType = line;
smooth = 0;
x = 156;
y = 397;
},
{
smooth = 0;
x = 207;
y = 456;
},
{
smooth = 0;
x = 279;
y = 504;
},
{
segmentType = curve;
smooth = 0;
x = 358;
y = 504;
},
{
segmentType = line;
smooth = 0;
x = 381;
y = 504;
},
{
segmentType = line;
smooth = 0;
x = 381;
y = 558;
},
{
segmentType = line;
smooth = 0;
x = 358;
y = 558;
}
);
},
{
points = (
{
segmentType = line;
smooth = 0;
x = 130;
y = 546;
},
{
segmentType = line;
smooth = 0;
x = 130;
y = 0;
},
{
segmentType = line;
smooth = 0;
x = 184;
y = 0;
},
{
segmentType = line;
smooth = 0;
x = 184;
y = 546;
}
);
},
{
points = (
{
smooth = 0;
x = 308;
y = 578;
},
{
smooth = 0;
x = 239;
y = 533;
},
{
segmentType = curve;
smooth = 0;
x = 156;
y = 431;
},
{
segmentType = line;
smooth = 0;
x = 156;
y = 287;
},
{
smooth = 0;
x = 227;
y = 370;
},
{
smooth = 0;
x = 289;
y = 424;
},
{
segmentType = curve;
smooth = 1;
x = 363;
y = 424;
},
{
smooth = 0;
x = 431;
y = 424;
},
{
smooth = 0;
x = 453;
y = 391;
},
{
segmentType = curve;
smooth = 1;
x = 453;
y = 340;
},
{
segmentType = line;
smooth = 0;
x = 453;
y = 0;
},
{
segmentType = line;
smooth = 0;
x = 627;
y = 0;
},
{
segmentType = line;
smooth = 1;
x = 627;
y = 340;
},
{
smooth = 0;
x = 627;
y = 508;
},
{
smooth = 0;
x = 550;
y = 578;
},
{
segmentType = curve;
smooth = 1;
x = 402;
y = 578;
}
);
},
{
points = (
{
segmentType = line;
smooth = 0;
x = 70;
y = 566;
},
{
segmentType = line;
smooth = 0;
x = 70;
y = 0;
},
{
segmentType = line;
smooth = 0;
x = 244;
y = 0;
},
{
segmentType = line;
smooth = 0;
x = 244;
y = 566;
}
);
}
);
lib = {
};
name = r;
unicodes = (
);
width = 451;
};
};
com.typemytype.robofont.mark = (
0,
1,
0,
1
);
};
},
{
color = (0,255,0,1);
glyphname = s;
lastChange = "2015-02-28 18:39:26 +0000";
layers = (
{
anchors = (
{
name = accent;
position = "{293, 600}";
},
{
name = bottomaccent;
position = "{283, 0}";
}
);
layerId = "BE6E37CB-569E-4B40-A59A-BD6EE6EB60D7";
name = Bold;
paths = (
{
closed = 1;
nodes = (
"426 -17 OFFCURVE",
"525 42 OFFCURVE",
"525 176 CURVE SMOOTH",
"525 287 OFFCURVE",
"473 334 OFFCURVE",
"359 357 CURVE SMOOTH",
"262 377 LINE SMOOTH",
"239 382 OFFCURVE",
"227 387 OFFCURVE",
"227 405 CURVE SMOOTH",
"227 426 OFFCURVE",
"242 438 OFFCURVE",
"300 438 CURVE SMOOTH",
"369 438 OFFCURVE",
"448 422 OFFCURVE",
"499 398 CURVE",
"499 546 LINE",
"438 566 OFFCURVE",
"361 582 OFFCURVE",
"291 582 CURVE SMOOTH",
"130 582 OFFCURVE",
"51 521 OFFCURVE",
"51 393 CURVE SMOOTH",
"51 298 OFFCURVE",
"101 246 OFFCURVE",
"214 223 CURVE SMOOTH",
"311 203 LINE SMOOTH",
"338 197 OFFCURVE",
"349 187 OFFCURVE",
"349 166 CURVE",
"349 143 OFFCURVE",
"333 127 OFFCURVE",
"284 127 CURVE SMOOTH",
"201 127 OFFCURVE",
"124 142 OFFCURVE",
"45 187 CURVE",
"45 34 LINE",
"125 -4 OFFCURVE",
"190 -17 OFFCURVE",
"284 -17 CURVE SMOOTH"
);
}
);
width = 565;
},
{
anchors = (
{
name = accent;
position = "{242, 546}";
},
{
name = bottomaccent;
position = "{245, 0}";
}
);
guideLines = (
{
angle = 90;
position = "{72, 191}";
},
{
angle = 90;
position = "{426, 191}";
}
);
layerId = "817DDDC7-9D97-429D-9F3D-5ABA58537E71";
name = Light;
paths = (
{
closed = 1;
nodes = (
"352.281 -17 OFFCURVE",
"426 39.925 OFFCURVE",
"426 140 CURVE",
"426 252 OFFCURVE",
"357 278 OFFCURVE",
"281.279 299.309 CURVE SMOOTH",
"230.825 313.182 LINE SMOOTH",
"174.439 328.686 OFFCURVE",
"128 351.403 OFFCURVE",
"128 417 CURVE",
"128 460.855 OFFCURVE",
"156 508 OFFCURVE",
"242 508 CURVE SMOOTH",
"320 508 OFFCURVE",
"360 487 OFFCURVE",
"400 468 CURVE",
"400 526 LINE",
"354 548 OFFCURVE",
"311 562 OFFCURVE",
"242 562 CURVE SMOOTH",
"128 562 OFFCURVE",
"72 501.525 OFFCURVE",
"72 418 CURVE SMOOTH",
"72 308.442 OFFCURVE",
"150 277 OFFCURVE",
"215 259 CURVE SMOOTH",
"265 245 LINE SMOOTH",
"330 227 OFFCURVE",
"370 207.063 OFFCURVE",
"370 141 CURVE",
"370 84.911 OFFCURVE",
"339.478 37 OFFCURVE",
"245 37 CURVE SMOOTH",
"180 37 OFFCURVE",
"118 52.066 OFFCURVE",
"56 87 CURVE",
"56 24 LINE",
"118 -4.98 OFFCURVE",
"171 -17 OFFCURVE",
"245 -17 CURVE SMOOTH"
);
}
);
width = 488;
}
);
unicode = 0073;
userData = {
com.typemytype.robofont.layerData = {
background = {
anchors = (
{
name = bottomaccent;
x = 284;
y = 0;
},
{
name = accent;
x = 281;
y = 546;
}
);
components = (
);
contours = (
{
points = (
{
smooth = 0;
x = 465;
y = 252;
},
{
smooth = 0;
x = 396;
y = 278;
},
{
segmentType = curve;
smooth = 1;
x = 320;
y = 299;
},
{
segmentType = line;
smooth = 1;
x = 270;
y = 313;
},
{
smooth = 0;
x = 213;
y = 329;
},
{
smooth = 0;
x = 167;
y = 351;
},
{
segmentType = curve;
smooth = 0;
x = 167;
y = 417;
},
{
smooth = 0;
x = 167;
y = 461;
},
{
smooth = 0;
x = 195;
y = 508;
},
{
segmentType = curve;
smooth = 1;
x = 281;
y = 508;
},
{
smooth = 0;
x = 359;
y = 508;
},
{
smooth = 0;
x = 399;
y = 487;
},
{
segmentType = curve;
smooth = 0;
x = 439;
y = 468;
},
{
segmentType = line;
smooth = 0;
x = 439;
y = 526;
},
{
smooth = 0;
x = 393;
y = 548;
},
{
smooth = 0;
x = 350;
y = 562;
},
{
segmentType = curve;
smooth = 1;
x = 281;
y = 562;
},
{
smooth = 0;
x = 167;
y = 562;
},
{
smooth = 0;
x = 111;
y = 502;
},
{
segmentType = curve;
smooth = 1;
x = 111;
y = 418;
},
{
smooth = 0;
x = 111;
y = 308;
},
{
smooth = 0;
x = 189;
y = 277;
},
{
segmentType = curve;
smooth = 1;
x = 254;
y = 259;
},
{
segmentType = line;
smooth = 1;
x = 304;
y = 245;
},
{
smooth = 0;
x = 369;
y = 227;
},
{
smooth = 0;
x = 409;
y = 207;
},
{
segmentType = curve;
smooth = 0;
x = 409;
y = 141;
},
{
smooth = 0;
x = 409;
y = 85;
},
{
smooth = 0;
x = 378;
y = 37;
},
{
segmentType = curve;
smooth = 1;
x = 284;
y = 37;
},
{
smooth = 0;
x = 219;
y = 37;
},
{
smooth = 0;
x = 157;
y = 52;
},
{
segmentType = curve;
smooth = 0;
x = 95;
y = 87;
},
{
segmentType = line;
smooth = 0;
x = 95;
y = 24;
},
{
smooth = 0;
x = 157;
y = "-5";
},
{
smooth = 0;
x = 210;
y = "-17";
},
{
segmentType = curve;
smooth = 1;
x = 284;
y = "-17";
},
{
smooth = 0;
x = 391;
y = "-17";
},
{
smooth = 0;
x = 465;
y = 40;
},
{
segmentType = curve;
smooth = 0;
x = 465;
y = 140;
}
);
}
);
lib = {
};
name = s;
unicodes = (
);
width = 565;
};
};
com.typemytype.robofont.mark = (
0,
1,
0,
1
);
};
},
{
color = (255,255,0,1);
glyphname = germandbls;
lastChange = "2015-02-28 18:39:26 +0000";
layers = (
{
layerId = "BE6E37CB-569E-4B40-A59A-BD6EE6EB60D7";
name = Bold;
paths = (
{
closed = 1;
nodes = (
"570 -17 OFFCURVE",
"656 46 OFFCURVE",
"658 180 CURVE",
"658 351 OFFCURVE",
"477 349 OFFCURVE",
"477 414 CURVE SMOOTH",
"477 470 OFFCURVE",
"566 512 OFFCURVE",
"566 651 CURVE SMOOTH",
"566 784 OFFCURVE",
"476.827 859 OFFCURVE",
"333 859 CURVE SMOOTH",
"160.439 859 OFFCURVE",
"70 778 OFFCURVE",
"70 598 CURVE SMOOTH",
"70 0 LINE",
"244 0 LINE",
"244 598 LINE SMOOTH",
"244 678 OFFCURVE",
"271.243 705 OFFCURVE",
"328 705 CURVE SMOOTH",
"370.378 705 OFFCURVE",
"392 686 OFFCURVE",
"392 638 CURVE SMOOTH",
"392 557 OFFCURVE",
"301 536 OFFCURVE",
"301 410 CURVE SMOOTH",
"301 223 OFFCURVE",
"482 247 OFFCURVE",
"482 175 CURVE",
"482 139 OFFCURVE",
"458 127 OFFCURVE",
"416 127 CURVE SMOOTH",
"388 127 OFFCURVE",
"356 133 OFFCURVE",
"317 152 CURVE",
"317 5 LINE",
"364 -15 OFFCURVE",
"403 -17 OFFCURVE",
"446 -17 CURVE SMOOTH"
);
}
);
width = 678;
},
{
layerId = "817DDDC7-9D97-429D-9F3D-5ABA58537E71";
name = Light;
paths = (
{
closed = 1;
nodes = (
"472 -17 OFFCURVE",
"543 33 OFFCURVE",
"548 140 CURVE",
"546 320 OFFCURVE",
"307 291 OFFCURVE",
"307 409 CURVE SMOOTH",
"307 499 OFFCURVE",
"416 535 OFFCURVE",
"416 698 CURVE SMOOTH",
"416 804 OFFCURVE",
"358 859 OFFCURVE",
"263 859 CURVE SMOOTH",
"156 859 OFFCURVE",
"100 820 OFFCURVE",
"100 698 CURVE SMOOTH",
"100 0 LINE",
"154 0 LINE",
"154 698 LINE SMOOTH",
"154 778 OFFCURVE",
"186 805 OFFCURVE",
"258 805 CURVE SMOOTH",
"327 805 OFFCURVE",
"362 774 OFFCURVE",
"362 698 CURVE SMOOTH",
"362 558 OFFCURVE",
"251 531 OFFCURVE",
"251 410 CURVE SMOOTH",
"251 232 OFFCURVE",
"490 282 OFFCURVE",
"492 141 CURVE",
"490 72 OFFCURVE",
"447 37 OFFCURVE",
"366 37 CURVE SMOOTH",
"332 37 OFFCURVE",
"302 42 OFFCURVE",
"247 65 CURVE",
"247 8 LINE",
"291 -11 OFFCURVE",
"326 -17 OFFCURVE",
"366 -17 CURVE SMOOTH"
);
}
);
width = 595;
}
);
unicode = 00DF;
userData = {
com.typemytype.robofont.guides = (
);
com.typemytype.robofont.layerData = {
background = {
anchors = (
);
components = (
);
contours = (
{
points = (
{
smooth = 0;
x = 186;
y = 859;
},
{
smooth = 0;
x = 130;
y = 820;
},
{
segmentType = curve;
smooth = 1;
x = 130;
y = 698;
},
{
segmentType = line;
smooth = 0;
x = 130;
y = 0;
},
{
segmentType = line;
smooth = 0;
x = 184;
y = 0;
},
{
segmentType = line;
smooth = 1;
x = 184;
y = 698;
},
{
smooth = 0;
x = 184;
y = 778;
},
{
smooth = 0;
x = 216;
y = 805;
},
{
segmentType = curve;
smooth = 1;
x = 288;
y = 805;
},
{
smooth = 0;
x = 357;
y = 805;
},
{
smooth = 0;
x = 392;
y = 774;
},
{
segmentType = curve;
smooth = 1;
x = 392;
y = 698;
},
{
smooth = 0;
x = 392;
y = 558;
},
{
smooth = 0;
x = 281;
y = 531;
},
{
segmentType = curve;
smooth = 1;
x = 281;
y = 410;
},
{
smooth = 0;
x = 281;
y = 232;
},
{
smooth = 0;
x = 520;
y = 282;
},
{
segmentType = curve;
smooth = 0;
x = 522;
y = 141;
},
{
smooth = 0;
x = 520;
y = 72;
},
{
smooth = 0;
x = 477;
y = 37;
},
{
segmentType = curve;
smooth = 1;
x = 396;
y = 37;
},
{
smooth = 0;
x = 362;
y = 37;
},
{
smooth = 0;
x = 332;
y = 42;
},
{
segmentType = curve;
smooth = 0;
x = 277;
y = 65;
},
{
segmentType = line;
smooth = 0;
x = 277;
y = 8;
},
{
smooth = 0;
x = 321;
y = "-11";
},
{
smooth = 0;
x = 356;
y = "-17";
},
{
segmentType = curve;
smooth = 1;
x = 396;
y = "-17";
},
{
smooth = 0;
x = 502;
y = "-17";
},
{
smooth = 0;
x = 573;
y = 33;
},
{
segmentType = curve;
smooth = 0;
x = 578;
y = 140;
},
{
smooth = 0;
x = 576;
y = 320;
},
{
smooth = 0;
x = 337;
y = 291;
},
{
segmentType = curve;
smooth = 1;
x = 337;
y = 409;
},
{
smooth = 0;
x = 337;
y = 499;
},
{
smooth = 0;
x = 446;
y = 535;
},
{
segmentType = curve;
smooth = 1;
x = 446;
y = 698;
},
{
smooth = 0;
x = 446;
y = 804;
},
{
smooth = 0;
x = 388;
y = 859;
},
{
segmentType = curve;
smooth = 1;
x = 293;
y = 859;
}
);
}
);
lib = {
};
name = germandbls;
unicodes = (
);
width = 678;
};
};
com.typemytype.robofont.mark = (
1,
1,
0,
1
);
};
},
{
color = (0,255,0,1);
glyphname = t;
lastChange = "2015-02-28 18:39:27 +0000";
layers = (
{
anchors = (
{
name = bottomaccent;
position = "{263, 0}";
},
{
name = slovak;
position = "{282, 606}";
}
);
layerId = "BE6E37CB-569E-4B40-A59A-BD6EE6EB60D7";
name = Bold;
paths = (
{
closed = 1;
nodes = (
"323 -13 OFFCURVE",
"354 -7 OFFCURVE",
"392 1 CURVE",
"392 149 LINE",
"376 144 OFFCURVE",
"358 141 OFFCURVE",
"333 141 CURVE SMOOTH",
"294 141 OFFCURVE",
"282 157 OFFCURVE",
"282 201 CURVE SMOOTH",
"282 736 LINE",
"108 736 LINE",
"108 138 LINE SMOOTH",
"108 43 OFFCURVE",
"163 -13 OFFCURVE",
"284 -13 CURVE SMOOTH"
);
},
{
closed = 1;
nodes = (
"410 392 LINE",
"410 546 LINE",
"30 546 LINE",
"30 392 LINE"
);
}
);
width = 440;
},
{
anchors = (
{
name = bottomaccent;
position = "{187, 0}";
},
{
name = slovak;
position = "{232, 606}";
}
);
layerId = "817DDDC7-9D97-429D-9F3D-5ABA58537E71";
name = Light;
paths = (
{
closed = 1;
nodes = (
"253 -13 OFFCURVE",
"271 -10 OFFCURVE",
"293 -5 CURVE",
"293 49 LINE",
"270 44 OFFCURVE",
"253 41 OFFCURVE",
"227 41 CURVE SMOOTH",
"177 41 OFFCURVE",
"163 57 OFFCURVE",
"163 114 CURVE SMOOTH",
"163 736 LINE",
"109 736 LINE",
"109 114 LINE SMOOTH",
"109 19 OFFCURVE",
"133 -13 OFFCURVE",
"227 -13 CURVE SMOOTH"
);
},
{
closed = 1;
nodes = (
"291 492 LINE",
"291 546 LINE",
"41 546 LINE",
"41 492 LINE"
);
}
);
width = 339;
}
);
unicode = 0074;
userData = {
com.typemytype.robofont.layerData = {
background = {
anchors = (
{
name = bottomaccent;
x = 246;
y = 0;
},
{
name = accent;
x = 195;
y = 736;
}
);
components = (
);
contours = (
{
points = (
{
smooth = 0;
x = 312;
y = "-13";
},
{
smooth = 0;
x = 330;
y = "-10";
},
{
segmentType = curve;
smooth = 0;
x = 352;
y = "-5";
},
{
segmentType = line;
smooth = 0;
x = 352;
y = 49;
},
{
smooth = 0;
x = 329;
y = 44;
},
{
smooth = 0;
x = 312;
y = 41;
},
{
segmentType = curve;
smooth = 1;
x = 286;
y = 41;
},
{
smooth = 0;
x = 236;
y = 41;
},
{
smooth = 0;
x = 222;
y = 57;
},
{
segmentType = curve;
smooth = 1;
x = 222;
y = 114;
},
{
segmentType = line;
smooth = 0;
x = 222;
y = 736;
},
{
segmentType = line;
smooth = 0;
x = 168;
y = 736;
},
{
segmentType = line;
smooth = 1;
x = 168;
y = 114;
},
{
smooth = 0;
x = 168;
y = 19;
},
{
smooth = 0;
x = 192;
y = "-13";
},
{
segmentType = curve;
smooth = 1;
x = 286;
y = "-13";
}
);
},
{
points = (
{
segmentType = line;
smooth = 0;
x = 100;
y = 492;
},
{
segmentType = line;
smooth = 0;
x = 350;
y = 492;
},
{
segmentType = line;
smooth = 0;
x = 350;
y = 546;
},
{
segmentType = line;
smooth = 0;
x = 100;
y = 546;
}
);
}
);
lib = {
};
name = t;
unicodes = (
);
width = 440;
};
};
com.typemytype.robofont.mark = (
0,
1,
0,
1
);
};
},
{
color = (255,255,0,1);
glyphname = tbar;
lastChange = "2015-02-28 18:39:26 +0000";
layers = (
{
components = (
{
name = t;
}
);
layerId = "BE6E37CB-569E-4B40-A59A-BD6EE6EB60D7";
name = Bold;
paths = (
{
closed = 1;
nodes = (
"411 203 LINE",
"411 351 LINE",
"31 351 LINE",
"31 203 LINE"
);
}
);
width = 440;
},
{
components = (
{
name = t;
}
);
layerId = "817DDDC7-9D97-429D-9F3D-5ABA58537E71";
name = Light;
paths = (
{
closed = 1;
nodes = (
"291 253 LINE",
"291 301 LINE",
"41 301 LINE",
"41 253 LINE"
);
}
);
width = 339;
}
);
unicode = 0167;
userData = {
com.typemytype.robofont.layerData = {
background = {
anchors = (
);
components = (
);
contours = (
);
lib = {
};
name = tbar;
unicodes = (
);
width = 440;
};
};
com.typemytype.robofont.mark = (
1,
1,
0,
1
);
};
},
{
color = (0,255,0,1);
glyphname = u;
lastChange = "2015-02-28 18:39:27 +0000";
layers = (
{
anchors = (
{
name = accent;
position = "{346, 600}";
},
{
name = bottomaccent;
position = "{554, 0}";
}
);
layerId = "BE6E37CB-569E-4B40-A59A-BD6EE6EB60D7";
name = Bold;
paths = (
{
closed = 1;
nodes = (
"384 -12 OFFCURVE",
"453 33 OFFCURVE",
"536 135 CURVE",
"536 279 LINE",
"465 196 OFFCURVE",
"403 142 OFFCURVE",
"329 142 CURVE SMOOTH",
"261 142 OFFCURVE",
"239 175 OFFCURVE",
"239 226 CURVE SMOOTH",
"239 566 LINE",
"65 566 LINE",
"65 226 LINE SMOOTH",
"65 58 OFFCURVE",
"142 -12 OFFCURVE",
"290 -12 CURVE SMOOTH"
);
},
{
closed = 1;
nodes = (
"622 0 LINE",
"622 566 LINE",
"448 566 LINE",
"448 0 LINE"
);
}
);
width = 692;
},
{
anchors = (
{
name = accent;
position = "{302, 546}";
},
{
name = bottomaccent;
position = "{485, 0}";
}
);
layerId = "817DDDC7-9D97-429D-9F3D-5ABA58537E71";
name = Light;
paths = (
{
closed = 1;
nodes = (
"359 -12 OFFCURVE",
"436 37 OFFCURVE",
"486 95 CURVE",
"486 149 LINE",
"435 90 OFFCURVE",
"363 42 OFFCURVE",
"284 42 CURVE SMOOTH",
"182 42 OFFCURVE",
"149 88 OFFCURVE",
"149 216 CURVE SMOOTH",
"149 546 LINE",
"95 546 LINE",
"95 216 LINE SMOOTH",
"95 47 OFFCURVE",
"158 -12 OFFCURVE",
"284 -12 CURVE SMOOTH"
);
},
{
closed = 1;
nodes = (
"512 0 LINE",
"512 546 LINE",
"458 546 LINE",
"458 0 LINE"
);
}
);
width = 612;
}
);
unicode = 0075;
userData = {
com.typemytype.robofont.layerData = {
background = {
anchors = (
{
name = bottomaccent;
x = 510;
y = 0;
},
{
name = accent;
x = 327;
y = 546;
}
);
components = (
);
contours = (
{
points = (
{
smooth = 0;
x = 384;
y = "-12";
},
{
smooth = 0;
x = 461;
y = 37;
},
{
segmentType = curve;
smooth = 0;
x = 511;
y = 95;
},
{
segmentType = line;
smooth = 0;
x = 511;
y = 149;
},
{
smooth = 0;
x = 460;
y = 90;
},
{
smooth = 0;
x = 388;
y = 42;
},
{
segmentType = curve;
smooth = 1;
x = 309;
y = 42;
},
{
smooth = 0;
x = 207;
y = 42;
},
{
smooth = 0;
x = 174;
y = 88;
},
{
segmentType = curve;
smooth = 1;
x = 174;
y = 216;
},
{
segmentType = line;
smooth = 0;
x = 174;
y = 546;
},
{
segmentType = line;
smooth = 0;
x = 120;
y = 546;
},
{
segmentType = line;
smooth = 1;
x = 120;
y = 216;
},
{
smooth = 0;
x = 120;
y = 47;
},
{
smooth = 0;
x = 183;
y = "-12";
},
{
segmentType = curve;
smooth = 1;
x = 309;
y = "-12";
}
);
},
{
points = (
{
segmentType = line;
smooth = 0;
x = 537;
y = 0;
},
{
segmentType = line;
smooth = 0;
x = 537;
y = 546;
},
{
segmentType = line;
smooth = 0;
x = 483;
y = 546;
},
{
segmentType = line;
smooth = 0;
x = 483;
y = 0;
}
);
}
);
lib = {
};
name = u;
unicodes = (
);
width = 692;
};
};
com.typemytype.robofont.mark = (
0,
1,
0,
1
);
};
},
{
glyphname = uogonek;
lastChange = "2015-02-28 18:39:26 +0000";
layers = (
{
components = (
{
name = u;
}
);
layerId = "BE6E37CB-569E-4B40-A59A-BD6EE6EB60D7";
name = Bold;
paths = (
{
closed = 1;
nodes = (
"567 -263 OFFCURVE",
"595 -258 OFFCURVE",
"622 -249 CURVE",
"622 -154 LINE",
"604 -162 OFFCURVE",
"586 -166 OFFCURVE",
"569 -166 CURVE SMOOTH",
"544 -166 OFFCURVE",
"529 -156 OFFCURVE",
"529 -131 CURVE SMOOTH",
"529 -88 OFFCURVE",
"568 -42 OFFCURVE",
"622 0 CURVE",
"622 17 LINE",
"487 17 LINE",
"487 0 LINE",
"424 -49 OFFCURVE",
"398 -107 OFFCURVE",
"398 -160 CURVE SMOOTH",
"398 -224 OFFCURVE",
"443 -263 OFFCURVE",
"540 -263 CURVE"
);
}
);
width = 692;
},
{
components = (
{
name = u;
}
);
layerId = "817DDDC7-9D97-429D-9F3D-5ABA58537E71";
name = Light;
paths = (
{
closed = 1;
nodes = (
"477 -223 OFFCURVE",
"494 -220 OFFCURVE",
"512 -212 CURVE",
"512 -164 LINE",
"493 -174 OFFCURVE",
"475 -176 OFFCURVE",
"460 -176 CURVE SMOOTH",
"425 -176 OFFCURVE",
"411 -157 OFFCURVE",
"411 -135 CURVE SMOOTH",
"411 -85 OFFCURVE",
"457 -44 OFFCURVE",
"512 0 CURVE",
"512 10 LINE",
"458 10 LINE",
"458 0 LINE",
"396 -46 OFFCURVE",
"360 -88 OFFCURVE",
"360 -140 CURVE SMOOTH",
"360 -188 OFFCURVE",
"392 -223 OFFCURVE",
"460 -223 CURVE"
);
}
);
width = 612;
}
);
unicode = 0173;
userData = {
com.typemytype.robofont.layerData = {
background = {
anchors = (
);
components = (
);
contours = (
);
lib = {
};
name = uogonek;
unicodes = (
);
width = 692;
};
};
};
},
{
color = (255,255,0,1);
glyphname = v;
lastChange = "2015-02-28 18:39:27 +0000";
layers = (
{
layerId = "BE6E37CB-569E-4B40-A59A-BD6EE6EB60D7";
name = Bold;
paths = (
{
closed = 1;
nodes = (
"432 -9 LINE",
"615 566 LINE",
"437 566 LINE",
"293 63 LINE",
"343 63 LINE",
"198 566 LINE",
"20 566 LINE",
"204 -9 LINE"
);
}
);
width = 635;
},
{
layerId = "817DDDC7-9D97-429D-9F3D-5ABA58537E71";
name = Light;
paths = (
{
closed = 1;
nodes = (
"292 -9 LINE",
"515 546 LINE",
"457 546 LINE",
"263 63 LINE",
"273 63 LINE",
"78 546 LINE",
"20 546 LINE",
"244 -9 LINE"
);
}
);
width = 535;
}
);
unicode = 0076;
userData = {
com.typemytype.robofont.layerData = {
background = {
anchors = (
);
components = (
);
contours = (
);
lib = {
};
name = v;
unicodes = (
);
width = 635;
};
};
com.typemytype.robofont.mark = (
1,
1,
0,
1
);
};
},
{
color = (255,255,0,1);
glyphname = w;
lastChange = "2015-02-28 18:39:26 +0000";
layers = (
{
anchors = (
{
name = accent;
position = "{481, 600}";
}
);
layerId = "BE6E37CB-569E-4B40-A59A-BD6EE6EB60D7";
name = Bold;
paths = (
{
closed = 1;
nodes = (
"789 -9 LINE",
"932 566 LINE",
"754 566 LINE",
"650 63 LINE",
"720 63 LINE",
"585 566 LINE",
"407 566 LINE",
"581 -9 LINE"
);
},
{
closed = 1;
nodes = (
"382 -9 LINE",
"555 566 LINE",
"377 566 LINE",
"243 63 LINE",
"313 63 LINE",
"208 566 LINE",
"30 566 LINE",
"174 -9 LINE"
);
}
);
width = 962;
},
{
anchors = (
{
name = accent;
position = "{406, 546}";
}
);
layerId = "817DDDC7-9D97-429D-9F3D-5ABA58537E71";
name = Light;
paths = (
{
closed = 1;
nodes = (
"609 -9 LINE",
"792 546 LINE",
"734 546 LINE",
"580 63 LINE",
"590 63 LINE",
"435 546 LINE",
"377 546 LINE",
"561 -9 LINE"
);
},
{
closed = 1;
nodes = (
"252 -9 LINE",
"435 546 LINE",
"377 546 LINE",
"223 63 LINE",
"233 63 LINE",
"78 546 LINE",
"20 546 LINE",
"204 -9 LINE"
);
}
);
width = 812;
}
);
unicode = 0077;
userData = {
com.typemytype.robofont.layerData = {
background = {
anchors = (
{
name = accent;
x = 466;
y = 546;
}
);
components = (
);
contours = (
{
points = (
{
segmentType = line;
smooth = 0;
x = 495;
y = 546;
},
{
segmentType = line;
smooth = 0;
x = 437;
y = 546;
},
{
segmentType = line;
smooth = 0;
x = 283;
y = 63;
},
{
segmentType = line;
smooth = 0;
x = 293;
y = 63;
},
{
segmentType = line;
smooth = 0;
x = 138;
y = 546;
},
{
segmentType = line;
smooth = 0;
x = 80;
y = 546;
},
{
segmentType = line;
smooth = 0;
x = 264;
y = "-9";
},
{
segmentType = line;
smooth = 0;
x = 312;
y = "-9";
}
);
},
{
points = (
{
segmentType = line;
smooth = 0;
x = 852;
y = 546;
},
{
segmentType = line;
smooth = 0;
x = 794;
y = 546;
},
{
segmentType = line;
smooth = 0;
x = 640;
y = 63;
},
{
segmentType = line;
smooth = 0;
x = 650;
y = 63;
},
{
segmentType = line;
smooth = 0;
x = 495;
y = 546;
},
{
segmentType = line;
smooth = 0;
x = 437;
y = 546;
},
{
segmentType = line;
smooth = 0;
x = 621;
y = "-9";
},
{
segmentType = line;
smooth = 0;
x = 669;
y = "-9";
}
);
}
);
lib = {
};
name = w;
unicodes = (
);
width = 962;
};
};
com.typemytype.robofont.mark = (
1,
1,
0,
1
);
};
},
{
color = (255,255,0,1);
glyphname = x;
lastChange = "2015-02-28 18:39:27 +0000";
layers = (
{
layerId = "BE6E37CB-569E-4B40-A59A-BD6EE6EB60D7";
name = Bold;
paths = (
{
closed = 1;
nodes = (
"223 0 LINE SMOOTH",
"375 265 LINE SMOOTH",
"413 282 LINE SMOOTH",
"597 566 LINE SMOOTH",
"396 566 LINE SMOOTH",
"254 329 LINE SMOOTH",
"216 312 LINE SMOOTH",
"20 0 LINE SMOOTH"
);
},
{
closed = 1;
nodes = (
"606 0 LINE SMOOTH",
"398 315 LINE SMOOTH",
"373 329 LINE SMOOTH",
"233 566 LINE SMOOTH",
"30 566 LINE SMOOTH",
"214 282 LINE SMOOTH",
"243 265 LINE SMOOTH",
"403 0 LINE SMOOTH"
);
}
);
width = 626;
},
{
guideLines = (
{
angle = 90;
position = "{50, 226}";
},
{
angle = 90;
position = "{511, 225}";
}
);
layerId = "817DDDC7-9D97-429D-9F3D-5ABA58537E71";
name = Light;
paths = (
{
closed = 1;
nodes = (
"110 0 LINE SMOOTH",
"286 255 LINE SMOOTH",
"309 272 LINE SMOOTH",
"509 546 LINE SMOOTH",
"443 546 LINE SMOOTH",
"277 319 LINE SMOOTH",
"254 302 LINE SMOOTH",
"42 0 LINE SMOOTH"
);
},
{
closed = 1;
nodes = (
"518 0 LINE SMOOTH",
"294 305 LINE SMOOTH",
"284 319 LINE SMOOTH",
"120 546 LINE SMOOTH",
"52 546 LINE SMOOTH",
"252 272 LINE SMOOTH",
"266 255 LINE SMOOTH",
"450 0 LINE SMOOTH"
);
}
);
width = 560;
}
);
unicode = 0078;
userData = {
com.typemytype.robofont.layerData = {
background = {
anchors = (
);
components = (
);
contours = (
);
lib = {
};
name = x;
unicodes = (
);
width = 626;
};
};
com.typemytype.robofont.mark = (
1,
1,
0,
1
);
};
},
{
color = (255,255,0,1);
glyphname = y;
lastChange = "2015-02-28 18:39:26 +0000";
layers = (
{
anchors = (
{
name = accent;
position = "{298, 600}";
}
);
layerId = "BE6E37CB-569E-4B40-A59A-BD6EE6EB60D7";
name = Bold;
paths = (
{
closed = 1;
nodes = (
"240 -251 OFFCURVE",
"306 -216 OFFCURVE",
"350 -89 CURVE SMOOTH",
"575 566 LINE",
"407 566 LINE",
"204 -26 LINE SMOOTH",
"183 -86 OFFCURVE",
"149 -97 OFFCURVE",
"100 -97 CURVE SMOOTH",
"80 -97 OFFCURVE",
"56 -94 OFFCURVE",
"36 -88 CURVE",
"36 -236 LINE",
"62 -245 OFFCURVE",
"93 -251 OFFCURVE",
"132 -251 CURVE SMOOTH"
);
},
{
closed = 1;
nodes = (
"353 63 LINE",
"198 566 LINE",
"20 566 LINE",
"214 -9 LINE"
);
}
);
width = 595;
},
{
anchors = (
{
name = accent;
position = "{268, 546}";
}
);
layerId = "817DDDC7-9D97-429D-9F3D-5ABA58537E71";
name = Light;
paths = (
{
closed = 1;
nodes = (
"199 -251 OFFCURVE",
"209 -217 OFFCURVE",
"260 -89 CURVE SMOOTH",
"515 546 LINE",
"457 546 LINE",
"204 -84 LINE SMOOTH",
"169 -171 OFFCURVE",
"157 -197 OFFCURVE",
"112 -197 CURVE SMOOTH",
"97 -197 OFFCURVE",
"81 -196 OFFCURVE",
"66 -193 CURVE",
"66 -247 LINE",
"81 -250 OFFCURVE",
"96 -251 OFFCURVE",
"107 -251 CURVE SMOOTH"
);
},
{
closed = 1;
nodes = (
"273 63 LINE",
"78 546 LINE",
"20 546 LINE",
"244 -9 LINE"
);
}
);
width = 535;
}
);
unicode = 0079;
userData = {
com.typemytype.robofont.layerData = {
background = {
anchors = (
{
name = accent;
x = 298;
y = 546;
},
{
name = accent;
x = 298;
y = 546;
}
);
components = (
);
contours = (
{
points = (
{
segmentType = line;
smooth = 0;
x = "-232";
y = 63;
},
{
segmentType = line;
smooth = 0;
x = "-427";
y = 546;
},
{
segmentType = line;
smooth = 0;
x = "-485";
y = 546;
},
{
segmentType = line;
smooth = 0;
x = "-261";
y = "-9";
}
);
},
{
points = (
{
smooth = 0;
x = "-336";
y = "-171";
},
{
smooth = 0;
x = "-348";
y = "-197";
},
{
segmentType = curve;
smooth = 1;
x = "-393";
y = "-197";
},
{
smooth = 0;
x = "-408";
y = "-197";
},
{
smooth = 0;
x = "-424";
y = "-196";
},
{
segmentType = curve;
smooth = 0;
x = "-439";
y = "-193";
},
{
segmentType = line;
smooth = 0;
x = "-439";
y = "-247";
},
{
smooth = 0;
x = "-424";
y = "-250";
},
{
smooth = 0;
x = "-409";
y = "-251";
},
{
segmentType = curve;
smooth = 1;
x = "-398";
y = "-251";
},
{
smooth = 0;
x = "-306";
y = "-251";
},
{
smooth = 0;
x = "-296";
y = "-217";
},
{
segmentType = curve;
smooth = 1;
x = "-245";
y = "-89";
},
{
segmentType = line;
smooth = 0;
x = 10;
y = 546;
},
{
segmentType = line;
smooth = 0;
x = "-48";
y = 546;
},
{
segmentType = line;
smooth = 1;
x = "-301";
y = "-84";
}
);
},
{
points = (
{
segmentType = line;
smooth = 0;
x = 303;
y = 63;
},
{
segmentType = line;
smooth = 0;
x = 108;
y = 566;
},
{
segmentType = line;
smooth = 0;
x = 50;
y = 566;
},
{
segmentType = line;
smooth = 0;
x = 274;
y = "-9";
}
);
},
{
points = (
{
smooth = 0;
x = 200;
y = "-171";
},
{
smooth = 0;
x = 187;
y = "-197";
},
{
segmentType = curve;
smooth = 1;
x = 142;
y = "-197";
},
{
smooth = 0;
x = 127;
y = "-197";
},
{
smooth = 0;
x = 111;
y = "-196";
},
{
segmentType = curve;
smooth = 0;
x = 96;
y = "-193";
},
{
segmentType = line;
smooth = 0;
x = 96;
y = "-247";
},
{
smooth = 0;
x = 111;
y = "-250";
},
{
smooth = 0;
x = 126;
y = "-251";
},
{
segmentType = curve;
smooth = 1;
x = 137;
y = "-251";
},
{
smooth = 0;
x = 229;
y = "-251";
},
{
smooth = 0;
x = 240;
y = "-217";
},
{
segmentType = curve;
smooth = 1;
x = 290;
y = "-89";
},
{
segmentType = line;
smooth = 0;
x = 545;
y = 566;
},
{
segmentType = line;
smooth = 0;
x = 487;
y = 566;
},
{
segmentType = line;
smooth = 1;
x = 234;
y = "-84";
}
);
}
);
lib = {
};
name = y;
unicodes = (
);
width = 595;
};
};
com.typemytype.robofont.mark = (
1,
1,
0,
1
);
};
},
{
color = (255,255,0,1);
glyphname = z;
lastChange = "2015-02-28 18:39:26 +0000";
layers = (
{
anchors = (
{
name = accent;
position = "{294, 600}";
}
);
layerId = "BE6E37CB-569E-4B40-A59A-BD6EE6EB60D7";
name = Bold;
paths = (
{
closed = 1;
nodes = (
"535 0 LINE",
"535 152 LINE",
"107 152 LINE",
"176 54 LINE",
"513 414 LINE",
"513 566 LINE",
"83 566 LINE",
"83 414 LINE",
"472 414 LINE",
"403 512 LINE",
"65 152 LINE",
"65 0 LINE"
);
}
);
width = 575;
},
{
anchors = (
{
name = accent;
position = "{248, 546}";
}
);
guideLines = (
{
angle = 90;
position = "{86, 327}";
}
);
layerId = "817DDDC7-9D97-429D-9F3D-5ABA58537E71";
name = Light;
paths = (
{
closed = 1;
nodes = (
"457 0 LINE",
"457 52 LINE",
"109 52 LINE",
"118 34 LINE",
"435 494 LINE",
"435 546 LINE",
"85 546 LINE",
"85 494 LINE",
"394 494 LINE",
"385 512 LINE",
"67 52 LINE",
"67 0 LINE"
);
}
);
width = 517;
}
);
unicode = 007A;
userData = {
com.typemytype.robofont.layerData = {
background = {
anchors = (
{
name = accent;
x = 246;
y = 546;
}
);
components = (
);
contours = (
{
points = (
{
segmentType = line;
smooth = 0;
x = 107;
y = 52;
},
{
segmentType = line;
smooth = 0;
x = 116;
y = 34;
},
{
segmentType = line;
smooth = 0;
x = 433;
y = 494;
},
{
segmentType = line;
smooth = 0;
x = 433;
y = 546;
},
{
segmentType = line;
smooth = 0;
x = 83;
y = 546;
},
{
segmentType = line;
smooth = 0;
x = 83;
y = 494;
},
{
segmentType = line;
smooth = 0;
x = 392;
y = 494;
},
{
segmentType = line;
smooth = 0;
x = 383;
y = 512;
},
{
segmentType = line;
smooth = 0;
x = 65;
y = 52;
},
{
segmentType = line;
smooth = 0;
x = 65;
y = 0;
},
{
segmentType = line;
smooth = 0;
x = 455;
y = 0;
},
{
segmentType = line;
smooth = 0;
x = 455;
y = 52;
}
);
}
);
lib = {
};
name = z;
unicodes = (
);
width = 575;
};
};
com.typemytype.robofont.mark = (
1,
1,
0,
1
);
};
},
